{"glyphs":{"0":{"ha":883,"x_min":null,"x_max":null,"o":"m 442 -21 b 825 494 665 -21 825 171 b 442 1010 825 818 665 1010 b 58 494 218 1010 58 818 b 442 -21 58 171 218 -21 z m 442 79 b 244 494 326 79 244 218 b 442 910 244 771 326 910 b 639 494 557 910 639 771 b 442 79 639 218 557 79 z "},"1":{"ha":558,"x_min":null,"x_max":null,"o":"m 128 -4 b 308 0 172 -4 226 0 b 489 -4 389 0 444 -4 b 532 31 519 -4 532 13 b 401 157 532 96 401 58 l 401 835 b 465 968 401 915 465 917 b 429 1006 465 988 453 1006 b 269 949 400 1006 360 979 b 49 882 167 913 110 903 b 13 839 25 875 13 860 b 57 801 13 817 29 801 b 165 814 85 801 132 814 b 217 747 194 814 217 797 l 217 157 b 86 31 217 58 86 96 b 128 -4 86 13 99 -4 z "},"2":{"ha":828,"x_min":null,"x_max":null,"o":"m 763 306 b 710 269 743 306 729 293 b 493 150 618 171 586 150 l 228 150 b 524 422 317 246 422 325 b 708 746 614 508 708 610 b 406 1010 708 897 581 1010 b 75 806 247 1010 135 921 b 60 751 67 788 60 768 b 100 706 60 725 78 706 b 151 744 124 706 138 724 b 343 872 200 815 253 872 b 501 719 442 872 501 806 b 365 454 501 626 446 547 b 61 108 285 361 169 232 b 25 39 36 78 25 60 b 74 -4 25 18 39 -4 b 196 0 111 -4 156 0 l 539 0 b 633 -31 592 0 597 -31 b 696 26 661 -31 676 -14 l 758 160 b 797 268 786 219 797 246 b 763 306 797 290 781 306 z "},"3":{"ha":817,"x_min":null,"x_max":null,"o":"m 471 618 b 699 857 546 694 626 776 b 746 939 732 893 746 917 b 685 990 746 960 733 990 b 572 986 665 990 610 986 l 299 986 b 208 1017 250 986 242 1017 b 146 947 178 1017 165 996 l 97 835 b 67 739 79 790 67 767 b 100 700 67 714 83 700 b 151 735 121 700 132 713 b 358 854 235 831 271 854 l 558 854 b 329 603 486 771 410 688 b 265 535 301 576 265 565 b 313 486 265 508 282 486 b 381 494 331 486 351 494 b 558 299 474 494 558 415 b 357 110 558 185 472 110 b 131 238 246 110 169 175 b 83 274 117 260 103 274 b 40 226 61 274 40 256 b 58 164 40 211 47 188 b 403 -22 97 83 210 -22 b 760 308 599 -22 760 124 b 471 618 760 454 653 599 z "},"4":{"ha":813,"x_min":null,"x_max":null,"o":"m 725 375 l 638 375 l 638 932 b 558 989 638 972 619 989 l 511 989 b 396 918 451 989 432 972 l 69 428 b 6 293 33 371 6 332 b 72 233 6 251 25 233 l 453 233 l 453 153 b 350 29 453 56 350 90 b 392 -4 350 13 363 -4 b 544 0 428 -4 476 0 b 683 -4 610 0 650 -4 b 726 29 714 -4 726 13 b 638 153 726 86 638 54 l 638 233 l 725 233 b 771 286 760 233 771 239 l 771 322 b 725 375 771 367 760 375 z m 458 832 l 458 375 l 157 375 z "},"5":{"ha":794,"x_min":null,"x_max":null,"o":"m 381 640 b 214 610 319 640 261 629 l 253 832 l 632 832 b 696 875 667 832 683 847 l 718 924 b 744 1003 728 947 744 985 b 713 1038 744 1022 731 1038 b 669 1013 696 1038 686 1029 b 606 988 649 993 632 988 l 233 988 b 174 942 196 988 181 976 l 100 504 b 139 450 93 468 117 450 b 324 492 179 450 225 492 b 535 293 443 492 535 414 b 328 103 535 174 449 103 b 122 189 232 103 164 146 b 75 217 106 206 96 217 b 32 174 51 217 32 199 b 58 110 32 157 40 135 b 365 -24 103 51 211 -24 b 736 315 578 -24 736 119 b 381 640 736 499 600 640 z "},"6":{"ha":831,"x_min":null,"x_max":null,"o":"m 476 661 b 257 572 383 661 308 624 b 481 893 265 765 335 893 b 619 851 546 893 590 869 b 667 833 635 842 650 833 b 708 878 692 833 708 851 b 660 946 708 907 688 926 b 451 1006 615 976 543 1006 b 60 465 193 1006 60 774 b 433 -21 60 144 203 -21 b 789 335 636 -21 789 124 b 476 661 789 538 649 661 z m 436 76 b 251 340 315 76 251 208 b 426 550 251 489 332 550 b 603 317 536 550 603 467 b 436 76 603 172 539 76 z "},"7":{"ha":707,"x_min":null,"x_max":null,"o":"m 639 990 b 525 986 621 990 563 986 l 247 986 b 161 1017 200 986 194 1017 b 96 947 132 1017 117 999 l 42 817 b 11 721 21 767 11 743 b 44 682 11 696 26 682 b 96 717 64 682 76 694 b 286 833 169 801 211 833 l 560 833 b 224 160 457 600 336 372 b 165 42 196 114 165 74 b 225 -3 165 15 185 -3 l 283 -3 b 363 50 321 -3 347 11 b 679 872 478 339 575 594 b 697 940 690 901 697 922 b 639 990 697 961 686 990 z "},"8":{"ha":860,"x_min":null,"x_max":null,"o":"m 596 556 b 747 772 690 601 747 681 b 431 1010 747 906 629 1010 b 103 742 221 1010 103 885 b 244 515 103 640 157 568 b 50 257 115 460 50 367 b 428 -22 50 99 207 -22 b 810 272 653 -22 810 99 b 596 556 810 411 721 492 z m 433 917 b 599 756 539 917 599 847 b 500 599 599 694 565 635 b 496 600 499 599 497 600 b 275 782 381 646 275 681 b 433 917 275 860 339 917 z m 429 74 b 208 272 299 74 208 160 b 339 471 208 357 253 428 b 638 238 486 411 638 365 b 429 74 638 129 533 74 z "},"9":{"ha":843,"x_min":null,"x_max":null,"o":"m 410 1006 b 51 661 196 1006 51 853 b 365 324 51 440 199 324 b 600 428 469 324 549 368 b 346 92 592 226 517 92 b 172 147 269 92 217 119 b 125 167 153 158 140 167 b 82 119 100 167 82 144 b 131 49 82 89 103 69 b 372 -22 186 8 274 -22 b 785 501 668 -22 785 224 b 410 1006 785 850 628 1006 z m 411 436 b 238 671 304 436 238 515 b 410 910 238 818 308 910 b 592 644 525 910 592 781 b 411 436 592 500 508 436 z "},"―":{"ha":650,"x_min":null,"x_max":null,"o":""},"‖":{"ha":650,"x_min":null,"x_max":null,"o":""},"‗":{"ha":650,"x_min":null,"x_max":null,"o":""},"‛":{"ha":650,"x_min":null,"x_max":null,"o":""},"‟":{"ha":650,"x_min":null,"x_max":null,"o":""},"‣":{"ha":650,"x_min":null,"x_max":null,"o":""},"․":{"ha":650,"x_min":null,"x_max":null,"o":""},"‥":{"ha":650,"x_min":null,"x_max":null,"o":""},"₻":{"ha":650,"x_min":null,"x_max":null,"o":""},"₼":{"ha":650,"x_min":null,"x_max":null,"o":""},"↔":{"ha":650,"x_min":null,"x_max":null,"o":""},"↕":{"ha":650,"x_min":null,"x_max":null,"o":""},"∃":{"ha":650,"x_min":null,"x_max":null,"o":""},"∄":{"ha":650,"x_min":null,"x_max":null,"o":""},"∅":{"ha":650,"x_min":null,"x_max":null,"o":""},"∐":{"ha":650,"x_min":null,"x_max":null,"o":""},"∛":{"ha":650,"x_min":null,"x_max":null,"o":""},"∜":{"ha":650,"x_min":null,"x_max":null,"o":""},"∝":{"ha":650,"x_min":null,"x_max":null,"o":""},"≡":{"ha":650,"x_min":null,"x_max":null,"o":""},"≢":{"ha":650,"x_min":null,"x_max":null,"o":""},"≣":{"ha":650,"x_min":null,"x_max":null,"o":""}," ":{"ha":342,"x_min":null,"x_max":null,"o":""},"!":{"ha":369,"x_min":null,"x_max":null,"o":"m 186 263 b 225 294 207 263 221 272 b 278 908 244 535 278 807 b 186 1014 278 974 253 1014 b 94 908 122 1014 94 971 b 147 294 94 807 128 535 b 186 263 153 274 164 263 z m 190 168 b 290 82 250 168 290 136 b 176 -12 290 31 243 -12 b 76 74 117 -12 76 19 b 190 168 76 126 124 168 z "},"\"":{"ha":510,"x_min":null,"x_max":null,"o":"m 138 597 b 93 647 114 597 97 615 l 64 860 b 57 929 61 879 57 907 b 138 1006 57 975 90 1006 b 219 929 186 1006 219 975 b 213 860 219 907 215 879 l 183 647 b 138 597 179 615 163 597 z m 372 597 b 326 647 347 597 331 615 l 297 860 b 290 929 294 879 290 907 b 372 1006 290 975 324 1006 b 453 929 419 1006 453 975 b 446 860 453 907 449 879 l 417 647 b 372 597 413 615 396 597 z "},"#":{"ha":919,"x_min":null,"x_max":null,"o":"m 235 -6 b 292 43 271 -6 288 8 l 321 251 b 339 267 322 263 328 267 l 521 267 b 535 251 532 267 536 263 l 506 43 b 556 -6 501 8 518 -6 b 613 43 592 -6 607 8 l 640 251 b 660 267 643 263 649 267 l 765 267 b 824 322 801 267 818 282 b 779 378 828 360 818 378 l 672 378 b 660 393 663 378 658 382 l 688 593 b 706 608 689 604 694 608 l 813 608 b 869 664 847 608 864 624 b 826 719 875 703 864 719 l 719 719 b 706 735 708 719 704 724 l 735 943 b 686 992 739 978 722 992 b 628 943 649 992 633 978 l 600 735 b 581 719 599 724 592 719 l 399 719 b 386 735 388 719 385 724 l 414 943 b 365 992 419 978 401 992 b 308 943 328 992 313 978 l 279 735 b 261 719 278 724 271 719 l 154 719 b 97 664 118 719 101 704 b 140 608 92 626 101 608 l 247 608 b 260 593 257 608 261 604 l 232 393 b 214 378 231 382 225 378 l 108 378 b 50 322 72 378 56 363 b 94 267 44 285 56 267 l 200 267 b 214 251 211 267 215 263 l 185 43 b 235 -6 181 8 197 -6 z m 353 378 b 339 393 342 378 338 382 l 367 593 b 385 608 368 604 375 608 l 568 608 b 581 593 578 608 582 604 l 553 393 b 535 378 551 382 546 378 z "},"$":{"ha":843,"x_min":null,"x_max":null,"o":"m 786 261 b 468 596 786 460 631 533 l 468 899 b 672 747 549 876 619 819 b 722 711 689 725 704 711 b 751 743 738 711 751 724 b 701 869 751 765 735 803 l 669 933 b 600 1015 644 982 628 1015 b 542 972 567 1015 572 972 b 468 992 526 972 501 982 l 468 1106 b 419 1160 468 1143 454 1160 b 372 1106 386 1160 372 1143 l 372 1008 l 367 1008 b 93 742 210 1008 93 893 b 372 433 93 571 231 489 l 372 89 b 131 283 271 117 193 199 b 81 321 119 297 104 321 b 47 281 65 321 47 307 b 88 157 47 254 61 225 l 135 32 b 188 -28 147 -1 163 -28 b 256 19 218 -28 221 19 b 372 -12 276 19 315 0 l 372 -139 b 421 -193 372 -176 386 -193 b 468 -139 456 -193 468 -176 l 468 -22 b 786 261 650 -21 786 75 z m 261 778 b 372 907 261 849 306 897 l 372 636 b 261 778 299 674 261 715 z m 468 81 l 468 396 b 619 226 558 356 619 311 b 468 81 619 140 561 88 z "},"%":{"ha":1239,"x_min":null,"x_max":null,"o":"m 269 -22 b 363 43 321 -22 347 19 l 958 886 b 1011 982 988 926 1011 960 b 963 1018 1011 1001 993 1018 b 869 953 911 1018 886 975 l 274 108 b 221 13 246 68 221 35 b 269 -22 221 -7 239 -22 z m 289 450 b 538 732 435 450 538 556 b 289 1014 538 908 435 1014 b 40 732 143 1014 40 907 b 289 450 40 557 143 450 z m 289 528 b 193 732 232 528 193 583 b 289 935 193 879 232 935 b 385 732 346 935 385 881 b 289 528 385 583 346 528 z m 949 -7 b 1197 275 1094 -7 1197 99 b 949 557 1197 451 1094 557 b 700 275 803 557 700 451 b 949 -7 700 100 803 -7 z m 949 71 b 853 275 892 71 853 128 b 949 478 853 422 892 478 b 1044 275 1006 478 1044 424 b 949 71 1044 126 1006 71 z "},"&":{"ha":1144,"x_min":null,"x_max":null,"o":"m 964 138 l 846 244 b 1011 765 944 375 1011 551 b 951 932 1011 857 999 932 b 868 903 931 932 893 919 b 838 863 849 892 838 879 b 867 828 838 846 851 838 b 907 714 896 810 907 790 b 771 311 907 564 853 421 l 489 564 b 707 814 635 632 707 719 b 449 1010 707 922 610 1010 b 154 772 281 1010 154 914 b 269 549 154 685 206 614 b 43 250 133 486 43 379 b 364 -21 43 96 169 -21 b 733 125 488 -21 621 31 l 786 78 b 817 33 806 61 810 57 b 874 -4 821 14 825 -4 b 982 0 896 -4 931 0 b 1086 -4 1035 0 1067 -4 b 1131 28 1118 -4 1131 8 b 964 138 1131 81 1046 64 z m 439 921 b 557 801 511 921 557 868 b 425 622 557 743 515 676 b 315 801 351 692 315 742 b 439 921 315 879 375 921 z m 432 101 b 231 297 314 101 231 174 b 328 493 231 378 274 447 l 660 193 b 432 101 588 135 508 101 z "},"'":{"ha":276,"x_min":null,"x_max":null,"o":"m 138 593 b 93 644 114 593 97 611 l 64 858 b 57 929 61 878 57 907 b 138 1006 57 975 90 1006 b 219 929 186 1006 219 975 b 213 858 219 907 215 878 l 183 644 b 138 593 179 611 163 593 z "},"(":{"ha":471,"x_min":null,"x_max":null,"o":"m 240 461 b 401 950 240 690 306 847 b 457 1029 428 979 457 1003 b 421 1063 457 1050 444 1063 b 264 975 382 1063 324 1029 b 46 461 165 885 46 704 b 264 -51 46 213 164 40 b 421 -139 324 -106 382 -139 b 457 -106 444 -139 457 -126 b 401 -28 457 -79 428 -56 b 240 461 306 76 240 233 z "},")":{"ha":471,"x_min":null,"x_max":null,"o":"m 231 461 b 71 -28 231 233 165 76 b 15 -106 43 -56 15 -79 b 51 -139 15 -126 26 -139 b 208 -51 89 -139 149 -106 b 425 461 307 40 425 213 b 208 975 425 704 306 885 b 51 1063 149 1029 89 1063 b 15 1029 26 1063 15 1050 b 71 950 15 1003 43 979 b 231 461 165 847 231 690 z "},"*":{"ha":697,"x_min":null,"x_max":null,"o":"m 218 446 b 267 475 236 446 251 456 b 340 625 292 511 321 565 b 349 635 343 631 344 635 b 357 625 353 635 356 631 b 432 475 379 567 406 511 b 479 446 446 456 463 446 b 557 515 510 446 557 482 b 542 557 557 528 551 542 b 428 671 517 593 474 632 b 419 681 421 675 419 678 b 446 689 419 688 425 688 b 592 713 501 693 554 701 b 636 768 622 722 636 743 b 575 846 636 800 617 846 b 401 767 538 846 461 804 b 393 764 399 765 397 764 b 389 768 392 764 389 765 b 392 782 389 771 389 772 b 417 939 407 839 417 896 b 349 1003 417 982 392 1003 b 281 939 307 1003 281 982 b 307 782 281 896 290 839 b 310 768 310 772 310 771 b 304 764 310 765 307 764 b 296 767 301 764 299 765 b 122 846 235 800 160 846 b 61 768 82 846 61 800 b 106 713 61 743 75 724 b 251 689 143 701 197 693 b 279 681 272 688 279 688 b 271 671 279 678 276 675 b 156 557 224 633 182 593 b 142 515 146 542 142 528 b 218 446 142 482 189 446 z "},"+":{"ha":808,"x_min":null,"x_max":null,"o":"m 404 82 b 463 118 442 82 463 93 l 463 350 b 479 367 463 361 468 367 l 696 367 b 732 424 722 367 732 386 b 696 479 732 458 722 479 l 479 479 b 463 496 468 479 463 485 l 463 713 b 404 750 463 739 442 750 b 346 713 367 750 346 739 l 346 496 b 329 479 346 485 340 479 l 113 479 b 75 424 86 479 75 458 b 113 367 75 386 86 367 l 329 367 b 346 350 340 367 346 361 l 346 118 b 404 82 346 93 367 82 z "},",":{"ha":354,"x_min":null,"x_max":null,"o":"m 179 182 b 57 82 110 182 57 138 b 113 4 57 36 85 18 b 158 -37 133 -7 158 -15 b 97 -124 158 -71 121 -106 b 69 -162 82 -136 69 -146 b 104 -193 69 -181 83 -193 b 294 65 168 -193 294 -65 b 179 182 294 142 257 182 z "},"-":{"ha":522,"x_min":null,"x_max":null,"o":"m 121 293 l 401 293 b 449 346 435 293 449 306 l 449 381 b 403 433 449 421 436 433 l 121 433 b 74 381 88 433 74 421 l 74 346 b 121 293 74 306 88 293 z "},".":{"ha":343,"x_min":null,"x_max":null,"o":"m 178 183 b 286 90 242 183 286 149 b 163 -12 286 33 235 -12 b 56 81 99 -12 56 22 b 178 183 56 138 107 183 z "},"/":{"ha":563,"x_min":null,"x_max":null,"o":"m 92 -42 b 167 3 132 -42 153 -33 l 515 922 b 525 958 519 935 525 946 b 471 990 525 981 507 990 b 396 944 431 990 408 981 l 47 26 b 38 -10 42 14 38 1 b 92 -42 38 -32 54 -42 z "},":":{"ha":374,"x_min":null,"x_max":null,"o":"m 194 619 b 301 528 258 619 301 586 b 178 426 301 472 250 426 b 72 518 115 426 72 461 b 194 619 72 575 124 619 z m 194 182 b 301 89 258 182 301 147 b 178 -12 301 33 250 -12 b 72 79 115 -12 72 22 b 194 182 72 136 124 182 z "},";":{"ha":389,"x_min":null,"x_max":null,"o":"m 197 619 b 304 528 261 619 304 585 b 182 425 304 471 253 425 b 75 518 118 425 75 460 b 197 619 75 574 126 619 z m 200 182 b 78 82 131 182 78 138 b 133 4 78 36 106 18 b 178 -37 154 -7 178 -15 b 118 -124 178 -71 142 -106 b 90 -162 103 -136 90 -146 b 125 -193 90 -181 104 -193 b 315 65 189 -193 315 -65 b 200 182 315 142 276 182 z "},"<":{"ha":707,"x_min":null,"x_max":null,"o":"m 606 121 b 633 163 622 121 633 135 b 583 250 633 210 624 233 l 213 413 b 204 422 207 415 204 418 b 213 431 204 425 207 428 l 583 594 b 633 681 624 611 633 632 b 606 722 633 710 622 722 b 568 711 593 722 579 717 l 107 494 b 60 422 72 476 60 458 b 107 350 60 385 72 367 l 568 132 b 606 121 579 128 593 121 z "},"=":{"ha":821,"x_min":null,"x_max":null,"o":"m 118 499 l 703 499 b 740 556 729 499 740 518 b 703 611 740 590 729 611 l 118 611 b 82 556 92 611 82 590 b 118 499 82 518 92 499 z m 118 233 l 703 233 b 740 292 729 233 740 254 b 703 347 740 326 729 347 l 118 347 b 82 292 92 347 82 326 b 118 233 82 254 92 233 z "},">":{"ha":707,"x_min":null,"x_max":null,"o":"m 101 121 b 139 132 113 121 126 128 l 599 350 b 646 422 635 367 646 385 b 599 494 646 458 635 476 l 139 711 b 101 722 126 717 113 722 b 74 681 85 722 74 710 b 122 594 74 632 83 611 l 494 431 b 501 422 500 428 501 425 b 494 413 501 418 500 415 l 122 250 b 74 163 82 233 74 210 b 101 121 74 135 83 121 z "},"?":{"ha":636,"x_min":null,"x_max":null,"o":"m 286 263 b 322 289 310 263 319 275 b 339 393 326 311 331 339 b 443 532 347 433 378 468 b 582 783 514 601 582 664 b 315 1014 582 925 461 1014 b 39 858 157 1014 39 922 b 113 736 39 829 54 786 b 154 714 129 721 140 714 b 192 756 174 714 186 731 b 333 925 211 849 254 925 b 440 817 399 925 440 879 b 336 650 440 756 404 722 b 233 449 263 575 233 521 b 250 290 233 397 242 325 b 286 263 254 275 265 263 z m 300 164 b 400 81 360 164 400 133 b 286 -12 400 29 353 -12 b 186 72 226 -12 186 19 b 300 164 186 124 233 164 z "},"@":{"ha":1396,"x_min":null,"x_max":null,"o":"m 757 897 b 44 244 351 897 44 624 b 636 -253 44 -50 282 -253 b 917 -207 754 -253 861 -231 b 976 -146 960 -187 976 -171 b 944 -114 976 -124 957 -114 b 671 -157 913 -114 843 -157 b 201 257 376 -157 201 17 b 740 807 201 585 440 807 b 1201 376 1014 807 1201 639 b 1032 71 1201 200 1122 71 b 978 139 993 71 978 103 b 985 214 978 151 982 183 l 1025 588 b 994 628 1028 613 1015 628 b 894 586 965 628 933 586 b 706 639 858 586 813 639 b 361 263 506 639 361 476 b 603 -12 361 93 471 -12 b 847 114 707 -12 794 42 b 1011 -28 860 21 914 -28 b 1346 386 1188 -28 1346 142 b 757 897 1346 692 1101 897 z m 682 99 b 525 308 596 99 525 175 b 703 557 525 429 585 557 b 857 372 792 557 857 474 b 849 279 857 353 851 314 b 682 99 836 164 760 99 z "},"A":{"ha":1024,"x_min":null,"x_max":null,"o":"m 925 151 l 704 714 b 631 908 678 781 650 854 b 514 996 604 985 596 996 b 393 908 431 996 419 986 b 321 714 375 854 347 781 l 99 149 b -12 26 63 57 -12 82 b 25 -4 -12 8 1 -4 b 128 0 56 -4 85 0 b 249 -4 171 0 210 -4 b 299 31 281 -4 299 7 b 203 121 299 79 203 65 b 217 169 203 133 208 147 l 272 308 b 315 340 281 332 289 340 l 628 340 b 671 308 654 340 663 332 l 728 168 b 739 119 735 147 739 132 b 646 31 739 64 646 81 b 696 -4 646 7 664 -4 b 861 0 735 -4 796 0 b 999 -4 926 0 969 -4 b 1035 26 1021 -4 1035 8 b 925 151 1035 79 963 58 z m 594 432 l 346 432 b 329 458 328 432 324 443 l 471 819 l 614 457 b 594 432 619 444 617 432 z "},"B":{"ha":1008,"x_min":null,"x_max":null,"o":"m 738 538 b 886 740 838 575 886 651 b 508 993 886 906 732 993 b 238 986 399 993 317 986 b 103 990 175 986 129 990 b 58 956 69 990 58 975 b 147 836 58 900 147 932 l 147 150 b 58 31 147 54 58 86 b 103 -4 58 11 69 -4 b 238 0 129 -4 175 0 b 551 -6 300 0 424 -6 b 963 279 826 -6 963 108 b 738 538 963 417 868 503 z m 331 831 b 444 900 331 883 360 900 l 471 900 b 686 729 613 900 686 836 b 493 572 686 625 618 572 l 374 572 b 331 606 339 572 331 582 z m 511 88 l 457 88 b 331 171 357 88 331 101 l 331 446 b 372 483 331 474 340 483 l 493 483 b 760 276 672 483 760 403 b 511 88 760 157 664 88 z "},"C":{"ha":979,"x_min":null,"x_max":null,"o":"m 524 -28 b 928 185 736 -28 878 94 b 946 240 939 207 946 225 b 906 282 946 265 928 282 b 858 251 883 282 871 267 b 585 103 794 161 699 103 b 251 511 390 103 251 263 b 553 913 251 743 381 913 b 846 706 657 913 743 842 b 897 671 864 683 878 671 b 935 713 915 671 935 685 b 897 821 935 736 922 758 l 850 943 b 789 1015 829 997 814 1015 b 725 978 760 1015 756 978 b 518 1011 692 978 615 1011 b 51 472 272 1011 51 792 b 524 -28 51 157 276 -28 z "},"D":{"ha":1096,"x_min":null,"x_max":null,"o":"m 506 -6 b 1046 479 831 -6 1046 192 b 468 993 1046 782 807 993 b 238 986 392 993 314 986 b 103 990 175 986 128 990 b 57 956 69 990 57 975 b 147 836 57 900 147 932 l 147 150 b 57 31 147 54 57 86 b 103 -4 57 11 69 -4 b 238 0 128 -4 175 0 b 506 -6 328 0 417 -6 z m 442 89 b 331 156 357 89 331 106 l 331 831 b 442 897 331 879 356 897 l 465 897 b 843 489 700 897 843 733 b 483 89 843 240 714 89 z "},"E":{"ha":967,"x_min":null,"x_max":null,"o":"m 917 299 b 865 264 897 299 885 286 b 585 90 767 157 704 90 l 429 90 b 331 158 344 90 331 108 l 331 422 b 371 456 331 446 339 456 l 482 456 b 615 353 568 456 564 353 b 651 399 636 353 651 365 b 647 501 651 431 647 465 b 651 603 647 536 651 569 b 615 649 651 636 636 649 b 482 546 564 649 568 546 l 371 546 b 331 579 339 546 331 556 l 331 828 b 429 896 331 876 343 896 l 532 896 b 799 732 647 896 703 835 b 851 699 819 711 832 699 b 885 735 868 699 885 711 b 849 835 885 758 875 782 l 796 947 b 728 1017 772 999 756 1017 b 642 986 694 1017 690 986 l 238 986 b 103 990 174 986 128 990 b 58 956 69 990 58 975 b 147 836 58 900 147 932 l 147 150 b 58 31 147 54 58 86 b 103 -4 58 11 69 -4 b 238 0 129 -4 175 0 l 697 0 b 790 -31 749 0 753 -31 b 853 29 817 -31 835 -10 l 913 157 b 951 263 942 215 951 238 b 917 299 951 285 933 299 z "},"F":{"ha":882,"x_min":null,"x_max":null,"o":"m 844 835 l 792 947 b 724 1017 768 999 750 1017 b 638 986 690 1017 686 986 l 238 986 b 103 990 175 986 129 990 b 58 956 69 990 58 975 b 147 836 58 900 147 932 l 147 150 b 58 29 147 54 58 86 b 100 -4 58 13 69 -4 b 240 0 133 -4 174 0 b 397 -4 311 0 360 -4 b 439 29 426 -4 439 13 b 331 150 439 86 331 54 l 331 410 b 371 443 331 433 339 443 l 524 443 b 657 336 610 443 606 336 b 693 383 678 336 693 349 b 689 489 693 414 689 453 b 693 593 689 524 693 560 b 657 639 693 626 678 639 b 524 533 606 639 610 533 l 371 533 b 331 567 339 533 331 543 l 331 828 b 429 896 331 876 343 896 l 532 896 b 794 732 642 896 697 835 b 846 699 814 711 828 699 b 881 735 863 699 881 711 b 844 835 881 758 869 782 z "},"G":{"ha":1067,"x_min":null,"x_max":null,"o":"m 600 -28 b 942 29 751 -28 888 11 b 983 71 972 40 983 51 b 949 161 983 104 949 97 l 949 333 b 1038 453 949 428 1038 397 b 992 488 1038 472 1025 488 l 718 488 b 672 453 683 488 672 472 b 767 333 672 394 767 428 l 767 139 b 631 78 767 108 728 78 b 254 492 369 78 254 268 b 557 913 254 718 371 913 b 869 706 704 913 789 807 b 921 671 892 681 903 671 b 960 713 942 671 960 688 b 921 821 960 733 946 758 l 875 943 b 814 1015 860 985 842 1015 b 749 978 782 1015 776 978 b 519 1011 715 978 643 1011 b 51 472 275 1011 51 790 b 600 -28 51 150 281 -28 z "},"H":{"ha":1139,"x_min":null,"x_max":null,"o":"m 993 150 l 993 836 b 1082 957 993 932 1082 900 b 1039 990 1082 974 1069 990 b 900 986 1006 990 965 986 b 761 990 835 986 794 990 b 719 957 732 990 719 974 b 808 836 719 900 808 932 l 808 579 b 768 546 808 556 800 546 l 371 546 b 331 579 339 546 331 556 l 331 836 b 419 957 331 932 419 900 b 378 990 419 974 408 990 b 238 986 344 990 303 986 b 103 990 172 986 136 990 b 58 957 72 990 58 974 b 147 836 58 900 147 932 l 147 150 b 58 29 147 54 58 86 b 100 -4 58 13 69 -4 b 238 0 133 -4 172 0 b 378 -4 303 0 344 -4 b 419 29 408 -4 419 13 b 331 150 419 86 331 54 l 331 422 b 371 456 331 446 339 456 l 768 456 b 808 422 800 456 808 446 l 808 150 b 719 29 808 54 719 86 b 761 -4 719 13 732 -4 b 900 0 794 -4 835 0 b 1039 -4 965 0 1006 -4 b 1082 29 1069 -4 1082 13 b 993 150 1082 86 993 54 z "},"I":{"ha":478,"x_min":null,"x_max":null,"o":"m 100 -4 b 238 0 133 -4 172 0 b 378 -4 303 0 344 -4 b 419 29 408 -4 419 13 b 331 150 419 86 331 54 l 331 836 b 419 957 331 932 419 900 b 378 990 419 974 408 990 b 238 986 344 990 303 986 b 103 990 172 986 136 990 b 58 957 72 990 58 974 b 147 836 58 900 147 932 l 147 150 b 58 29 147 54 58 86 b 100 -4 58 13 69 -4 z "},"J":{"ha":715,"x_min":null,"x_max":null,"o":"m 292 -19 b 586 233 474 -19 586 65 l 586 836 b 675 957 586 932 675 900 b 633 990 675 974 663 990 b 493 986 600 990 558 986 b 344 990 424 986 381 990 b 301 957 315 990 301 974 b 401 836 301 897 403 932 l 403 225 b 282 75 403 138 358 75 b 140 288 197 75 161 139 b 101 329 136 314 124 329 b 54 283 83 331 65 314 b 11 113 22 189 11 138 b 292 -19 11 40 149 -19 z "},"K":{"ha":1032,"x_min":null,"x_max":null,"o":"m 928 135 l 607 635 l 860 868 b 1004 958 921 925 1004 906 b 969 989 1004 976 990 989 b 832 985 939 989 874 985 b 701 989 790 985 740 989 b 650 954 669 989 650 978 b 715 890 650 910 715 925 b 678 835 715 869 701 858 l 331 510 l 331 836 b 419 957 331 932 419 900 b 378 990 419 974 408 990 b 238 986 344 990 303 986 b 103 990 172 986 136 990 b 58 957 72 990 58 974 b 147 836 58 900 147 932 l 147 150 b 58 29 147 54 58 86 b 100 -4 58 13 69 -4 b 238 0 133 -4 172 0 b 378 -4 303 0 344 -4 b 419 29 408 -4 419 13 b 331 150 419 86 331 54 l 331 379 l 478 515 l 706 163 b 724 115 718 144 724 128 b 649 31 724 64 649 79 b 697 -4 649 10 663 -4 b 850 0 738 -4 785 0 b 1003 -4 915 0 976 -4 b 1042 28 1028 -4 1042 10 b 928 135 1042 79 975 63 z "},"L":{"ha":894,"x_min":null,"x_max":null,"o":"m 733 -31 b 797 31 761 -31 778 -10 l 858 160 b 897 268 888 219 897 243 b 863 306 897 290 881 306 b 808 269 843 306 831 292 b 528 90 707 163 635 90 l 390 90 b 331 147 349 90 331 107 l 331 836 b 419 957 331 932 419 900 b 378 990 419 974 408 990 b 238 986 344 990 303 986 b 103 990 172 986 136 990 b 58 957 72 990 58 974 b 147 836 58 900 147 932 l 147 150 b 58 31 147 54 58 86 b 103 -4 58 11 69 -4 b 238 0 129 -4 175 0 l 639 0 b 733 -31 692 0 696 -31 z "},"M":{"ha":1353,"x_min":null,"x_max":null,"o":"m 1235 142 l 1126 763 b 1113 857 1118 807 1113 836 b 1190 957 1113 921 1190 904 b 1147 990 1190 974 1176 990 b 1018 986 1114 990 1072 986 b 876 990 956 986 911 990 b 832 956 849 990 832 975 b 908 857 832 903 908 922 b 875 749 908 832 896 796 l 694 318 l 490 749 b 449 860 467 799 449 836 b 519 956 449 917 519 906 b 475 990 519 975 504 990 b 342 986 440 990 400 986 b 203 990 286 986 232 990 b 153 957 165 990 153 974 b 233 843 153 903 233 921 b 226 763 233 826 233 796 l 122 143 b 14 31 110 68 14 82 b 58 -4 14 8 32 -4 b 163 0 88 -4 122 0 b 278 -4 204 0 243 -4 b 326 31 308 -4 326 7 b 236 121 326 81 236 67 b 242 171 236 136 239 151 l 324 690 l 603 114 b 658 76 615 86 633 76 b 714 114 681 76 701 86 l 956 682 l 1042 171 b 1049 121 1046 151 1049 136 b 957 31 1049 67 957 81 b 1007 -4 957 7 975 -4 b 1160 0 1047 -4 1096 0 b 1293 -4 1226 0 1267 -4 b 1340 29 1322 -4 1340 10 b 1235 142 1340 83 1249 68 z "},"N":{"ha":1081,"x_min":null,"x_max":null,"o":"m 994 990 b 888 986 961 990 925 986 b 771 990 844 986 808 990 b 724 957 742 990 724 975 b 836 836 724 892 836 929 l 836 308 l 329 954 b 263 989 307 982 286 989 b 190 988 242 989 222 988 b 103 990 157 988 129 990 b 56 956 71 990 56 975 b 147 836 56 900 147 932 l 147 150 b 56 31 147 54 56 86 b 99 -4 56 13 69 -4 b 207 0 133 -4 174 0 b 324 -4 242 0 288 -4 b 369 29 354 -4 369 10 b 258 150 369 94 258 57 l 258 754 l 831 28 b 899 -12 850 4 867 -12 b 946 36 924 -12 946 3 l 946 836 b 1039 957 946 932 1039 900 b 994 990 1039 975 1025 990 z "},"O":{"ha":1151,"x_min":null,"x_max":null,"o":"m 575 -28 b 1101 474 878 -28 1101 169 b 575 1014 1101 782 878 1014 b 50 472 276 1014 50 782 b 575 -28 50 168 276 -28 z m 575 75 b 254 488 376 75 254 264 b 576 915 254 715 375 915 b 897 492 776 915 897 714 b 575 75 897 264 781 75 z "},"P":{"ha":938,"x_min":null,"x_max":null,"o":"m 463 994 b 238 986 389 994 294 986 b 103 990 172 986 136 990 b 58 957 72 990 58 974 b 147 836 58 900 147 932 l 147 150 b 58 29 147 54 58 86 b 100 -4 58 13 69 -4 b 238 0 133 -4 172 0 b 400 -4 310 0 363 -4 b 442 29 431 -4 442 13 b 331 151 442 92 331 56 l 331 297 b 460 317 331 329 340 317 b 913 650 788 317 913 457 b 463 994 913 864 756 994 z m 440 410 b 331 467 367 410 331 424 l 331 832 b 447 900 331 858 331 900 b 710 650 611 900 710 817 b 440 410 710 500 631 410 z "},"Q":{"ha":1156,"x_min":null,"x_max":null,"o":"m 1074 33 b 950 -31 1039 33 999 -31 b 861 43 913 -31 886 -3 b 1101 474 1008 126 1101 278 b 575 1014 1101 782 878 1014 b 50 472 276 1014 50 782 b 575 -28 50 168 276 -28 b 733 -8 631 -28 685 -21 b 933 -182 769 -107 839 -182 b 1040 -122 972 -182 1001 -169 b 1108 -3 1081 -71 1108 -29 b 1074 33 1108 18 1094 33 z m 254 488 b 576 915 254 715 375 915 b 897 492 776 915 897 714 b 796 176 897 367 863 253 b 586 351 749 289 683 351 b 436 261 504 351 436 293 b 464 232 436 244 447 232 b 561 265 485 232 513 265 b 704 104 628 265 665 218 b 575 75 667 85 624 75 b 254 488 376 75 254 264 z "},"R":{"ha":1029,"x_min":null,"x_max":null,"o":"m 864 174 l 707 382 b 931 668 843 421 931 525 b 458 994 931 861 774 994 b 231 986 382 994 289 986 b 104 990 179 986 131 990 b 58 957 69 990 58 974 b 147 836 58 900 147 932 l 147 150 b 58 29 147 54 58 86 b 100 -4 58 13 69 -4 b 238 0 133 -4 172 0 b 381 -4 303 0 347 -4 b 422 29 411 -4 422 13 b 331 150 422 86 331 54 l 331 328 b 364 358 331 350 339 360 b 483 358 404 357 444 357 b 547 325 508 360 526 350 l 663 172 b 693 110 678 151 693 131 b 624 31 693 61 624 78 b 672 -4 624 7 640 -4 b 824 0 708 -4 764 0 b 983 -4 888 0 953 -4 b 1021 28 1007 -4 1021 8 b 864 174 1021 85 946 68 z m 454 443 b 331 492 357 443 331 453 l 331 832 b 451 900 331 886 367 900 b 728 667 611 900 728 822 b 454 443 728 490 615 443 z "},"S":{"ha":935,"x_min":null,"x_max":null,"o":"m 201 -28 b 278 19 235 -28 240 19 b 532 -21 313 19 399 -21 b 900 276 750 -21 900 92 b 506 621 900 497 703 564 b 244 792 340 671 244 699 b 396 910 244 864 303 910 b 726 749 526 910 636 842 b 783 713 747 728 763 713 b 813 744 799 713 813 726 b 756 869 813 764 800 794 l 717 935 b 642 1015 686 985 674 1015 b 575 974 607 1015 608 974 b 371 1007 543 974 485 1007 b 75 754 200 1007 75 897 b 454 440 75 556 276 492 b 729 239 619 392 729 356 b 518 78 729 143 657 78 b 128 283 350 78 228 176 b 74 318 115 297 96 318 b 39 278 57 318 39 304 b 86 154 39 253 54 226 l 143 32 b 201 -28 160 -4 175 -28 z "},"T":{"ha":1043,"x_min":null,"x_max":null,"o":"m 360 -4 b 521 0 400 -4 451 0 b 682 -4 592 0 642 -4 b 724 31 713 -4 724 13 b 614 150 724 92 614 56 l 614 835 b 669 896 614 876 628 896 l 708 896 b 958 735 800 896 867 840 b 1008 700 978 713 990 700 b 1043 739 1026 700 1043 714 b 1013 835 1043 761 1032 786 l 965 947 b 900 1017 943 999 928 1017 b 813 986 867 1017 861 986 l 229 986 b 143 1017 182 986 176 1017 b 78 947 115 1017 99 999 l 31 835 b 0 739 10 786 0 761 b 33 700 0 714 15 700 b 85 735 53 700 65 713 b 333 896 176 840 242 896 l 374 896 b 429 835 415 896 429 876 l 429 150 b 319 31 429 56 319 92 b 360 -4 319 13 331 -4 z "},"U":{"ha":1017,"x_min":null,"x_max":null,"o":"m 510 -28 b 918 303 736 -26 918 61 b 913 385 918 324 915 351 l 876 790 b 872 849 875 813 872 835 b 926 915 872 893 901 906 b 965 957 946 924 965 932 b 924 990 965 974 953 990 b 814 986 889 990 846 986 b 694 990 779 986 731 990 b 649 957 664 990 649 974 b 696 910 649 926 671 919 b 763 836 725 899 758 888 l 801 390 b 806 314 803 364 806 333 b 543 90 806 150 694 90 b 285 317 382 92 285 163 b 289 393 285 336 288 368 l 325 836 b 386 914 329 889 360 901 b 425 957 406 922 425 931 b 382 990 425 974 413 990 b 233 986 349 990 299 986 b 94 990 168 986 128 990 b 53 957 64 990 53 974 b 90 915 53 932 71 924 b 142 849 114 906 142 893 b 138 790 142 835 139 813 l 104 394 b 99 308 101 365 99 333 b 510 -28 99 61 283 -28 z "},"V":{"ha":1065,"x_min":null,"x_max":null,"o":"m 1035 989 b 918 985 1006 989 964 985 b 785 989 871 985 828 989 b 735 954 753 989 735 978 b 842 853 735 901 842 919 b 825 790 842 839 835 815 l 572 165 l 326 781 b 304 854 315 810 304 839 b 404 954 304 915 404 901 b 353 989 404 978 385 989 b 174 985 310 989 244 985 b 31 989 108 985 61 989 b -10 957 8 989 -10 976 b 110 822 -10 903 68 924 l 429 38 b 531 -15 443 1 460 -15 b 633 38 600 -15 619 0 l 954 826 b 1076 958 996 929 1076 903 b 1035 989 1076 976 1061 989 z "},"W":{"ha":1506,"x_min":null,"x_max":null,"o":"m 1483 989 b 1381 985 1456 989 1421 985 b 1258 989 1340 985 1296 989 b 1210 954 1226 989 1210 978 b 1300 863 1210 906 1300 918 b 1279 779 1300 847 1294 826 l 1085 188 l 878 785 b 860 863 865 819 860 846 b 942 954 860 918 942 906 b 896 989 942 978 926 989 b 736 985 857 989 800 985 b 601 989 669 985 632 989 b 564 958 581 989 564 976 b 667 833 564 904 635 925 l 701 735 l 513 185 l 304 785 b 286 863 292 821 286 846 b 367 954 286 918 367 906 b 318 989 367 978 349 989 b 161 985 281 989 225 985 b 24 989 96 985 54 989 b -14 958 3 989 -14 976 b 92 833 -14 904 58 925 l 378 35 b 469 -15 390 1 404 -15 b 565 35 535 -15 553 1 l 757 581 l 951 35 b 1044 -15 964 1 979 -15 b 1138 35 1107 -15 1126 1 l 1414 836 b 1519 958 1444 928 1519 903 b 1483 989 1519 976 1506 989 z "},"X":{"ha":1008,"x_min":null,"x_max":null,"o":"m 874 160 l 601 525 l 853 840 b 983 958 918 922 983 907 b 942 990 983 979 967 990 b 828 986 911 990 867 986 b 694 990 788 986 724 990 b 649 956 664 990 649 978 b 732 872 649 904 732 922 b 703 813 732 858 722 838 l 542 606 l 388 813 b 353 878 369 836 353 860 b 433 957 353 928 433 907 b 386 990 433 979 415 990 b 214 986 351 990 279 986 b 65 990 147 986 101 990 b 25 957 42 990 25 978 b 153 839 25 910 89 924 l 410 492 l 156 178 b -10 29 63 63 -10 81 b 32 -4 -10 7 7 -4 b 151 0 63 -4 113 0 b 294 -4 192 0 265 -4 b 342 31 325 -4 342 8 b 250 113 342 82 250 63 b 281 172 250 126 256 142 l 469 411 l 640 182 b 676 113 663 154 676 131 b 592 29 676 64 592 81 b 639 -4 592 7 610 -4 b 822 0 674 -4 756 0 b 978 -4 889 0 940 -4 b 1018 29 1000 -4 1018 8 b 874 160 1018 83 951 56 z "},"Y":{"ha":964,"x_min":null,"x_max":null,"o":"m 928 989 b 818 985 897 989 856 985 b 706 989 782 985 742 989 b 657 954 675 989 657 978 b 743 867 657 907 743 921 b 721 808 743 851 735 833 l 524 478 l 329 814 b 307 871 314 843 307 858 b 386 954 307 924 386 906 b 338 989 386 978 368 989 b 182 985 300 989 242 985 b 44 989 118 985 72 989 b 7 957 21 989 7 976 b 106 850 7 913 63 921 l 389 375 l 389 150 b 279 31 389 56 279 92 b 321 -4 279 13 290 -4 b 482 0 361 -4 411 0 b 643 -4 553 0 601 -4 b 685 31 672 -4 685 13 b 574 150 685 92 574 56 l 574 375 l 857 849 b 963 958 904 925 963 910 b 928 989 963 976 949 989 z "},"Z":{"ha":938,"x_min":null,"x_max":null,"o":"m 885 318 b 833 283 865 318 853 306 b 549 90 731 169 669 90 l 271 90 l 868 922 b 878 953 875 932 878 943 b 831 990 878 972 864 990 b 697 986 804 990 761 986 l 301 986 b 215 1017 253 986 249 1017 b 147 947 189 1017 171 999 l 94 833 b 57 732 69 776 57 754 b 92 694 57 707 75 694 b 144 728 111 694 124 707 b 411 896 242 832 297 896 l 631 896 l 31 65 b 19 33 24 56 19 44 b 65 -4 19 15 33 -4 b 197 0 92 -4 133 0 l 663 0 b 756 -31 714 0 719 -31 b 819 29 782 -31 800 -10 l 876 157 b 921 281 913 233 921 257 b 885 318 921 303 903 318 z "},"[":{"ha":489,"x_min":null,"x_max":null,"o":"m 194 -119 l 408 -119 b 472 -74 447 -119 472 -106 b 408 -28 472 -39 447 -28 l 311 -28 b 282 -3 289 -28 282 -19 l 282 925 b 311 950 282 942 289 950 l 408 950 b 472 996 447 950 472 961 b 408 1042 472 1028 447 1042 l 194 1042 b 117 963 147 1042 117 1010 l 117 -40 b 194 -119 117 -87 147 -119 z "},"\\":{"ha":563,"x_min":null,"x_max":null,"o":"m 471 -42 b 525 -10 508 -42 525 -32 b 515 26 525 1 521 14 l 167 944 b 92 990 154 981 132 990 b 38 958 56 990 38 981 b 47 922 38 946 43 935 l 396 3 b 471 -42 410 -33 431 -42 z "},"]":{"ha":489,"x_min":null,"x_max":null,"o":"m 294 -119 b 374 -40 342 -119 374 -87 l 374 963 b 294 1042 374 1010 342 1042 l 81 1042 b 17 996 42 1042 17 1028 b 81 950 17 961 42 950 l 179 950 b 208 925 200 950 208 942 l 208 -3 b 179 -28 208 -19 200 -28 l 81 -28 b 17 -74 42 -28 17 -39 b 81 -119 17 -106 42 -119 z "},"^":{"ha":685,"x_min":null,"x_max":null,"o":"m 90 564 b 188 615 133 564 167 578 l 333 860 b 343 867 336 864 338 867 b 351 860 347 867 349 864 l 497 615 b 596 564 519 578 551 564 b 639 592 622 564 639 575 b 625 625 639 603 633 614 l 414 947 b 343 994 390 986 376 994 b 271 947 310 994 296 986 l 60 625 b 46 592 53 614 46 603 b 90 564 46 575 63 564 z "},"_":{"ha":613,"x_min":null,"x_max":null,"o":"m 19 -172 l 593 -172 b 639 -125 626 -172 639 -165 l 639 -99 b 593 -50 638 -60 626 -50 l 19 -50 b -26 -99 -14 -50 -26 -60 l -26 -125 b 19 -172 -26 -164 -14 -172 z "},"`":{"ha":581,"x_min":null,"x_max":null,"o":"m 317 790 b 350 813 336 790 350 800 b 338 847 350 822 344 833 b 229 1018 297 918 263 971 b 151 1050 213 1042 197 1050 b 78 1021 93 1050 78 1043 b 125 950 78 1001 93 983 b 256 819 154 924 215 858 b 317 790 279 796 299 790 z "},"b":{"ha":882,"x_min":null,"x_max":null,"o":"m 525 708 b 264 571 404 708 317 649 l 264 1007 b 229 1056 264 1031 256 1056 b 111 1014 213 1056 189 1049 b -8 931 22 974 -8 957 b 97 829 -8 872 97 915 l 97 31 b 135 -14 97 4 110 -14 b 249 31 167 -14 208 31 b 475 -19 293 31 344 -19 b 839 356 675 -19 839 131 b 525 708 839 572 707 708 z m 469 69 b 264 299 347 69 264 164 l 264 376 b 451 589 264 510 353 589 b 663 304 574 589 663 467 b 469 69 663 144 576 69 z "},"c":{"ha":733,"x_min":null,"x_max":null,"o":"m 396 -26 b 697 125 547 -26 658 51 b 710 164 704 139 710 153 b 681 197 710 182 699 197 b 647 178 669 197 661 190 b 468 93 603 128 543 93 b 218 397 335 93 218 214 b 383 633 218 540 286 633 b 529 450 481 633 511 543 b 567 406 533 424 546 406 b 610 429 581 406 592 413 b 683 558 665 483 683 528 b 410 714 683 622 561 714 b 43 333 213 714 43 563 b 396 -26 43 104 203 -26 z "},"d":{"ha":900,"x_min":null,"x_max":null,"o":"m 778 203 l 778 997 b 742 1056 778 1028 771 1056 b 625 1017 729 1056 704 1050 b 501 935 532 976 501 960 b 611 832 501 872 611 918 l 611 633 b 401 708 561 679 492 708 b 43 333 199 708 43 553 b 358 -19 43 111 188 -19 b 611 114 475 -19 560 38 l 611 42 b 647 -17 611 19 613 -17 b 756 15 658 -17 678 -12 b 876 90 847 46 876 61 b 778 203 876 146 778 117 z m 431 100 b 219 383 325 100 219 207 b 404 621 219 524 290 621 b 611 372 507 621 611 521 l 611 303 b 431 100 611 172 521 100 z "},"e":{"ha":764,"x_min":null,"x_max":null,"o":"m 703 190 b 663 167 690 190 681 183 b 475 89 614 121 550 89 b 240 263 367 89 282 163 l 672 393 b 707 443 696 400 707 408 b 406 715 707 579 589 715 b 42 340 211 715 42 565 b 404 -26 42 111 201 -26 b 721 121 549 -26 672 49 b 735 156 731 135 735 146 b 703 190 735 172 722 190 z m 382 622 b 531 474 469 622 531 540 b 499 433 531 449 522 440 l 217 344 b 213 404 214 364 213 383 b 382 622 213 538 285 622 z "},"f":{"ha":496,"x_min":null,"x_max":null,"o":"m 464 688 l 303 688 b 244 888 285 758 244 811 b 322 982 244 944 276 982 b 413 843 376 982 397 933 b 449 807 417 821 429 807 b 490 840 465 807 479 822 b 538 953 521 888 538 921 b 325 1061 538 1011 432 1061 b 96 864 192 1061 96 986 b 139 688 96 789 125 743 l 49 688 b 19 664 29 688 19 679 b 24 628 19 651 22 636 b 54 600 26 608 36 600 l 146 600 l 146 156 b 61 29 146 49 61 83 b 100 -4 61 13 72 -4 b 232 0 132 -4 171 0 b 383 -4 300 0 346 -4 b 421 29 410 -4 421 14 b 313 156 421 89 313 49 l 313 600 l 458 600 b 489 628 476 600 486 608 b 493 664 490 636 493 651 b 464 688 493 679 483 688 z "},"g":{"ha":811,"x_min":null,"x_max":null,"o":"m 596 147 b 282 176 531 153 408 163 b 200 214 225 182 200 192 b 240 265 200 233 219 249 b 383 247 283 253 331 247 b 735 490 615 247 735 361 b 544 699 735 590 664 667 b 729 779 563 769 643 778 b 772 815 758 779 772 794 b 738 863 772 833 757 849 b 619 910 692 896 658 910 b 469 711 571 910 488 839 b 410 714 450 713 431 714 b 57 467 181 714 57 599 b 167 294 57 392 97 332 b 64 153 113 258 64 207 b 142 44 64 104 94 67 b 31 -90 72 14 31 -35 b 422 -265 31 -194 181 -265 b 817 -35 661 -265 817 -169 b 596 147 817 75 726 136 z m 389 635 b 565 474 486 635 565 574 b 401 326 565 383 497 326 b 225 488 304 326 225 386 b 389 635 225 576 293 635 z m 425 -187 b 175 -76 271 -187 175 -153 b 236 24 175 -36 200 1 b 533 -10 336 13 436 0 b 656 -87 617 -19 656 -46 b 425 -187 656 -137 575 -187 z "},"i":{"ha":422,"x_min":null,"x_max":null,"o":"m 175 822 b 325 947 257 822 325 886 b 233 1029 325 997 283 1029 b 86 901 150 1029 86 963 b 175 822 86 853 125 822 z m 90 -4 b 219 0 122 -4 160 0 b 350 -4 279 0 318 -4 b 389 29 376 -4 389 14 b 303 156 389 83 303 49 l 303 642 b 265 699 303 676 293 699 b 156 657 253 699 236 694 b 40 575 69 618 40 600 b 136 472 40 517 136 560 l 136 156 b 51 29 136 49 51 83 b 90 -4 51 13 63 -4 z "},"j":{"ha":388,"x_min":null,"x_max":null,"o":"m 164 822 b 314 947 246 822 314 886 b 221 1029 314 997 271 1029 b 75 901 139 1029 75 963 b 164 822 75 853 114 822 z m 129 -129 b 99 -171 129 -158 115 -171 b 31 -99 75 -171 56 -149 b -1 -71 21 -81 14 -71 b -50 -189 -39 -71 -51 -131 b 33 -267 -49 -242 -31 -267 b 290 -6 164 -267 290 -172 l 290 642 b 254 699 290 676 282 699 b 144 657 242 699 225 694 b 29 575 60 618 29 600 b 124 472 29 517 124 560 l 124 -12 b 129 -129 124 -60 129 -96 z "},"k":{"ha":854,"x_min":null,"x_max":null,"o":"m 772 114 l 546 463 l 675 571 b 818 661 739 625 818 611 b 779 693 818 681 801 693 b 643 689 749 693 681 689 b 529 693 606 689 557 693 b 485 660 500 693 485 682 b 544 596 485 615 544 631 b 508 546 544 578 531 565 l 288 353 l 288 1007 b 253 1056 288 1033 279 1056 b 140 1014 238 1056 221 1051 b 25 931 56 974 25 957 b 121 829 25 872 121 915 l 121 156 b 36 29 121 49 36 83 b 76 -4 36 13 47 -4 b 204 0 107 -4 144 0 b 335 -4 264 0 303 -4 b 374 29 361 -4 374 14 b 288 156 374 83 288 49 l 288 247 l 428 364 l 557 157 b 578 108 571 136 578 121 b 513 29 578 57 513 75 b 558 -4 513 7 529 -4 b 688 0 592 -4 628 0 b 831 -4 753 0 794 -4 b 868 26 851 -4 868 7 b 772 114 868 71 808 57 z "},"l":{"ha":407,"x_min":null,"x_max":null,"o":"m 76 -4 b 204 0 107 -4 144 0 b 335 -4 264 0 303 -4 b 374 29 361 -4 374 14 b 288 156 374 83 288 49 l 288 997 b 251 1056 288 1032 279 1056 b 140 1014 238 1056 221 1051 b 25 931 56 974 25 957 b 121 829 25 872 121 915 l 121 156 b 36 29 121 49 36 83 b 76 -4 36 13 47 -4 z "},"o":{"ha":865,"x_min":null,"x_max":null,"o":"m 422 -26 b 822 350 650 -26 822 132 b 443 715 822 561 672 715 b 42 338 211 715 42 554 b 422 -26 42 128 192 -26 z m 456 64 b 222 390 314 64 222 235 b 410 625 222 531 292 625 b 643 297 550 625 643 454 b 456 64 643 158 574 64 z "},"p":{"ha":900,"x_min":null,"x_max":null,"o":"m 546 708 b 290 571 426 708 342 649 l 290 642 b 254 699 290 664 288 699 b 146 657 239 699 225 694 b 31 575 60 618 31 601 b 124 472 31 517 124 560 l 124 -93 b 40 -219 124 -200 40 -165 b 81 -253 40 -235 53 -253 b 207 -249 111 -253 149 -249 b 351 -253 272 -249 318 -253 b 390 -219 378 -253 390 -235 b 290 -93 390 -161 290 -199 l 290 53 b 510 -19 336 14 400 -19 b 857 350 701 -19 857 125 b 546 708 857 567 724 708 z m 490 69 b 290 299 374 69 290 163 l 290 376 b 475 589 290 510 378 589 b 679 306 593 589 679 469 b 490 69 679 147 596 69 z "},"q":{"ha":868,"x_min":null,"x_max":null,"o":"m 771 -93 l 771 656 b 733 700 771 682 757 700 b 619 656 701 700 661 656 b 397 708 578 656 525 708 b 43 335 196 708 43 556 b 353 -21 43 113 183 -21 b 604 111 467 -21 553 36 l 604 -93 b 503 -219 604 -200 503 -161 b 542 -253 503 -235 515 -253 b 688 -249 576 -253 622 -249 b 814 -253 746 -249 783 -253 b 854 -219 843 -253 854 -235 b 771 -93 854 -165 771 -200 z m 426 100 b 219 383 322 100 219 206 b 401 619 219 522 288 619 b 604 371 500 619 604 519 l 604 303 b 426 100 604 171 517 100 z "},"r":{"ha":668,"x_min":null,"x_max":null,"o":"m 546 704 b 303 515 446 704 347 625 l 303 642 b 265 699 303 676 293 699 b 156 657 253 699 236 694 b 40 575 69 618 40 600 b 136 472 40 517 136 560 l 136 156 b 51 29 136 49 51 83 b 90 -4 51 13 63 -4 b 219 0 122 -4 160 0 b 367 -4 286 0 332 -4 b 406 29 394 -4 406 14 b 303 156 406 88 303 49 l 303 285 b 463 557 303 467 403 557 b 538 486 496 557 517 532 b 579 446 549 464 558 446 b 622 488 601 446 614 461 b 658 626 646 553 658 596 b 546 704 658 668 613 704 z "},"s":{"ha":749,"x_min":null,"x_max":null,"o":"m 169 -24 b 236 13 201 -24 204 13 b 417 -15 260 13 321 -15 b 711 203 585 -15 711 67 b 414 435 711 354 565 400 b 221 543 289 467 221 481 b 326 621 221 589 261 621 b 585 501 414 621 511 567 b 633 472 601 488 617 472 b 663 504 649 472 663 485 b 631 579 663 522 647 551 l 582 657 b 524 707 564 683 550 707 b 469 679 494 707 494 679 b 306 704 446 679 385 704 b 56 503 160 704 56 618 b 350 279 56 361 208 311 b 547 167 468 251 547 238 b 414 69 547 114 497 69 b 119 221 306 69 206 136 b 71 250 101 238 86 250 b 39 215 53 250 39 238 b 75 124 39 193 53 171 l 119 29 b 169 -24 131 6 143 -24 z "},"t":{"ha":571,"x_min":null,"x_max":null,"o":"m 526 160 b 492 140 513 160 500 149 b 389 92 463 117 435 92 b 300 225 338 92 300 121 l 300 600 l 510 600 b 540 628 528 600 538 608 b 544 661 542 636 544 651 b 515 688 544 679 535 688 l 300 688 l 300 904 b 269 947 300 935 288 947 b 213 885 246 947 235 928 b 46 685 174 774 133 726 b 6 636 21 672 6 660 b 50 600 6 614 24 600 l 133 600 l 133 356 b 129 124 133 260 129 153 b 324 -17 129 47 211 -17 b 528 64 410 -17 479 14 b 560 125 547 83 560 106 b 526 160 560 143 547 160 z "},"u":{"ha":896,"x_min":null,"x_max":null,"o":"m 764 197 l 764 640 b 728 699 764 668 760 699 b 614 668 717 699 692 694 b 478 589 508 632 478 618 b 597 479 478 533 597 565 l 597 313 b 426 113 597 174 511 113 b 290 290 325 113 290 178 l 290 640 b 253 699 290 668 286 699 b 140 667 240 699 222 696 b 17 589 46 633 17 618 b 124 479 17 536 124 565 l 124 251 b 360 -17 124 83 208 -17 b 597 118 476 -17 553 44 l 597 40 b 633 -11 597 15 606 -11 b 743 10 649 -11 674 -7 b 875 78 846 32 875 46 b 764 197 875 126 764 111 z "},"v":{"ha":810,"x_min":null,"x_max":null,"o":"m 771 693 b 665 689 739 693 703 689 b 564 693 628 689 593 693 b 521 660 536 693 521 682 b 599 568 521 611 599 624 b 575 482 599 546 589 522 l 443 144 l 310 482 b 288 564 294 519 288 547 b 363 660 288 628 363 611 b 318 693 363 682 346 693 b 182 689 285 693 243 689 b 38 693 114 689 74 693 b 0 661 17 693 0 682 b 103 546 0 614 67 631 l 315 44 b 406 -8 331 7 346 -8 b 494 43 467 -8 481 8 l 706 547 b 810 661 740 629 810 614 b 771 693 810 682 793 693 z "},"w":{"ha":1261,"x_min":null,"x_max":null,"o":"m 1225 693 b 1118 689 1193 693 1157 689 b 1018 693 1081 689 1046 693 b 969 660 989 693 969 682 b 1050 567 969 613 1050 626 b 1029 488 1050 550 1043 526 l 896 151 l 778 489 b 760 563 765 525 760 543 b 843 660 760 619 843 613 b 796 693 843 682 825 693 b 658 689 763 693 715 689 b 519 693 590 689 554 693 b 479 661 497 693 479 682 b 578 540 479 613 542 632 l 589 513 l 444 153 l 310 489 b 290 563 299 518 290 550 b 361 660 290 626 361 613 b 314 693 361 682 343 693 b 181 689 282 693 243 689 b 36 693 114 689 72 693 b -4 661 14 693 -4 682 b 103 540 -4 613 64 631 l 314 46 b 404 -8 329 11 342 -8 b 496 44 478 -8 485 18 l 636 388 l 768 46 b 858 -8 781 14 792 -8 b 947 44 921 -8 933 11 l 1157 539 b 1265 661 1194 629 1265 613 b 1225 693 1265 682 1244 693 z "},"x":{"ha":799,"x_min":null,"x_max":null,"o":"m 671 139 l 486 364 l 661 564 b 781 661 713 622 781 615 b 742 693 781 682 764 693 b 631 689 710 693 668 689 b 529 693 593 689 560 693 b 488 660 503 693 488 682 b 547 590 488 619 547 631 b 515 533 547 574 536 556 l 429 433 l 354 526 b 322 588 339 544 322 567 b 378 661 322 632 378 619 b 333 693 378 682 363 693 b 199 689 300 693 263 689 b 61 693 135 689 97 693 b 22 661 40 693 22 681 b 149 550 22 617 90 621 l 313 351 l 125 133 b -1 28 68 68 -1 74 b 36 -4 -1 8 14 -4 b 144 0 68 -4 106 0 b 251 -4 182 0 224 -4 b 296 29 281 -4 296 8 b 235 100 296 71 235 58 b 264 156 235 117 246 135 l 369 282 l 465 163 b 497 103 481 144 497 124 b 439 29 497 56 439 71 b 483 -4 439 7 454 -4 b 622 0 517 -4 558 0 b 758 -4 686 0 722 -4 b 797 28 779 -4 797 8 b 671 139 797 72 729 68 z "},"y":{"ha":813,"x_min":null,"x_max":null,"o":"m 771 693 b 667 689 739 693 704 689 b 565 693 631 689 594 693 b 522 660 538 693 522 682 b 600 568 522 611 600 624 b 576 482 600 546 592 522 l 447 167 l 310 482 b 288 564 294 519 288 547 b 363 660 288 628 363 611 b 318 693 363 682 346 693 b 182 689 285 693 243 689 b 38 693 114 689 74 693 b -1 661 15 693 -1 682 b 110 532 -1 615 64 629 l 360 -6 l 357 -11 b 238 -146 324 -93 285 -146 b 117 -47 197 -146 164 -115 b 79 -22 104 -29 94 -22 b 46 -67 60 -22 46 -42 b 96 -235 46 -111 72 -206 b 200 -267 110 -254 153 -267 b 453 -49 311 -267 394 -187 l 700 533 b 810 661 740 629 810 615 b 771 693 810 682 793 693 z "},"z":{"ha":736,"x_min":null,"x_max":null,"o":"m 682 243 b 635 213 663 243 649 229 b 394 86 565 125 499 86 l 257 86 l 665 624 b 679 657 674 633 679 644 b 632 692 679 678 665 692 b 499 688 606 692 563 688 l 229 688 b 161 717 194 688 192 717 b 115 669 133 717 124 689 l 72 567 b 53 501 64 546 53 524 b 83 468 53 481 68 468 b 128 497 99 468 113 479 b 322 603 189 569 243 603 l 447 603 l 40 71 b 24 32 32 58 24 46 b 71 -4 24 11 39 -4 b 204 0 97 -4 146 0 l 524 0 b 594 -29 560 0 565 -29 b 646 24 625 -29 638 6 l 694 139 b 714 208 703 161 714 186 b 682 243 714 231 699 243 z "},"{":{"ha":482,"x_min":null,"x_max":null,"o":"m 404 -29 b 351 -32 393 -29 365 -32 b 274 50 296 -32 274 1 b 329 308 274 129 329 228 b 214 463 329 375 293 432 b 329 615 293 492 329 549 b 274 874 329 694 274 793 b 351 954 274 922 296 954 l 404 953 b 453 996 431 953 453 964 b 401 1042 453 1025 433 1038 b 310 1046 375 1044 328 1046 b 106 858 176 1046 106 964 b 160 613 106 765 160 683 b 81 513 160 546 111 524 b 36 461 64 506 36 494 b 81 411 36 429 63 418 b 160 311 111 400 160 381 b 106 65 160 239 106 160 b 310 -124 106 -42 176 -124 b 401 -118 328 -124 375 -122 b 453 -74 432 -115 453 -103 b 404 -29 453 -42 431 -29 z "},"|":{"ha":365,"x_min":null,"x_max":null,"o":"m 182 -201 b 247 -150 222 -201 247 -189 l 247 1138 b 182 1188 247 1176 222 1188 b 118 1138 142 1188 118 1176 l 118 -150 b 182 -201 118 -189 142 -201 z "},"}":{"ha":482,"x_min":null,"x_max":null,"o":"m 401 514 b 322 614 371 525 322 547 b 378 860 322 685 378 767 b 172 1047 378 967 306 1047 b 81 1043 154 1047 107 1046 b 29 997 49 1039 29 1026 b 79 954 29 965 51 954 l 132 956 b 208 875 188 956 208 924 b 153 617 208 794 153 697 b 269 464 153 550 189 493 b 153 310 189 433 153 376 b 208 51 153 229 208 132 b 132 -29 208 3 188 -29 l 79 -28 b 29 -71 51 -28 29 -39 b 81 -117 29 -101 51 -112 b 172 -122 107 -121 154 -122 b 378 68 306 -122 378 -40 b 322 313 378 161 322 240 b 401 414 322 382 371 401 b 446 463 419 419 446 431 b 401 514 446 496 418 508 z "},"~":{"ha":817,"x_min":null,"x_max":null,"o":"m 135 324 b 169 349 151 324 163 333 b 274 433 192 406 226 433 b 547 326 349 433 432 326 b 739 467 646 326 708 385 b 743 493 742 475 743 486 b 683 549 743 521 719 549 b 649 522 667 549 656 538 b 544 438 626 467 592 438 b 272 546 468 438 388 546 b 81 406 174 546 110 486 b 75 378 76 396 75 386 b 135 324 75 350 99 324 z "}," ":{"ha":342,"x_min":null,"x_max":null,"o":""},"¡":{"ha":353,"x_min":null,"x_max":null,"o":"m 171 535 b 71 621 111 535 71 567 b 186 715 71 672 119 715 b 285 629 244 715 285 683 b 171 535 285 576 238 535 z m 175 440 b 136 408 154 440 142 429 b 83 -206 117 168 83 -104 b 175 -311 83 -271 110 -311 b 267 -206 240 -311 267 -268 b 214 408 267 -104 233 168 b 175 440 208 429 197 440 z "},"¢":{"ha":821,"x_min":null,"x_max":null,"o":"m 735 211 b 692 183 715 211 704 197 b 494 96 653 136 579 96 b 269 358 372 96 269 190 b 450 625 269 521 357 625 b 683 447 528 625 589 564 b 729 415 699 428 713 415 b 760 450 744 415 760 426 b 726 544 760 469 747 490 l 689 649 b 635 711 671 694 657 711 b 579 679 610 711 607 679 b 476 701 558 679 522 693 l 476 808 b 431 863 476 844 464 863 b 385 808 397 863 385 844 l 385 706 b 71 332 224 690 71 547 b 394 -19 71 129 200 -3 l 394 -139 b 440 -193 394 -176 407 -193 b 486 -139 474 -193 486 -176 l 486 -18 b 751 126 622 -3 713 71 b 769 176 764 146 769 163 b 735 211 769 196 754 211 z "},"£":{"ha":875,"x_min":null,"x_max":null,"o":"m 800 231 b 751 199 782 231 771 215 b 604 136 703 153 661 136 b 356 181 529 136 438 164 b 386 340 378 228 386 279 b 382 422 386 368 385 396 l 624 422 b 676 463 640 422 676 422 b 604 526 676 506 635 526 l 365 526 b 331 743 349 608 331 682 b 472 911 331 854 394 911 b 607 742 572 911 592 815 b 650 697 613 721 621 697 b 693 721 664 697 674 704 b 774 849 750 772 774 821 b 467 1008 774 924 624 1008 b 140 732 286 1008 140 899 b 193 526 140 664 165 596 l 115 526 b 63 485 99 526 63 526 b 135 422 63 442 104 422 l 233 422 b 260 278 249 375 260 326 b 243 196 260 246 254 219 b 57 65 140 194 57 135 b 153 -18 57 13 104 -18 b 306 75 217 -18 263 22 b 624 -24 394 47 513 -24 b 833 175 768 -24 833 94 b 800 231 833 214 819 231 z "},"¤":{"ha":813,"x_min":null,"x_max":null,"o":"m 721 188 l 653 256 b 707 424 688 303 707 361 b 654 592 707 485 688 543 l 722 660 b 740 697 733 674 740 685 b 679 758 740 721 703 758 b 642 740 667 758 654 751 l 574 671 b 407 722 525 703 468 722 b 240 669 346 722 288 703 l 172 739 b 135 758 158 753 146 758 b 71 694 110 758 71 719 b 90 657 71 683 76 671 l 158 588 b 108 424 126 540 108 483 b 160 257 108 363 128 304 l 92 186 b 74 149 81 176 74 164 b 135 89 74 124 108 89 b 171 107 146 89 157 93 l 242 176 b 407 125 289 144 346 125 b 571 175 467 125 524 143 l 640 107 b 676 88 654 94 665 88 b 740 151 701 88 740 125 b 721 188 740 164 733 176 z m 407 228 b 213 424 300 228 213 317 b 407 619 213 531 300 619 b 603 424 514 619 603 531 b 407 228 603 317 514 228 z "},"¥":{"ha":1006,"x_min":null,"x_max":null,"o":"m 939 989 b 842 985 910 989 879 985 b 731 989 804 985 767 989 b 681 954 700 989 681 978 b 756 868 681 906 756 921 b 738 822 756 853 747 835 l 547 554 l 354 828 b 339 872 344 842 339 860 b 408 954 339 924 408 906 b 360 989 408 978 390 989 b 206 985 324 989 265 985 b 67 989 142 985 97 989 b 32 957 46 989 32 976 b 131 861 32 913 90 918 l 383 504 l 226 504 b 176 461 193 504 176 492 b 226 418 176 432 193 418 l 407 418 l 407 303 l 226 303 b 176 260 193 303 176 290 b 226 217 176 231 193 217 l 407 217 l 407 150 b 297 31 407 56 297 92 b 339 -4 297 13 308 -4 b 500 0 379 -4 429 0 b 661 -4 571 0 619 -4 b 703 31 690 -4 703 13 b 592 150 703 92 592 56 l 592 217 l 772 217 b 822 260 807 217 822 231 b 772 303 822 290 807 303 l 592 303 l 592 418 l 772 418 b 822 461 807 418 822 432 b 772 504 822 492 807 504 l 618 504 l 874 864 b 975 958 915 921 975 910 b 939 989 975 976 961 989 z "},"¦":{"ha":365,"x_min":null,"x_max":null,"o":"m 182 614 b 247 664 222 614 247 625 l 247 1138 b 182 1188 247 1176 222 1188 b 118 1138 142 1188 118 1176 l 118 664 b 182 614 118 625 142 614 z m 182 -201 b 247 -150 222 -201 247 -189 l 247 322 b 182 374 247 361 222 374 b 118 322 142 374 118 361 l 118 -150 b 182 -201 118 -189 142 -201 z "},"§":{"ha":879,"x_min":null,"x_max":null,"o":"m 656 286 b 825 482 758 318 825 385 b 500 724 825 636 671 682 b 282 842 356 758 282 775 b 404 924 282 889 329 924 b 690 799 504 924 615 864 b 742 768 708 783 722 768 b 772 801 758 768 772 782 b 736 876 772 819 754 850 l 685 958 b 624 1010 667 988 650 1010 b 565 981 592 1010 592 981 b 385 1007 540 981 472 1007 b 115 799 226 1007 115 918 b 229 635 115 722 163 671 b 72 436 133 603 72 529 b 393 194 72 278 232 235 b 615 74 529 160 615 149 b 461 -33 615 15 556 -33 b 138 126 343 -33 233 40 b 85 157 119 142 103 157 b 51 121 67 157 51 144 b 93 26 51 101 67 76 l 142 -69 b 192 -124 153 -94 165 -124 b 264 -87 228 -124 231 -87 b 464 -115 289 -87 358 -115 b 781 108 646 -115 781 -33 b 656 286 781 194 729 249 z m 238 490 b 328 594 238 540 274 581 b 438 564 364 582 401 572 b 660 440 572 531 660 517 b 547 329 660 389 615 344 l 456 354 b 238 490 307 392 238 408 z "},"¨":{"ha":581,"x_min":null,"x_max":null,"o":"m 157 819 b 254 908 214 819 254 856 b 158 996 254 961 214 996 b 58 906 99 996 58 956 b 157 819 58 854 99 819 z m 424 819 b 521 908 481 819 521 856 b 425 994 521 961 481 994 b 326 906 367 994 326 956 b 424 819 326 854 367 819 z "},"©":{"ha":1167,"x_min":null,"x_max":null,"o":"m 583 -22 b 1096 494 871 -22 1096 204 b 583 1010 1096 783 871 1010 b 71 494 297 1010 71 783 b 583 -22 71 204 297 -22 z m 583 64 b 158 494 346 64 158 253 b 583 924 158 735 346 924 b 1008 494 821 924 1008 735 b 583 64 1008 253 821 64 z m 578 221 b 808 333 700 221 779 285 b 821 368 817 347 821 358 b 796 394 821 382 810 394 b 765 372 783 394 774 385 b 624 307 736 336 688 307 b 461 504 533 307 461 376 b 601 708 461 629 524 708 b 761 597 660 708 701 674 b 793 574 771 583 781 574 b 817 601 807 574 817 583 b 796 661 817 615 808 629 l 769 733 b 733 772 758 763 747 772 b 694 751 715 772 711 751 b 574 769 674 751 628 769 b 317 485 444 769 317 654 b 578 221 317 321 424 221 z "},"ª":{"ha":581,"x_min":null,"x_max":null,"o":"m 575 574 b 492 661 521 585 500 597 l 468 824 b 274 994 454 922 400 994 b 89 925 190 994 124 961 b 58 878 75 913 58 896 b 83 851 58 861 72 851 b 118 865 93 851 103 857 b 229 906 149 888 186 906 b 335 788 292 906 324 864 l 336 772 b 226 789 306 782 268 789 b 22 631 96 789 22 718 b 194 482 22 543 89 482 b 374 551 274 482 336 515 b 476 485 394 507 433 485 b 593 556 549 485 593 529 b 575 574 593 567 588 572 z m 253 564 b 167 646 203 564 167 596 b 269 724 167 697 207 724 b 344 713 294 724 321 719 l 358 611 b 253 564 336 586 294 564 z "},"«":{"ha":786,"x_min":null,"x_max":null,"o":"m 229 328 b 228 336 228 331 228 333 b 229 346 228 340 229 343 l 349 494 b 408 593 388 540 408 569 b 376 628 408 611 396 628 b 286 568 356 628 328 604 l 118 422 b 58 336 88 396 58 372 b 118 250 58 301 88 276 l 286 106 b 376 46 328 71 356 46 b 408 79 396 46 408 61 b 349 179 408 104 388 133 z m 540 328 b 539 336 539 331 539 333 b 540 346 539 340 540 343 l 660 494 b 719 593 697 540 719 569 b 688 628 719 611 707 628 b 597 568 667 628 638 604 l 429 422 b 368 336 397 396 368 372 b 429 250 368 301 397 276 l 597 106 b 688 46 638 71 667 46 b 719 79 707 46 719 61 b 660 179 719 104 697 133 z "},"¬":{"ha":767,"x_min":null,"x_max":null,"o":"m 629 143 b 686 181 665 143 686 154 l 686 510 b 647 549 686 536 674 549 l 103 549 b 65 493 76 549 65 528 b 103 436 65 456 76 436 l 554 436 b 571 419 565 436 571 431 l 571 181 b 629 143 571 154 592 143 z "},"®":{"ha":951,"x_min":null,"x_max":null,"o":"m 475 1008 b 74 608 254 1008 74 829 b 475 208 74 388 254 208 b 876 608 697 208 876 388 b 475 1008 876 829 697 1008 z m 475 283 b 150 608 296 283 150 429 b 475 933 150 789 296 933 b 800 608 656 933 800 789 b 475 283 800 429 656 283 z m 643 479 l 569 574 b 660 688 626 594 660 633 b 468 821 660 768 588 821 b 356 817 411 821 383 817 b 294 819 322 817 310 819 b 271 801 281 819 271 810 b 307 749 271 776 307 789 l 307 482 b 271 429 307 443 271 454 b 293 411 271 422 278 411 b 357 414 307 411 322 414 b 421 411 389 414 407 411 b 443 429 436 411 443 421 b 406 482 443 454 406 443 l 406 543 b 419 558 406 556 414 558 l 453 558 b 488 540 471 558 476 554 l 524 493 b 539 467 531 485 539 476 b 510 429 539 443 510 451 b 535 411 510 418 521 411 b 604 414 551 411 575 414 b 679 411 635 414 665 411 b 697 428 690 411 697 419 b 643 479 697 453 668 447 z m 444 604 b 406 624 426 604 406 604 l 406 749 b 457 775 406 764 411 775 b 553 689 508 775 553 749 b 460 604 553 631 514 604 z "},"¯":{"ha":581,"x_min":null,"x_max":null,"o":"m 124 867 b 290 869 156 867 250 869 b 457 867 331 869 421 867 b 499 917 486 867 499 883 b 457 965 499 949 486 965 b 289 964 425 965 331 964 l 124 965 b 82 917 93 965 82 949 b 124 867 82 883 93 867 z "},"°":{"ha":554,"x_min":null,"x_max":null,"o":"m 276 549 b 513 779 408 549 513 650 b 276 1010 513 908 408 1010 b 42 779 144 1010 42 908 b 276 549 42 650 144 549 z m 276 643 b 143 779 201 643 143 703 b 276 915 143 856 201 915 b 411 779 353 915 411 856 b 276 643 411 703 353 643 z "},"±":{"ha":775,"x_min":null,"x_max":null,"o":"m 388 193 b 446 231 425 193 446 204 l 446 364 b 463 381 446 375 451 381 l 679 381 b 717 438 706 381 717 400 b 679 493 717 472 706 493 l 463 493 b 446 510 451 493 446 499 l 446 713 b 388 750 446 739 425 750 b 329 713 351 750 329 739 l 329 510 b 313 493 329 499 325 493 l 96 493 b 60 438 69 493 60 472 b 96 381 60 400 69 381 l 313 381 b 329 364 325 381 329 375 l 329 231 b 388 193 329 204 351 193 z m 96 44 l 681 44 b 717 101 707 44 717 65 b 681 157 717 138 707 157 l 96 157 b 58 101 69 157 58 138 b 96 44 58 65 69 44 z "},"²":{"ha":599,"x_min":null,"x_max":null,"o":"m 543 572 b 504 547 528 572 518 561 b 365 476 444 488 406 476 l 183 476 b 388 643 246 539 321 588 b 508 843 447 694 508 758 b 293 1017 508 936 425 1017 b 61 882 186 1017 106 963 b 50 842 54 869 50 854 b 79 808 50 825 63 808 b 119 839 93 808 107 821 b 244 913 151 882 188 913 b 344 822 306 913 344 872 b 257 657 344 767 310 713 b 49 438 119 511 126 525 b 24 390 31 418 24 404 b 60 358 24 376 33 358 b 150 361 89 358 124 361 l 383 361 b 451 339 422 361 426 339 b 500 383 476 339 488 356 l 543 471 b 569 543 561 510 569 525 b 543 572 569 560 556 572 z "},"³":{"ha":586,"x_min":null,"x_max":null,"o":"m 347 765 b 497 906 407 818 460 867 b 533 964 525 935 533 949 b 496 1004 533 981 522 1004 b 406 1001 467 1004 433 1001 l 219 1001 b 154 1022 183 1001 179 1022 b 107 976 132 1022 121 1010 l 74 897 b 53 833 64 874 53 850 b 78 804 53 814 67 804 b 115 826 90 804 100 810 b 247 901 182 899 207 901 l 386 901 b 238 754 340 851 278 789 b 188 701 214 733 188 726 b 221 667 188 683 199 667 b 268 672 235 667 250 672 b 382 557 326 672 382 626 b 253 449 382 493 326 449 b 104 525 183 449 133 483 b 67 550 92 540 83 550 b 36 519 51 550 36 536 b 49 472 36 507 40 489 b 290 347 74 421 150 347 b 542 564 433 347 542 446 b 347 765 542 654 471 750 z "},"´":{"ha":581,"x_min":null,"x_max":null,"o":"m 250 790 b 310 819 268 790 286 796 b 440 950 350 857 410 921 b 488 1021 474 983 488 1001 b 414 1050 488 1043 472 1050 b 336 1018 368 1050 353 1042 b 229 847 304 969 271 918 b 217 813 221 833 217 822 b 250 790 217 800 229 790 z "},"µ":{"ha":800,"x_min":null,"x_max":null,"o":"m 731 104 b 693 100 721 104 707 100 b 638 156 653 100 638 115 l 638 649 b 581 697 638 686 625 697 b 524 649 536 697 524 686 l 524 250 b 372 100 524 153 471 100 b 222 244 279 100 222 154 l 222 649 b 165 697 222 686 210 697 b 108 649 121 697 108 686 l 108 -208 b 165 -256 108 -244 121 -256 b 222 -208 210 -256 222 -244 l 222 44 b 369 -14 258 8 313 -14 b 538 61 439 -14 499 14 b 665 -11 560 14 603 -11 b 722 -4 682 -11 704 -8 b 761 56 750 3 761 17 b 731 104 761 90 750 104 z "},"¶":{"ha":922,"x_min":null,"x_max":null,"o":"m 824 990 b 672 986 786 990 743 986 b 439 994 615 986 558 994 b 54 689 164 994 54 854 b 403 363 54 493 178 369 l 403 49 b 465 -11 403 8 419 -11 b 525 49 508 -11 525 8 l 525 843 b 582 897 525 878 542 897 b 640 843 625 897 640 876 l 640 49 b 701 -11 640 8 657 -11 b 763 49 746 -11 763 8 l 763 836 b 865 957 763 931 865 897 b 824 990 865 975 853 990 z "},"·":{"ha":364,"x_min":null,"x_max":null,"o":"m 189 417 b 297 324 253 417 297 382 b 174 221 297 268 246 221 b 67 314 110 221 67 256 b 189 417 67 371 118 417 z "},"¸":{"ha":581,"x_min":null,"x_max":null,"o":"m 311 -64 b 267 -69 296 -64 281 -65 l 290 24 l 222 24 l 185 -111 b 228 -151 189 -126 214 -147 b 289 -136 249 -143 269 -136 b 346 -175 326 -136 346 -151 b 282 -217 346 -200 321 -217 b 201 -199 253 -217 224 -207 b 168 -190 189 -194 176 -190 b 143 -218 153 -190 143 -203 b 163 -249 143 -231 149 -239 b 288 -278 192 -265 239 -278 b 440 -167 376 -278 440 -232 b 311 -64 440 -107 385 -64 z "},"¹":{"ha":425,"x_min":null,"x_max":null,"o":"m 100 358 b 229 361 132 358 167 361 b 358 358 290 361 326 358 b 390 385 381 358 390 371 b 301 472 390 429 301 404 l 301 904 b 347 989 301 953 347 956 b 319 1015 347 1001 336 1015 b 204 975 299 1015 274 999 b 44 929 135 953 92 944 b 17 897 25 924 17 911 b 49 871 17 882 29 871 b 121 878 68 871 97 878 b 156 835 142 878 156 864 l 156 472 b 68 385 156 404 68 429 b 100 358 68 372 78 358 z "},"º":{"ha":622,"x_min":null,"x_max":null,"o":"m 301 474 b 596 740 469 474 596 586 b 321 997 596 888 489 997 b 26 729 149 997 26 883 b 301 474 26 585 133 474 z m 328 544 b 176 769 235 544 176 669 b 293 926 176 867 221 926 b 444 701 388 926 444 803 b 328 544 444 604 401 544 z "},"»":{"ha":786,"x_min":null,"x_max":null,"o":"m 417 336 b 357 422 417 372 388 396 l 188 568 b 99 628 147 604 119 628 b 67 593 79 628 67 611 b 126 494 67 569 88 540 l 246 343 b 247 336 247 340 247 339 b 246 329 247 333 247 332 l 126 179 b 67 79 88 133 67 104 b 99 46 67 61 79 46 b 188 106 119 46 147 71 l 357 250 b 417 336 388 276 417 301 z m 667 422 l 499 568 b 410 628 458 604 429 628 b 376 593 390 628 376 611 b 436 494 376 569 399 540 l 557 342 b 558 336 558 340 558 339 b 557 331 558 333 558 332 l 436 179 b 376 79 399 133 376 104 b 410 46 376 61 390 46 b 499 106 429 46 458 71 l 667 250 b 728 336 699 276 728 301 b 667 422 728 372 699 396 z "},"¼":{"ha":1357,"x_min":null,"x_max":null,"o":"m 415 372 b 326 460 415 417 326 392 l 326 892 b 372 976 326 940 372 943 b 346 1003 372 989 363 1003 b 231 963 324 1003 299 986 b 69 917 160 940 118 932 b 42 885 50 911 42 899 b 74 858 42 869 54 858 b 146 865 93 858 122 865 b 181 822 167 865 181 851 l 181 460 b 93 372 181 392 93 417 b 125 346 93 360 103 346 b 254 349 157 346 192 349 b 383 346 315 349 351 346 b 415 372 406 346 415 358 z m 1038 947 b 981 996 1038 969 1013 996 b 914 932 954 996 938 968 l 343 89 b 317 26 322 58 317 44 b 374 -22 317 3 342 -22 b 440 40 401 -22 417 6 l 1011 885 b 1038 947 1032 915 1038 929 z m 1278 256 l 1224 256 l 1224 606 b 1176 643 1224 632 1204 643 l 1119 643 b 1032 586 1079 643 1061 629 l 824 290 b 774 188 794 246 774 221 b 825 146 774 157 793 146 l 1076 146 l 1076 104 b 1007 22 1076 42 1007 64 b 1039 -3 1007 10 1017 -3 b 1150 0 1064 -3 1097 0 b 1250 -3 1200 0 1226 -3 b 1282 22 1272 -3 1282 10 b 1224 104 1282 61 1224 42 l 1224 146 l 1278 146 b 1313 186 1308 146 1313 157 l 1313 215 b 1278 256 1313 253 1299 256 z m 1082 538 l 1082 256 l 883 256 z "},"½":{"ha":1439,"x_min":null,"x_max":null,"o":"m 417 372 b 328 460 417 417 328 392 l 328 892 b 374 976 328 940 374 943 b 346 1003 374 989 363 1003 b 231 963 324 1003 300 986 b 71 917 161 940 118 932 b 42 885 50 911 42 899 b 75 858 42 869 56 858 b 147 865 94 858 124 865 b 182 822 168 865 182 851 l 182 460 b 93 372 182 392 93 417 b 126 346 93 360 103 346 b 254 349 157 346 193 349 b 385 346 317 349 353 346 b 417 372 406 346 417 358 z m 1040 947 b 983 996 1040 969 1014 996 b 915 932 956 996 939 968 l 344 89 b 318 26 324 58 318 44 b 375 -22 318 3 344 -22 b 442 40 403 -22 418 6 l 1013 885 b 1040 947 1033 915 1040 929 z m 1369 211 b 1332 186 1354 211 1346 200 b 1193 115 1272 126 1233 115 l 1011 115 b 1215 282 1074 178 1149 226 b 1336 482 1275 333 1336 397 b 1121 656 1336 575 1253 656 b 889 521 1014 656 933 601 b 878 481 882 508 878 493 b 907 447 878 464 890 447 b 947 478 921 447 935 460 b 1072 551 979 521 1015 551 b 1172 461 1133 551 1172 511 b 1083 296 1172 406 1138 351 b 875 76 947 150 954 164 b 850 29 858 57 850 43 b 888 -3 850 15 861 -3 b 978 0 917 -3 950 0 l 1211 0 b 1279 -22 1250 0 1254 -22 b 1328 22 1304 -22 1314 -6 l 1371 110 b 1397 182 1389 149 1397 164 b 1369 211 1397 199 1383 211 z "},"¾":{"ha":1417,"x_min":null,"x_max":null,"o":"m 553 551 b 358 753 553 642 482 738 b 508 893 418 806 471 854 b 544 951 536 922 544 936 b 507 992 544 968 533 992 b 417 989 478 992 444 989 l 231 989 b 165 1010 194 989 190 1010 b 118 964 143 1010 132 997 l 85 885 b 64 821 75 861 64 838 b 89 792 64 801 78 792 b 126 814 101 792 111 797 b 258 889 193 886 218 889 l 397 889 b 249 742 351 839 289 776 b 199 689 225 721 199 714 b 232 654 199 671 210 654 b 279 660 246 654 261 660 b 393 544 338 660 393 614 b 264 436 393 481 338 436 b 115 513 194 436 144 471 b 78 538 103 528 94 538 b 47 507 63 538 47 524 b 60 460 47 494 51 476 b 301 335 85 408 161 335 b 553 551 444 335 553 433 z m 1124 947 b 1067 996 1124 969 1097 996 b 999 932 1039 996 1022 968 l 428 89 b 401 26 407 58 401 44 b 458 -22 401 3 428 -22 b 525 40 486 -22 501 6 l 1096 885 b 1124 947 1117 915 1124 929 z m 1340 256 l 1285 256 l 1285 606 b 1238 643 1285 632 1267 643 l 1181 643 b 1094 586 1140 643 1122 629 l 886 290 b 836 188 856 246 836 221 b 886 146 836 157 854 146 l 1139 146 l 1139 104 b 1069 22 1139 42 1069 64 b 1101 -3 1069 10 1079 -3 b 1211 0 1125 -3 1160 0 b 1311 -3 1261 0 1289 -3 b 1343 22 1335 -3 1343 10 b 1285 104 1343 61 1285 42 l 1285 146 l 1340 146 b 1375 186 1369 146 1375 157 l 1375 215 b 1340 256 1375 253 1360 256 z m 1144 539 l 1144 256 l 944 256 z "},"¿":{"ha":628,"x_min":null,"x_max":null,"o":"m 331 539 b 231 624 272 539 231 571 b 346 715 231 674 279 715 b 444 632 406 715 444 685 b 331 539 444 581 397 539 z m 344 440 b 308 414 322 440 313 428 b 293 311 306 392 301 365 b 189 171 285 269 254 235 b 49 -81 118 101 49 40 b 315 -310 49 -221 171 -310 b 593 -154 475 -310 593 -219 b 519 -33 593 -126 578 -82 b 478 -11 501 -18 492 -11 b 440 -51 457 -11 444 -28 b 297 -221 419 -146 376 -221 b 192 -112 232 -221 192 -176 b 296 53 192 -53 226 -18 b 397 254 369 128 397 183 b 381 413 397 307 389 379 b 344 440 376 428 367 440 z "},"À":{"ha":1024,"x_min":null,"x_max":null,"o":"m 479 1078 b 540 1049 503 1054 522 1049 b 574 1071 560 1049 574 1058 b 561 1106 574 1081 568 1092 b 453 1276 521 1176 486 1229 b 375 1308 436 1300 421 1308 b 301 1279 317 1308 301 1301 b 349 1208 301 1260 317 1242 b 479 1078 378 1182 439 1117 z m 925 151 l 704 714 b 631 908 678 781 650 854 b 514 996 604 985 596 996 b 393 908 431 996 419 986 b 321 714 375 854 347 781 l 99 149 b -12 26 63 57 -12 82 b 25 -4 -12 8 1 -4 b 128 0 56 -4 85 0 b 249 -4 171 0 210 -4 b 299 31 281 -4 299 7 b 203 121 299 79 203 65 b 217 169 203 133 208 147 l 272 308 b 315 340 281 332 289 340 l 628 340 b 671 308 654 340 663 332 l 728 168 b 739 119 735 147 739 132 b 646 31 739 64 646 81 b 696 -4 646 7 664 -4 b 861 0 735 -4 796 0 b 999 -4 926 0 969 -4 b 1035 26 1021 -4 1035 8 b 925 151 1035 79 963 58 z m 594 432 l 346 432 b 329 458 328 432 324 443 l 471 819 l 614 457 b 594 432 619 444 617 432 z "},"Á":{"ha":1024,"x_min":null,"x_max":null,"o":"m 474 1049 b 533 1078 492 1049 510 1054 b 664 1208 574 1115 633 1179 b 711 1279 697 1242 711 1260 b 638 1308 711 1301 696 1308 b 560 1276 592 1308 576 1300 b 453 1106 528 1228 494 1176 b 440 1071 444 1092 440 1081 b 474 1049 440 1058 453 1049 z m 925 151 l 704 714 b 631 908 678 781 650 854 b 514 996 604 985 596 996 b 393 908 431 996 419 986 b 321 714 375 854 347 781 l 99 149 b -12 26 63 57 -12 82 b 25 -4 -12 8 1 -4 b 128 0 56 -4 85 0 b 249 -4 171 0 210 -4 b 299 31 281 -4 299 7 b 203 121 299 79 203 65 b 217 169 203 133 208 147 l 272 308 b 315 340 281 332 289 340 l 628 340 b 671 308 654 340 663 332 l 728 168 b 739 119 735 147 739 132 b 646 31 739 64 646 81 b 696 -4 646 7 664 -4 b 861 0 735 -4 796 0 b 999 -4 926 0 969 -4 b 1035 26 1021 -4 1035 8 b 925 151 1035 79 963 58 z m 594 432 l 346 432 b 329 458 328 432 324 443 l 471 819 l 614 457 b 594 432 619 444 617 432 z "},"Â":{"ha":1024,"x_min":null,"x_max":null,"o":"m 343 1060 b 400 1090 360 1060 378 1067 l 517 1208 l 633 1090 b 690 1060 656 1067 674 1060 b 728 1090 713 1060 728 1076 b 711 1128 728 1101 722 1113 b 599 1275 676 1179 640 1226 b 517 1311 576 1301 563 1311 b 435 1275 472 1311 457 1301 b 322 1128 394 1226 358 1178 b 307 1090 313 1113 307 1101 b 343 1060 307 1076 321 1060 z m 925 151 l 704 714 b 631 908 678 781 650 854 b 514 996 604 985 596 996 b 393 908 431 996 419 986 b 321 714 375 854 347 781 l 99 149 b -12 26 63 57 -12 82 b 25 -4 -12 8 1 -4 b 128 0 56 -4 85 0 b 249 -4 171 0 210 -4 b 299 31 281 -4 299 7 b 203 121 299 79 203 65 b 217 169 203 133 208 147 l 272 308 b 315 340 281 332 289 340 l 628 340 b 671 308 654 340 663 332 l 728 168 b 739 119 735 147 739 132 b 646 31 739 64 646 81 b 696 -4 646 7 664 -4 b 861 0 735 -4 796 0 b 999 -4 926 0 969 -4 b 1035 26 1021 -4 1035 8 b 925 151 1035 79 963 58 z m 594 432 l 346 432 b 329 458 328 432 324 443 l 471 819 l 614 457 b 594 432 619 444 617 432 z "},"Ã":{"ha":1024,"x_min":null,"x_max":null,"o":"m 332 1089 b 379 1135 356 1089 364 1108 b 425 1181 394 1163 410 1181 b 603 1076 458 1181 522 1076 b 722 1186 660 1076 701 1128 b 732 1233 729 1207 732 1224 b 699 1268 732 1256 719 1268 b 651 1222 674 1268 667 1249 b 606 1175 635 1190 621 1175 b 426 1281 565 1175 507 1281 b 308 1169 371 1281 328 1226 b 299 1124 301 1149 299 1132 b 332 1089 299 1101 311 1089 z m 925 151 l 704 714 b 631 908 678 781 650 854 b 514 996 604 985 596 996 b 393 908 431 996 419 986 b 321 714 375 854 347 781 l 99 149 b -12 26 63 57 -12 82 b 25 -4 -12 8 1 -4 b 128 0 56 -4 85 0 b 249 -4 171 0 210 -4 b 299 31 281 -4 299 7 b 203 121 299 79 203 65 b 217 169 203 133 208 147 l 272 308 b 315 340 281 332 289 340 l 628 340 b 671 308 654 340 663 332 l 728 168 b 739 119 735 147 739 132 b 646 31 739 64 646 81 b 696 -4 646 7 664 -4 b 861 0 735 -4 796 0 b 999 -4 926 0 969 -4 b 1035 26 1021 -4 1035 8 b 925 151 1035 79 963 58 z m 594 432 l 346 432 b 329 458 328 432 324 443 l 471 819 l 614 457 b 594 432 619 444 617 432 z "},"Ä":{"ha":1024,"x_min":null,"x_max":null,"o":"m 381 1078 b 478 1167 438 1078 478 1114 b 382 1254 478 1219 438 1254 b 282 1164 322 1254 282 1214 b 381 1078 282 1113 322 1078 z m 647 1078 b 744 1167 704 1078 744 1114 b 649 1253 744 1219 704 1253 b 550 1164 590 1253 550 1214 b 647 1078 550 1113 590 1078 z m 925 151 l 704 714 b 631 908 678 781 650 854 b 514 996 604 985 596 996 b 393 908 431 996 419 986 b 321 714 375 854 347 781 l 99 149 b -12 26 63 57 -12 82 b 25 -4 -12 8 1 -4 b 128 0 56 -4 85 0 b 249 -4 171 0 210 -4 b 299 31 281 -4 299 7 b 203 121 299 79 203 65 b 217 169 203 133 208 147 l 272 308 b 315 340 281 332 289 340 l 628 340 b 671 308 654 340 663 332 l 728 168 b 739 119 735 147 739 132 b 646 31 739 64 646 81 b 696 -4 646 7 664 -4 b 861 0 735 -4 796 0 b 999 -4 926 0 969 -4 b 1035 26 1021 -4 1035 8 b 925 151 1035 79 963 58 z m 594 432 l 346 432 b 329 458 328 432 324 443 l 471 819 l 614 457 b 594 432 619 444 617 432 z "},"Å":{"ha":1024,"x_min":null,"x_max":null,"o":"m 513 1036 b 681 1186 618 1036 681 1090 b 521 1322 681 1274 621 1322 b 351 1181 415 1322 351 1271 b 513 1036 351 1088 408 1036 z m 517 1264 b 585 1182 558 1264 585 1236 b 517 1097 585 1124 561 1097 b 446 1176 474 1097 446 1125 b 517 1264 446 1236 472 1264 z m 925 151 l 704 714 b 631 908 678 781 650 854 b 514 996 604 985 596 996 b 393 908 431 996 419 986 b 321 714 375 854 347 781 l 99 149 b -12 26 63 57 -12 82 b 25 -4 -12 8 1 -4 b 128 0 56 -4 85 0 b 249 -4 171 0 210 -4 b 299 31 281 -4 299 7 b 203 121 299 79 203 65 b 217 169 203 133 208 147 l 272 308 b 315 340 281 332 289 340 l 628 340 b 671 308 654 340 663 332 l 728 168 b 739 119 735 147 739 132 b 646 31 739 64 646 81 b 696 -4 646 7 664 -4 b 861 0 735 -4 796 0 b 999 -4 926 0 969 -4 b 1035 26 1021 -4 1035 8 b 925 151 1035 79 963 58 z m 594 432 l 346 432 b 329 458 328 432 324 443 l 471 819 l 614 457 b 594 432 619 444 617 432 z "},"Æ":{"ha":1511,"x_min":null,"x_max":null,"o":"m 1456 299 b 1404 264 1436 299 1424 286 b 1124 90 1308 156 1244 90 l 990 90 b 892 158 906 90 892 108 l 892 422 b 932 456 892 446 900 456 l 1040 456 b 1176 353 1126 456 1125 353 b 1208 399 1193 353 1208 365 b 1204 501 1208 431 1204 465 b 1208 603 1204 536 1208 569 b 1176 649 1208 636 1193 649 b 1040 546 1125 649 1126 546 l 932 546 b 892 579 900 546 892 556 l 892 828 b 990 896 892 876 904 896 l 1085 896 b 1351 732 1200 896 1256 835 b 1404 699 1372 711 1385 699 b 1438 735 1421 699 1438 711 b 1401 835 1438 758 1428 782 l 1349 947 b 1281 1017 1325 999 1308 1017 b 1194 986 1247 1017 1243 986 l 681 986 b 546 990 618 986 572 990 b 499 956 514 990 499 975 b 590 851 499 899 590 921 b 549 771 590 824 564 793 l 114 149 b -36 26 43 47 -36 88 b -1 -4 -36 8 -22 -4 b 133 0 26 -4 81 0 b 260 -4 176 0 217 -4 b 313 31 293 -4 313 7 b 224 108 313 78 224 68 b 253 171 224 126 236 147 l 346 304 b 401 340 361 329 375 340 l 679 340 b 708 310 699 340 708 329 l 708 150 b 619 31 708 54 619 86 b 664 -4 619 11 631 -4 b 799 0 690 -4 736 0 l 1236 0 b 1329 -31 1288 0 1293 -31 b 1393 29 1356 -31 1374 -10 l 1453 157 b 1490 263 1481 215 1490 238 b 1456 299 1490 285 1474 299 z m 679 432 l 464 432 b 453 464 442 432 439 443 l 708 836 l 708 463 b 679 432 708 443 699 432 z "},"Ç":{"ha":979,"x_min":null,"x_max":null,"o":"m 906 282 b 858 251 883 282 871 267 b 585 103 794 161 699 103 b 251 511 390 103 251 263 b 553 913 251 743 381 913 b 846 706 657 913 743 842 b 897 671 864 683 878 671 b 935 713 915 671 935 685 b 897 821 935 736 922 758 l 850 943 b 789 1015 829 997 814 1015 b 725 978 760 1015 756 978 b 518 1011 692 978 615 1011 b 51 472 272 1011 51 792 b 451 -22 51 188 235 10 l 426 -111 b 469 -151 431 -126 456 -147 b 531 -136 490 -143 511 -136 b 588 -175 568 -136 588 -151 b 524 -217 588 -200 563 -217 b 443 -199 494 -217 465 -207 b 410 -190 431 -194 418 -190 b 385 -218 394 -190 385 -203 b 404 -249 385 -231 390 -239 b 529 -278 433 -265 481 -278 b 682 -167 618 -278 682 -232 b 553 -64 682 -107 626 -64 b 508 -69 538 -64 522 -65 l 518 -28 l 524 -28 b 928 185 736 -28 878 94 b 946 240 939 207 946 225 b 906 282 946 265 928 282 z "},"È":{"ha":967,"x_min":null,"x_max":null,"o":"m 431 1078 b 492 1049 454 1054 474 1049 b 525 1071 511 1049 525 1058 b 513 1106 525 1081 519 1092 b 404 1276 472 1176 438 1229 b 326 1308 388 1300 372 1308 b 253 1279 268 1308 253 1301 b 300 1208 253 1260 268 1242 b 431 1078 329 1182 390 1117 z m 917 299 b 865 264 897 299 885 286 b 585 90 767 157 704 90 l 429 90 b 331 158 344 90 331 108 l 331 422 b 371 456 331 446 339 456 l 482 456 b 615 353 568 456 564 353 b 651 399 636 353 651 365 b 647 501 651 431 647 465 b 651 603 647 536 651 569 b 615 649 651 636 636 649 b 482 546 564 649 568 546 l 371 546 b 331 579 339 546 331 556 l 331 828 b 429 896 331 876 343 896 l 532 896 b 799 732 647 896 703 835 b 851 699 819 711 832 699 b 885 735 868 699 885 711 b 849 835 885 758 875 782 l 796 947 b 728 1017 772 999 756 1017 b 642 986 694 1017 690 986 l 238 986 b 103 990 174 986 128 990 b 58 956 69 990 58 975 b 147 836 58 900 147 932 l 147 150 b 58 31 147 54 58 86 b 103 -4 58 11 69 -4 b 238 0 129 -4 175 0 l 697 0 b 790 -31 749 0 753 -31 b 853 29 817 -31 835 -10 l 913 157 b 951 263 942 215 951 238 b 917 299 951 285 933 299 z "},"É":{"ha":967,"x_min":null,"x_max":null,"o":"m 425 1049 b 485 1078 443 1049 461 1054 b 615 1208 525 1115 585 1179 b 663 1279 649 1242 663 1260 b 589 1308 663 1301 647 1308 b 511 1276 543 1308 528 1300 b 404 1106 479 1228 446 1176 b 392 1071 396 1092 392 1081 b 425 1049 392 1058 404 1049 z m 917 299 b 865 264 897 299 885 286 b 585 90 767 157 704 90 l 429 90 b 331 158 344 90 331 108 l 331 422 b 371 456 331 446 339 456 l 482 456 b 615 353 568 456 564 353 b 651 399 636 353 651 365 b 647 501 651 431 647 465 b 651 603 647 536 651 569 b 615 649 651 636 636 649 b 482 546 564 649 568 546 l 371 546 b 331 579 339 546 331 556 l 331 828 b 429 896 331 876 343 896 l 532 896 b 799 732 647 896 703 835 b 851 699 819 711 832 699 b 885 735 868 699 885 711 b 849 835 885 758 875 782 l 796 947 b 728 1017 772 999 756 1017 b 642 986 694 1017 690 986 l 238 986 b 103 990 174 986 128 990 b 58 956 69 990 58 975 b 147 836 58 900 147 932 l 147 150 b 58 31 147 54 58 86 b 103 -4 58 11 69 -4 b 238 0 129 -4 175 0 l 697 0 b 790 -31 749 0 753 -31 b 853 29 817 -31 835 -10 l 913 157 b 951 263 942 215 951 238 b 917 299 951 285 933 299 z "},"Ê":{"ha":967,"x_min":null,"x_max":null,"o":"m 294 1060 b 351 1090 311 1060 329 1067 l 468 1208 l 585 1090 b 642 1060 607 1067 625 1060 b 679 1090 664 1060 679 1076 b 663 1128 679 1101 674 1113 b 550 1275 628 1179 592 1226 b 468 1311 528 1301 514 1311 b 386 1275 424 1311 408 1301 b 274 1128 346 1226 310 1178 b 258 1090 264 1113 258 1101 b 294 1060 258 1076 272 1060 z m 917 299 b 865 264 897 299 885 286 b 585 90 767 157 704 90 l 429 90 b 331 158 344 90 331 108 l 331 422 b 371 456 331 446 339 456 l 482 456 b 615 353 568 456 564 353 b 651 399 636 353 651 365 b 647 501 651 431 647 465 b 651 603 647 536 651 569 b 615 649 651 636 636 649 b 482 546 564 649 568 546 l 371 546 b 331 579 339 546 331 556 l 331 828 b 429 896 331 876 343 896 l 532 896 b 799 732 647 896 703 835 b 851 699 819 711 832 699 b 885 735 868 699 885 711 b 849 835 885 758 875 782 l 796 947 b 728 1017 772 999 756 1017 b 642 986 694 1017 690 986 l 238 986 b 103 990 174 986 128 990 b 58 956 69 990 58 975 b 147 836 58 900 147 932 l 147 150 b 58 31 147 54 58 86 b 103 -4 58 11 69 -4 b 238 0 129 -4 175 0 l 697 0 b 790 -31 749 0 753 -31 b 853 29 817 -31 835 -10 l 913 157 b 951 263 942 215 951 238 b 917 299 951 285 933 299 z "},"Ë":{"ha":967,"x_min":null,"x_max":null,"o":"m 332 1078 b 429 1167 389 1078 429 1114 b 333 1254 429 1219 389 1254 b 233 1164 274 1254 233 1214 b 332 1078 233 1113 274 1078 z m 599 1078 b 696 1167 656 1078 696 1114 b 600 1253 696 1219 656 1253 b 501 1164 542 1253 501 1214 b 599 1078 501 1113 542 1078 z m 917 299 b 865 264 897 299 885 286 b 585 90 767 157 704 90 l 429 90 b 331 158 344 90 331 108 l 331 422 b 371 456 331 446 339 456 l 482 456 b 615 353 568 456 564 353 b 651 399 636 353 651 365 b 647 501 651 431 647 465 b 651 603 647 536 651 569 b 615 649 651 636 636 649 b 482 546 564 649 568 546 l 371 546 b 331 579 339 546 331 556 l 331 828 b 429 896 331 876 343 896 l 532 896 b 799 732 647 896 703 835 b 851 699 819 711 832 699 b 885 735 868 699 885 711 b 849 835 885 758 875 782 l 796 947 b 728 1017 772 999 756 1017 b 642 986 694 1017 690 986 l 238 986 b 103 990 174 986 128 990 b 58 956 69 990 58 975 b 147 836 58 900 147 932 l 147 150 b 58 31 147 54 58 86 b 103 -4 58 11 69 -4 b 238 0 129 -4 175 0 l 697 0 b 790 -31 749 0 753 -31 b 853 29 817 -31 835 -10 l 913 157 b 951 263 942 215 951 238 b 917 299 951 285 933 299 z "},"Ì":{"ha":478,"x_min":null,"x_max":null,"o":"m 257 1049 b 290 1071 276 1049 290 1058 b 278 1106 290 1081 285 1092 b 169 1276 238 1176 203 1229 b 92 1308 153 1300 138 1308 b 18 1279 33 1308 18 1301 b 65 1208 18 1260 33 1242 b 196 1078 94 1182 156 1117 b 257 1049 219 1054 239 1049 z m 100 -4 b 238 0 133 -4 172 0 b 378 -4 303 0 344 -4 b 419 29 408 -4 419 13 b 331 150 419 86 331 54 l 331 836 b 419 957 331 932 419 900 b 378 990 419 974 408 990 b 238 986 344 990 303 986 b 103 990 172 986 136 990 b 58 957 72 990 58 974 b 147 836 58 900 147 932 l 147 150 b 58 29 147 54 58 86 b 100 -4 58 13 69 -4 z "},"Í":{"ha":478,"x_min":null,"x_max":null,"o":"m 190 1049 b 250 1078 208 1049 226 1054 b 381 1208 290 1115 350 1179 b 428 1279 414 1242 428 1260 b 354 1308 428 1301 413 1308 b 276 1276 308 1308 293 1300 b 169 1106 244 1228 211 1176 b 157 1071 161 1092 157 1081 b 190 1049 157 1058 169 1049 z m 100 -4 b 238 0 133 -4 172 0 b 378 -4 303 0 344 -4 b 419 29 408 -4 419 13 b 331 150 419 86 331 54 l 331 836 b 419 957 331 932 419 900 b 378 990 419 974 408 990 b 238 986 344 990 303 986 b 103 990 172 986 136 990 b 58 957 72 990 58 974 b 147 836 58 900 147 932 l 147 150 b 58 29 147 54 58 86 b 100 -4 58 13 69 -4 z "},"Î":{"ha":478,"x_min":null,"x_max":null,"o":"m 428 1128 b 315 1275 393 1179 357 1226 b 233 1311 293 1301 279 1311 b 151 1275 189 1311 174 1301 b 39 1128 111 1226 75 1178 b 24 1090 29 1113 24 1101 b 60 1060 24 1076 38 1060 b 117 1090 76 1060 94 1067 l 233 1208 l 350 1090 b 407 1060 372 1067 390 1060 b 444 1090 429 1060 444 1076 b 428 1128 444 1101 439 1113 z m 419 957 b 378 990 419 974 408 990 b 238 986 344 990 303 986 b 103 990 172 986 136 990 b 58 957 72 990 58 974 b 147 836 58 900 147 932 l 147 150 b 58 29 147 54 58 86 b 100 -4 58 13 69 -4 b 238 0 133 -4 172 0 b 378 -4 303 0 344 -4 b 419 29 408 -4 419 13 b 331 150 419 86 331 54 l 331 836 b 419 957 331 932 419 900 z "},"Ï":{"ha":478,"x_min":null,"x_max":null,"o":"m 97 1078 b 194 1167 154 1078 194 1114 b 99 1254 194 1219 154 1254 b -1 1164 39 1254 -1 1214 b 97 1078 -1 1113 39 1078 z m 364 1078 b 461 1167 421 1078 461 1114 b 365 1253 461 1219 421 1253 b 267 1164 307 1253 267 1214 b 364 1078 267 1113 307 1078 z m 100 -4 b 238 0 133 -4 172 0 b 378 -4 303 0 344 -4 b 419 29 408 -4 419 13 b 331 150 419 86 331 54 l 331 836 b 419 957 331 932 419 900 b 378 990 419 974 408 990 b 238 986 344 990 303 986 b 103 990 172 986 136 990 b 58 957 72 990 58 974 b 147 836 58 900 147 932 l 147 150 b 58 29 147 54 58 86 b 100 -4 58 13 69 -4 z "},"Ð":{"ha":1100,"x_min":null,"x_max":null,"o":"m 472 993 b 242 986 396 993 318 986 b 106 990 178 986 132 990 b 61 956 74 990 61 975 b 150 836 61 900 150 932 l 150 550 l 76 550 b 28 504 42 550 28 535 b 76 460 28 474 42 460 l 150 460 l 150 150 b 61 31 150 54 61 86 b 106 -4 61 11 74 -4 b 242 0 132 -4 178 0 b 510 -6 331 0 419 -6 b 1050 479 833 -6 1050 192 b 472 993 1050 782 811 993 z m 486 89 l 444 89 b 335 156 360 89 335 106 l 335 460 l 526 460 b 575 504 561 460 575 474 b 526 550 575 535 561 550 l 335 550 l 335 831 b 444 897 335 879 358 897 l 469 897 b 846 489 703 897 846 733 b 486 89 846 240 718 89 z "},"Ñ":{"ha":1081,"x_min":null,"x_max":null,"o":"m 361 1089 b 408 1135 385 1089 393 1108 b 454 1181 424 1163 439 1181 b 632 1076 488 1181 551 1076 b 751 1186 689 1076 731 1128 b 761 1233 758 1207 761 1224 b 728 1268 761 1256 749 1268 b 681 1222 703 1268 696 1249 b 635 1175 664 1190 650 1175 b 456 1281 594 1175 536 1281 b 338 1169 400 1281 357 1226 b 328 1124 331 1149 328 1132 b 361 1089 328 1101 340 1089 z m 994 990 b 888 986 961 990 925 986 b 771 990 844 986 808 990 b 724 957 742 990 724 975 b 836 836 724 892 836 929 l 836 308 l 329 954 b 263 989 307 982 286 989 b 190 988 242 989 222 988 b 103 990 157 988 129 990 b 56 956 71 990 56 975 b 147 836 56 900 147 932 l 147 150 b 56 31 147 54 56 86 b 99 -4 56 13 69 -4 b 207 0 133 -4 174 0 b 324 -4 242 0 288 -4 b 369 29 354 -4 369 10 b 258 150 369 94 258 57 l 258 754 l 831 28 b 899 -12 850 4 867 -12 b 946 36 924 -12 946 3 l 946 836 b 1039 957 946 932 1039 900 b 994 990 1039 975 1025 990 z "},"Ò":{"ha":1151,"x_min":null,"x_max":null,"o":"m 600 1049 b 633 1071 619 1049 633 1058 b 621 1106 633 1081 628 1092 b 513 1276 581 1176 546 1229 b 435 1308 496 1300 481 1308 b 361 1279 376 1308 361 1301 b 408 1208 361 1260 376 1242 b 539 1078 438 1182 499 1117 b 600 1049 563 1054 582 1049 z m 575 -28 b 1101 474 878 -28 1101 169 b 575 1014 1101 782 878 1014 b 50 472 276 1014 50 782 b 575 -28 50 168 276 -28 z m 575 75 b 254 488 376 75 254 264 b 576 915 254 715 375 915 b 897 492 776 915 897 714 b 575 75 897 264 781 75 z "},"Ó":{"ha":1151,"x_min":null,"x_max":null,"o":"m 533 1049 b 593 1078 551 1049 569 1054 b 724 1208 633 1115 693 1179 b 771 1279 757 1242 771 1260 b 697 1308 771 1301 756 1308 b 619 1276 651 1308 636 1300 b 513 1106 588 1228 554 1176 b 500 1071 504 1092 500 1081 b 533 1049 500 1058 513 1049 z m 575 -28 b 1101 474 878 -28 1101 169 b 575 1014 1101 782 878 1014 b 50 472 276 1014 50 782 b 575 -28 50 168 276 -28 z m 575 75 b 254 488 376 75 254 264 b 576 915 254 715 375 915 b 897 492 776 915 897 714 b 575 75 897 264 781 75 z "},"Ô":{"ha":1151,"x_min":null,"x_max":null,"o":"m 403 1060 b 460 1090 419 1060 438 1067 l 576 1208 l 693 1090 b 750 1060 715 1067 733 1060 b 788 1090 772 1060 788 1076 b 771 1128 788 1101 782 1113 b 658 1275 736 1179 700 1226 b 576 1311 636 1301 622 1311 b 494 1275 532 1311 517 1301 b 382 1128 454 1226 418 1178 b 367 1090 372 1113 367 1101 b 403 1060 367 1076 381 1060 z m 575 1014 b 50 472 276 1014 50 782 b 575 -28 50 168 276 -28 b 1101 474 878 -28 1101 169 b 575 1014 1101 782 878 1014 z m 575 75 b 254 488 376 75 254 264 b 576 915 254 715 375 915 b 897 492 776 915 897 714 b 575 75 897 264 781 75 z "},"Õ":{"ha":1151,"x_min":null,"x_max":null,"o":"m 663 1076 b 782 1186 719 1076 761 1128 b 792 1233 789 1207 792 1224 b 758 1268 792 1256 779 1268 b 711 1222 733 1268 726 1249 b 665 1175 694 1190 681 1175 b 486 1281 625 1175 567 1281 b 368 1169 431 1281 388 1226 b 358 1124 361 1149 358 1132 b 392 1089 358 1101 371 1089 b 439 1135 415 1089 424 1108 b 485 1181 454 1163 469 1181 b 663 1076 518 1181 582 1076 z m 575 -28 b 1101 474 878 -28 1101 169 b 575 1014 1101 782 878 1014 b 50 472 276 1014 50 782 b 575 -28 50 168 276 -28 z m 575 75 b 254 488 376 75 254 264 b 576 915 254 715 375 915 b 897 492 776 915 897 714 b 575 75 897 264 781 75 z "},"Ö":{"ha":1151,"x_min":null,"x_max":null,"o":"m 440 1078 b 538 1167 497 1078 538 1114 b 442 1254 538 1219 497 1254 b 342 1164 382 1254 342 1214 b 440 1078 342 1113 382 1078 z m 707 1078 b 804 1167 764 1078 804 1114 b 708 1253 804 1219 764 1253 b 610 1164 650 1253 610 1214 b 707 1078 610 1113 650 1078 z m 575 -28 b 1101 474 878 -28 1101 169 b 575 1014 1101 782 878 1014 b 50 472 276 1014 50 782 b 575 -28 50 168 276 -28 z m 575 75 b 254 488 376 75 254 264 b 576 915 254 715 375 915 b 897 492 776 915 897 714 b 575 75 897 264 781 75 z "},"×":{"ha":696,"x_min":null,"x_max":null,"o":"m 129 138 b 153 147 139 138 144 139 l 336 331 b 349 338 339 333 343 338 b 360 331 353 338 357 333 l 543 147 b 567 138 551 139 558 138 b 633 204 593 138 633 176 b 624 228 633 213 632 219 l 440 410 b 433 424 438 414 433 418 b 440 435 433 428 438 432 l 624 618 b 633 642 632 626 633 633 b 567 708 633 671 592 708 b 543 699 558 708 551 706 l 360 515 b 349 508 357 511 353 508 b 336 515 343 508 339 511 l 153 699 b 129 708 144 706 138 708 b 63 642 101 708 63 669 b 72 618 63 632 65 626 l 256 435 b 263 424 258 432 263 428 b 256 410 263 418 258 414 l 72 228 b 63 204 65 219 63 211 b 129 138 63 174 104 138 z "},"Ø":{"ha":1163,"x_min":null,"x_max":null,"o":"m 985 829 l 1075 917 b 1094 953 1088 929 1094 940 b 1047 1000 1094 978 1063 1000 b 1011 982 1035 1000 1024 993 l 921 893 b 581 1014 831 969 713 1014 b 57 472 282 1014 57 782 b 164 154 57 344 96 238 l 76 68 b 58 33 64 57 58 44 b 104 -15 58 7 88 -15 b 139 3 117 -15 126 -10 l 228 90 b 581 -28 319 14 443 -28 b 1107 474 883 -28 1107 169 b 985 829 1107 613 1061 735 z m 582 915 b 817 789 682 915 761 867 l 299 281 b 260 488 274 342 260 413 b 582 915 260 715 382 915 z m 581 75 b 342 203 479 75 397 125 l 860 713 b 904 492 889 647 904 571 b 581 75 904 264 788 75 z "},"Ù":{"ha":1017,"x_min":null,"x_max":null,"o":"m 551 1049 b 585 1071 571 1049 585 1058 b 572 1106 585 1081 579 1092 b 464 1276 532 1176 497 1229 b 386 1308 447 1300 432 1308 b 313 1279 328 1308 313 1301 b 360 1208 313 1260 328 1242 b 490 1078 389 1182 450 1117 b 551 1049 514 1054 533 1049 z m 510 -28 b 918 303 736 -26 918 61 b 913 385 918 324 915 351 l 876 790 b 872 849 875 813 872 835 b 926 915 872 893 901 906 b 965 957 946 924 965 932 b 924 990 965 974 953 990 b 814 986 889 990 846 986 b 694 990 779 986 731 990 b 649 957 664 990 649 974 b 696 910 649 926 671 919 b 763 836 725 899 758 888 l 801 390 b 806 314 803 364 806 333 b 543 90 806 150 694 90 b 285 317 382 92 285 163 b 289 393 285 336 288 368 l 325 836 b 386 914 329 889 360 901 b 425 957 406 922 425 931 b 382 990 425 974 413 990 b 233 986 349 990 299 986 b 94 990 168 986 128 990 b 53 957 64 990 53 974 b 90 915 53 932 71 924 b 142 849 114 906 142 893 b 138 790 142 835 139 813 l 104 394 b 99 308 101 365 99 333 b 510 -28 99 61 283 -28 z "},"Ú":{"ha":1017,"x_min":null,"x_max":null,"o":"m 485 1049 b 544 1078 503 1049 521 1054 b 675 1208 585 1115 644 1179 b 722 1279 708 1242 722 1260 b 649 1308 722 1301 707 1308 b 571 1276 603 1308 588 1300 b 464 1106 539 1228 506 1176 b 451 1071 456 1092 451 1081 b 485 1049 451 1058 464 1049 z m 510 -28 b 918 303 736 -26 918 61 b 913 385 918 324 915 351 l 876 790 b 872 849 875 813 872 835 b 926 915 872 893 901 906 b 965 957 946 924 965 932 b 924 990 965 974 953 990 b 814 986 889 990 846 986 b 694 990 779 986 731 990 b 649 957 664 990 649 974 b 696 910 649 926 671 919 b 763 836 725 899 758 888 l 801 390 b 806 314 803 364 806 333 b 543 90 806 150 694 90 b 285 317 382 92 285 163 b 289 393 285 336 288 368 l 325 836 b 386 914 329 889 360 901 b 425 957 406 922 425 931 b 382 990 425 974 413 990 b 233 986 349 990 299 986 b 94 990 168 986 128 990 b 53 957 64 990 53 974 b 90 915 53 932 71 924 b 142 849 114 906 142 893 b 138 790 142 835 139 813 l 104 394 b 99 308 101 365 99 333 b 510 -28 99 61 283 -28 z "},"Û":{"ha":1017,"x_min":null,"x_max":null,"o":"m 354 1060 b 411 1090 371 1060 389 1067 l 528 1208 l 644 1090 b 701 1060 667 1067 685 1060 b 739 1090 724 1060 739 1076 b 722 1128 739 1101 733 1113 b 610 1275 688 1179 651 1226 b 528 1311 588 1301 574 1311 b 446 1275 483 1311 468 1301 b 333 1128 406 1226 369 1178 b 318 1090 324 1113 318 1101 b 354 1060 318 1076 332 1060 z m 924 990 b 814 986 889 990 846 986 b 694 990 779 986 731 990 b 649 957 664 990 649 974 b 696 910 649 926 671 919 b 763 836 725 899 758 888 l 801 390 b 806 314 803 364 806 333 b 543 90 806 150 694 90 b 285 317 382 92 285 163 b 289 393 285 336 288 368 l 325 836 b 386 914 329 889 360 901 b 425 957 406 922 425 931 b 382 990 425 974 413 990 b 233 986 349 990 299 986 b 94 990 168 986 128 990 b 53 957 64 990 53 974 b 90 915 53 932 71 924 b 142 849 114 906 142 893 b 138 790 142 835 139 813 l 104 394 b 99 308 101 365 99 333 b 510 -28 99 61 283 -28 b 918 303 736 -26 918 61 b 913 385 918 324 915 351 l 876 790 b 872 849 875 813 872 835 b 926 915 872 893 901 906 b 965 957 946 924 965 932 b 924 990 965 974 953 990 z "},"Ü":{"ha":1017,"x_min":null,"x_max":null,"o":"m 392 1078 b 489 1167 449 1078 489 1114 b 393 1254 489 1219 449 1254 b 293 1164 333 1254 293 1214 b 392 1078 293 1113 333 1078 z m 658 1078 b 756 1167 715 1078 756 1114 b 660 1253 756 1219 715 1253 b 561 1164 601 1253 561 1214 b 658 1078 561 1113 601 1078 z m 510 -28 b 918 303 736 -26 918 61 b 913 385 918 324 915 351 l 876 790 b 872 849 875 813 872 835 b 926 915 872 893 901 906 b 965 957 946 924 965 932 b 924 990 965 974 953 990 b 814 986 889 990 846 986 b 694 990 779 986 731 990 b 649 957 664 990 649 974 b 696 910 649 926 671 919 b 763 836 725 899 758 888 l 801 390 b 806 314 803 364 806 333 b 543 90 806 150 694 90 b 285 317 382 92 285 163 b 289 393 285 336 288 368 l 325 836 b 386 914 329 889 360 901 b 425 957 406 922 425 931 b 382 990 425 974 413 990 b 233 986 349 990 299 986 b 94 990 168 986 128 990 b 53 957 64 990 53 974 b 90 915 53 932 71 924 b 142 849 114 906 142 893 b 138 790 142 835 139 813 l 104 394 b 99 308 101 365 99 333 b 510 -28 99 61 283 -28 z "},"Ý":{"ha":964,"x_min":null,"x_max":null,"o":"m 464 1049 b 524 1078 482 1049 500 1054 b 654 1208 564 1115 624 1179 b 701 1279 688 1242 701 1260 b 628 1308 701 1301 686 1308 b 550 1276 582 1308 567 1300 b 443 1106 518 1228 485 1176 b 431 1071 435 1092 431 1081 b 464 1049 431 1058 443 1049 z m 928 989 b 818 985 897 989 856 985 b 706 989 782 985 742 989 b 657 954 675 989 657 978 b 743 867 657 907 743 921 b 721 808 743 851 735 833 l 524 478 l 329 814 b 307 871 314 843 307 858 b 386 954 307 924 386 906 b 338 989 386 978 368 989 b 182 985 300 989 242 985 b 44 989 118 985 72 989 b 7 957 21 989 7 976 b 106 850 7 913 63 921 l 389 375 l 389 150 b 279 31 389 56 279 92 b 321 -4 279 13 290 -4 b 482 0 361 -4 411 0 b 643 -4 553 0 601 -4 b 685 31 672 -4 685 13 b 574 150 685 92 574 56 l 574 375 l 857 849 b 963 958 904 925 963 910 b 928 989 963 976 949 989 z "},"Þ":{"ha":971,"x_min":null,"x_max":null,"o":"m 496 842 b 331 835 426 842 374 839 l 331 839 b 442 957 331 935 442 894 b 400 990 442 974 431 990 b 238 986 363 990 310 986 b 100 990 172 986 133 990 b 58 957 69 990 58 974 b 147 836 58 900 147 932 l 147 150 b 58 29 147 54 58 86 b 100 -4 58 13 69 -4 b 238 0 133 -4 172 0 b 400 -4 310 0 363 -4 b 442 29 431 -4 442 13 b 331 150 442 92 331 54 l 331 172 b 458 168 369 169 413 168 b 928 506 794 168 928 311 b 496 842 928 715 763 842 z m 467 261 b 331 318 375 261 331 268 l 331 682 b 468 749 331 736 368 749 b 725 501 619 749 725 669 b 467 261 725 354 631 261 z "},"ß":{"ha":960,"x_min":null,"x_max":null,"o":"m 492 -29 b 549 7 521 -29 524 7 b 683 -21 569 7 608 -21 b 939 203 815 -21 939 64 b 699 453 939 349 821 403 b 574 556 614 486 574 508 b 746 839 574 657 743 676 b 454 1051 750 979 606 1051 b 119 688 247 1051 119 928 l 121 156 b 36 29 121 49 36 83 b 76 -4 36 13 47 -4 b 207 0 107 -4 146 0 b 325 -4 263 0 294 -4 b 363 29 351 -4 363 14 b 288 156 363 83 288 49 l 288 714 b 460 954 288 868 349 954 b 589 835 529 954 590 915 b 408 501 585 693 408 663 b 617 294 408 381 510 339 b 785 158 708 258 785 231 b 681 63 785 106 740 63 b 453 217 592 63 518 129 b 410 249 438 236 425 249 b 379 213 394 249 379 235 b 410 119 379 193 390 169 l 446 25 b 492 -29 456 1 468 -29 z "},"à":{"ha":800,"x_min":null,"x_max":null,"o":"m 356 819 b 417 790 379 796 399 790 b 450 813 436 790 450 800 b 438 847 450 822 444 833 b 329 1018 397 918 363 971 b 251 1050 313 1042 297 1050 b 178 1021 193 1050 178 1043 b 225 950 178 1001 193 983 b 356 819 254 924 315 858 z m 793 100 b 674 225 719 114 688 126 l 642 456 b 378 706 621 600 554 706 b 118 597 267 706 168 657 b 85 540 101 579 85 560 b 117 507 85 519 101 507 b 161 525 129 507 143 514 b 322 592 207 563 261 592 b 482 410 408 592 463 546 l 485 393 b 322 417 438 407 385 417 b 35 194 140 417 35 318 b 278 -15 35 71 129 -15 b 532 89 389 -15 479 32 b 671 -11 558 22 611 -11 b 817 75 758 -11 817 43 b 793 100 817 89 808 97 z m 343 86 b 210 211 264 86 210 136 b 369 333 210 289 268 333 b 496 311 414 333 456 326 l 514 171 b 343 86 479 126 413 86 z "},"á":{"ha":800,"x_min":null,"x_max":null,"o":"m 350 790 b 410 819 368 790 386 796 b 540 950 450 857 510 921 b 588 1021 574 983 588 1001 b 514 1050 588 1043 572 1050 b 436 1018 468 1050 453 1042 b 329 847 404 969 371 918 b 317 813 321 833 317 822 b 350 790 317 800 329 790 z m 793 100 b 674 225 719 114 688 126 l 642 456 b 378 706 621 600 554 706 b 118 597 267 706 168 657 b 85 540 101 579 85 560 b 117 507 85 519 101 507 b 161 525 129 507 143 514 b 322 592 207 563 261 592 b 482 410 408 592 463 546 l 485 393 b 322 417 438 407 385 417 b 35 194 140 417 35 318 b 278 -15 35 71 129 -15 b 532 89 389 -15 479 32 b 671 -11 558 22 611 -11 b 817 75 758 -11 817 43 b 793 100 817 89 808 97 z m 343 86 b 210 211 264 86 210 136 b 369 333 210 289 268 333 b 496 311 414 333 456 326 l 514 171 b 343 86 479 126 413 86 z "},"â":{"ha":800,"x_min":null,"x_max":null,"o":"m 219 801 b 276 832 236 801 254 808 l 393 950 l 510 832 b 567 801 532 808 550 801 b 604 832 589 801 604 818 b 588 869 604 843 599 854 b 475 1017 553 921 517 968 b 393 1053 453 1043 439 1053 b 311 1017 349 1053 333 1043 b 199 869 271 968 235 919 b 183 832 189 854 183 843 b 219 801 183 818 197 801 z m 793 100 b 674 225 719 114 688 126 l 642 456 b 378 706 621 600 554 706 b 118 597 267 706 168 657 b 85 540 101 579 85 560 b 117 507 85 519 101 507 b 161 525 129 507 143 514 b 322 592 207 563 261 592 b 482 410 408 592 463 546 l 485 393 b 322 417 438 407 385 417 b 35 194 140 417 35 318 b 278 -15 35 71 129 -15 b 532 89 389 -15 479 32 b 671 -11 558 22 611 -11 b 817 75 758 -11 817 43 b 793 100 817 89 808 97 z m 343 86 b 210 211 264 86 210 136 b 369 333 210 289 268 333 b 496 311 414 333 456 326 l 514 171 b 343 86 479 126 413 86 z "},"ã":{"ha":800,"x_min":null,"x_max":null,"o":"m 208 831 b 256 876 232 831 240 850 b 301 922 271 904 286 922 b 479 818 335 922 399 818 b 599 928 536 818 578 869 b 608 975 606 949 608 965 b 575 1010 608 997 596 1010 b 528 964 550 1010 543 990 b 482 917 511 932 497 917 b 303 1022 442 917 383 1022 b 185 911 247 1022 204 968 b 175 865 178 890 175 874 b 208 831 175 843 188 831 z m 793 100 b 674 225 719 114 688 126 l 642 456 b 378 706 621 600 554 706 b 118 597 267 706 168 657 b 85 540 101 579 85 560 b 117 507 85 519 101 507 b 161 525 129 507 143 514 b 322 592 207 563 261 592 b 482 410 408 592 463 546 l 485 393 b 322 417 438 407 385 417 b 35 194 140 417 35 318 b 278 -15 35 71 129 -15 b 532 89 389 -15 479 32 b 671 -11 558 22 611 -11 b 817 75 758 -11 817 43 b 793 100 817 89 808 97 z m 343 86 b 210 211 264 86 210 136 b 369 333 210 289 268 333 b 496 311 414 333 456 326 l 514 171 b 343 86 479 126 413 86 z "},"ä":{"ha":800,"x_min":null,"x_max":null,"o":"m 257 819 b 354 908 314 819 354 856 b 258 996 354 961 314 996 b 158 906 199 996 158 956 b 257 819 158 854 199 819 z m 524 819 b 621 908 581 819 621 856 b 525 994 621 961 581 994 b 426 906 467 994 426 956 b 524 819 426 854 467 819 z m 793 100 b 674 225 719 114 688 126 l 642 456 b 378 706 621 600 554 706 b 118 597 267 706 168 657 b 85 540 101 579 85 560 b 117 507 85 519 101 507 b 161 525 129 507 143 514 b 322 592 207 563 261 592 b 482 410 408 592 463 546 l 485 393 b 322 417 438 407 385 417 b 35 194 140 417 35 318 b 278 -15 35 71 129 -15 b 532 89 389 -15 479 32 b 671 -11 558 22 611 -11 b 817 75 758 -11 817 43 b 793 100 817 89 808 97 z m 343 86 b 210 211 264 86 210 136 b 369 333 210 289 268 333 b 496 311 414 333 456 326 l 514 171 b 343 86 479 126 413 86 z "},"å":{"ha":800,"x_min":null,"x_max":null,"o":"m 389 778 b 557 928 494 778 557 832 b 397 1064 557 1015 497 1064 b 228 922 292 1064 228 1013 b 389 778 228 829 285 778 z m 393 1006 b 461 924 435 1006 461 978 b 393 839 461 865 438 839 b 322 918 350 839 322 867 b 393 1006 322 978 349 1006 z m 793 100 b 674 225 719 114 688 126 l 642 456 b 378 706 621 600 554 706 b 118 597 267 706 168 657 b 85 540 101 579 85 560 b 117 507 85 519 101 507 b 161 525 129 507 143 514 b 322 592 207 563 261 592 b 482 410 408 592 463 546 l 485 393 b 322 417 438 407 385 417 b 35 194 140 417 35 318 b 278 -15 35 71 129 -15 b 532 89 389 -15 479 32 b 671 -11 558 22 611 -11 b 817 75 758 -11 817 43 b 793 100 817 89 808 97 z m 343 86 b 210 211 264 86 210 136 b 369 333 210 289 268 333 b 496 311 414 333 456 326 l 514 171 b 343 86 479 126 413 86 z "},"æ":{"ha":1204,"x_min":null,"x_max":null,"o":"m 1139 190 b 1099 168 1126 190 1115 183 b 918 89 1051 121 990 89 b 697 263 817 89 736 163 l 1118 393 b 1151 444 1142 401 1151 411 b 860 715 1151 579 1035 715 b 606 603 761 715 669 674 b 385 708 565 667 499 708 b 117 600 267 708 169 660 b 85 543 100 582 85 564 b 117 510 85 522 101 510 b 160 529 129 510 143 518 b 325 596 207 567 261 596 b 497 413 419 596 478 549 l 500 393 b 325 417 451 407 396 417 b 35 194 140 417 35 318 b 281 -15 35 71 131 -15 b 576 101 417 -15 522 40 b 849 -26 639 19 738 -26 b 1156 119 988 -26 1111 49 b 1168 156 1164 133 1168 146 b 1139 190 1168 172 1156 190 z m 832 622 b 976 474 917 622 976 540 b 944 433 976 447 965 440 l 675 344 b 671 404 672 364 671 385 b 832 622 671 536 740 622 z m 349 86 b 210 211 265 86 210 136 b 375 333 210 289 268 333 b 501 315 421 333 464 328 b 539 161 506 257 518 206 b 349 86 500 122 425 86 z "},"ç":{"ha":733,"x_min":null,"x_max":null,"o":"m 681 197 b 647 178 669 197 661 190 b 468 93 603 128 543 93 b 218 397 335 93 218 214 b 383 633 218 540 286 633 b 529 450 481 633 511 543 b 567 406 533 424 546 406 b 610 429 581 406 592 413 b 683 558 665 483 683 528 b 410 714 683 622 561 714 b 43 333 213 714 43 563 b 332 -21 43 131 168 4 l 307 -111 b 350 -151 311 -126 336 -147 b 411 -136 371 -143 392 -136 b 468 -175 449 -136 468 -151 b 404 -217 468 -200 443 -217 b 324 -199 375 -217 346 -207 b 290 -190 311 -194 299 -190 b 265 -218 275 -190 265 -203 b 285 -249 265 -231 271 -239 b 410 -278 314 -265 361 -278 b 563 -167 499 -278 563 -232 b 433 -64 563 -107 507 -64 b 389 -69 418 -64 403 -65 l 400 -26 b 697 125 549 -25 658 51 b 710 164 704 139 710 153 b 681 197 710 182 699 197 z "},"è":{"ha":764,"x_min":null,"x_max":null,"o":"m 361 819 b 422 790 385 796 404 790 b 456 813 442 790 456 800 b 443 847 456 822 450 833 b 335 1018 403 918 368 971 b 257 1050 318 1042 303 1050 b 183 1021 199 1050 183 1043 b 231 950 183 1001 199 983 b 361 819 260 924 321 858 z m 703 190 b 663 167 690 190 681 183 b 475 89 614 121 550 89 b 240 263 367 89 282 163 l 672 393 b 707 443 696 400 707 408 b 406 715 707 579 589 715 b 42 340 211 715 42 565 b 404 -26 42 111 201 -26 b 721 121 549 -26 672 49 b 735 156 731 135 735 146 b 703 190 735 172 722 190 z m 382 622 b 531 474 469 622 531 540 b 499 433 531 449 522 440 l 217 344 b 213 404 214 364 213 383 b 382 622 213 538 285 622 z "},"é":{"ha":764,"x_min":null,"x_max":null,"o":"m 356 790 b 415 819 374 790 392 796 b 546 950 456 857 515 921 b 593 1021 579 983 593 1001 b 519 1050 593 1043 578 1050 b 442 1018 474 1050 458 1042 b 335 847 410 969 376 918 b 322 813 326 833 322 822 b 356 790 322 800 335 790 z m 703 190 b 663 167 690 190 681 183 b 475 89 614 121 550 89 b 240 263 367 89 282 163 l 672 393 b 707 443 696 400 707 408 b 406 715 707 579 589 715 b 42 340 211 715 42 565 b 404 -26 42 111 201 -26 b 721 121 549 -26 672 49 b 735 156 731 135 735 146 b 703 190 735 172 722 190 z m 382 622 b 531 474 469 622 531 540 b 499 433 531 449 522 440 l 217 344 b 213 404 214 364 213 383 b 382 622 213 538 285 622 z "},"ê":{"ha":764,"x_min":null,"x_max":null,"o":"m 225 801 b 282 832 242 801 260 808 l 399 950 l 515 832 b 572 801 538 808 556 801 b 610 832 594 801 610 818 b 593 869 610 843 604 854 b 481 1017 558 921 522 968 b 399 1053 458 1043 444 1053 b 317 1017 354 1053 339 1043 b 204 869 276 968 240 919 b 189 832 194 854 189 843 b 225 801 189 818 203 801 z m 703 190 b 663 167 690 190 681 183 b 475 89 614 121 550 89 b 240 263 367 89 282 163 l 672 393 b 707 443 696 400 707 408 b 406 715 707 579 589 715 b 42 340 211 715 42 565 b 404 -26 42 111 201 -26 b 721 121 549 -26 672 49 b 735 156 731 135 735 146 b 703 190 735 172 722 190 z m 382 622 b 531 474 469 622 531 540 b 499 433 531 449 522 440 l 217 344 b 213 404 214 364 213 383 b 382 622 213 538 285 622 z "},"ë":{"ha":764,"x_min":null,"x_max":null,"o":"m 263 819 b 360 908 319 819 360 856 b 264 996 360 961 319 996 b 164 906 204 996 164 956 b 263 819 164 854 204 819 z m 529 819 b 626 908 586 819 626 856 b 531 994 626 961 586 994 b 432 906 472 994 432 956 b 529 819 432 854 472 819 z m 703 190 b 663 167 690 190 681 183 b 475 89 614 121 550 89 b 240 263 367 89 282 163 l 672 393 b 707 443 696 400 707 408 b 406 715 707 579 589 715 b 42 340 211 715 42 565 b 404 -26 42 111 201 -26 b 721 121 549 -26 672 49 b 735 156 731 135 735 146 b 703 190 735 172 722 190 z m 382 622 b 531 474 469 622 531 540 b 499 433 531 449 522 440 l 217 344 b 213 404 214 364 213 383 b 382 622 213 538 285 622 z "},"ì":{"ha":422,"x_min":null,"x_max":null,"o":"m 232 790 b 265 813 251 790 265 800 b 253 847 265 822 260 833 b 144 1018 213 918 178 971 b 67 1050 128 1042 113 1050 b -7 1021 8 1050 -7 1043 b 40 950 -7 1001 8 983 b 171 819 69 924 131 858 b 232 790 194 796 214 790 z m 90 -4 b 219 0 122 -4 160 0 b 350 -4 279 0 318 -4 b 389 29 376 -4 389 14 b 303 156 389 83 303 49 l 303 642 b 265 699 303 676 293 699 b 156 657 253 699 236 694 b 40 575 69 618 40 600 b 136 472 40 517 136 560 l 136 156 b 51 29 136 49 51 83 b 90 -4 51 13 63 -4 z "},"í":{"ha":422,"x_min":null,"x_max":null,"o":"m 165 790 b 225 819 183 790 201 796 b 356 950 265 857 325 921 b 403 1021 389 983 403 1001 b 329 1050 403 1043 388 1050 b 251 1018 283 1050 268 1042 b 144 847 219 969 186 918 b 132 813 136 833 132 822 b 165 790 132 800 144 790 z m 90 -4 b 219 0 122 -4 160 0 b 350 -4 279 0 318 -4 b 389 29 376 -4 389 14 b 303 156 389 83 303 49 l 303 642 b 265 699 303 676 293 699 b 156 657 253 699 236 694 b 40 575 69 618 40 600 b 136 472 40 517 136 560 l 136 156 b 51 29 136 49 51 83 b 90 -4 51 13 63 -4 z "},"î":{"ha":422,"x_min":null,"x_max":null,"o":"m 403 869 b 290 1017 368 921 332 968 b 208 1053 268 1043 254 1053 b 126 1017 164 1053 149 1043 b 14 869 86 968 50 919 b -1 832 4 854 -1 843 b 35 801 -1 818 13 801 b 92 832 51 801 69 808 l 208 950 l 325 832 b 382 801 347 808 365 801 b 419 832 404 801 419 818 b 403 869 419 843 414 854 z m 303 156 l 303 642 b 265 699 303 676 293 699 b 156 657 253 699 236 694 b 40 575 69 618 40 600 b 136 472 40 517 136 560 l 136 156 b 51 29 136 49 51 83 b 90 -4 51 13 63 -4 b 219 0 122 -4 160 0 b 350 -4 279 0 318 -4 b 389 29 376 -4 389 14 b 303 156 389 83 303 49 z "},"ï":{"ha":422,"x_min":null,"x_max":null,"o":"m 72 819 b 169 908 129 819 169 856 b 74 996 169 961 129 996 b -26 906 14 996 -26 956 b 72 819 -26 854 14 819 z m 339 819 b 436 908 396 819 436 856 b 340 994 436 961 396 994 b 242 906 282 994 242 956 b 339 819 242 854 282 819 z m 90 -4 b 219 0 122 -4 160 0 b 350 -4 279 0 318 -4 b 389 29 376 -4 389 14 b 303 156 389 83 303 49 l 303 642 b 265 699 303 676 293 699 b 156 657 253 699 236 694 b 40 575 69 618 40 600 b 136 472 40 517 136 560 l 136 156 b 51 29 136 49 51 83 b 90 -4 51 13 63 -4 z "},"ð":{"ha":835,"x_min":null,"x_max":null,"o":"m 564 897 l 678 954 b 708 992 700 965 708 976 b 671 1036 708 1019 689 1036 b 640 1026 660 1036 651 1032 l 493 953 b 404 1004 464 974 433 990 b 251 1044 351 1028 293 1044 b 200 1006 221 1044 200 1031 b 300 919 200 978 226 963 b 356 885 319 908 339 897 l 246 831 b 217 792 225 819 217 807 b 253 749 217 764 235 749 b 285 757 264 749 272 751 l 425 828 b 535 675 469 785 507 733 b 388 708 494 696 444 708 b 43 338 186 708 43 558 b 400 -19 43 117 200 -19 b 785 394 601 -19 785 118 b 564 897 785 613 686 785 z m 431 82 b 219 378 328 82 219 196 b 400 615 219 517 288 615 b 614 328 500 615 614 506 b 431 82 614 150 518 82 z "},"ñ":{"ha":885,"x_min":null,"x_max":null,"o":"m 253 831 b 300 876 276 831 285 850 b 346 922 315 904 331 922 b 524 818 379 922 443 818 b 643 928 581 818 622 869 b 653 975 650 949 653 965 b 619 1010 653 997 640 1010 b 572 964 594 1010 588 990 b 526 917 556 932 542 917 b 347 1022 486 917 428 1022 b 229 911 292 1022 249 968 b 219 865 222 890 219 874 b 253 831 219 843 232 831 z m 789 171 l 753 431 b 529 704 736 561 683 704 b 303 568 422 704 347 640 l 303 642 b 265 699 303 676 293 699 b 156 657 253 699 236 694 b 40 575 69 618 40 600 b 136 472 40 517 136 560 l 136 156 b 51 29 136 49 51 83 b 90 -4 51 13 63 -4 b 219 0 122 -4 160 0 b 350 -4 279 0 318 -4 b 389 29 376 -4 389 14 b 303 156 389 83 303 49 l 303 375 b 454 572 303 515 382 572 b 589 394 547 572 576 478 l 618 188 b 624 135 621 167 624 147 b 536 31 624 54 536 81 b 582 -4 536 11 551 -4 b 713 0 619 -4 646 0 b 842 -4 776 0 806 -4 b 885 29 867 -4 885 8 b 789 171 885 85 806 43 z "},"ò":{"ha":865,"x_min":null,"x_max":null,"o":"m 454 790 b 488 813 474 790 488 800 b 475 847 488 822 482 833 b 367 1018 435 918 400 971 b 289 1050 350 1042 335 1050 b 215 1021 231 1050 215 1043 b 263 950 215 1001 231 983 b 393 819 292 924 353 858 b 454 790 417 796 436 790 z m 422 -26 b 822 350 650 -26 822 132 b 443 715 822 561 672 715 b 42 338 211 715 42 554 b 422 -26 42 128 192 -26 z m 456 64 b 222 390 314 64 222 235 b 410 625 222 531 292 625 b 643 297 550 625 643 454 b 456 64 643 158 574 64 z "},"ó":{"ha":865,"x_min":null,"x_max":null,"o":"m 388 790 b 447 819 406 790 424 796 b 578 950 488 857 547 921 b 625 1021 611 983 625 1001 b 551 1050 625 1043 610 1050 b 474 1018 506 1050 490 1042 b 367 847 442 969 408 918 b 354 813 358 833 354 822 b 388 790 354 800 367 790 z m 422 -26 b 822 350 650 -26 822 132 b 443 715 822 561 672 715 b 42 338 211 715 42 554 b 422 -26 42 128 192 -26 z m 456 64 b 222 390 314 64 222 235 b 410 625 222 531 292 625 b 643 297 550 625 643 454 b 456 64 643 158 574 64 z "},"ô":{"ha":865,"x_min":null,"x_max":null,"o":"m 257 801 b 314 832 274 801 292 808 l 431 950 l 547 832 b 604 801 569 808 588 801 b 642 832 626 801 642 818 b 625 869 642 843 636 854 b 513 1017 590 921 554 968 b 431 1053 490 1043 476 1053 b 349 1017 386 1053 371 1043 b 236 869 308 968 272 919 b 221 832 226 854 221 843 b 257 801 221 818 235 801 z m 443 715 b 42 338 211 715 42 554 b 422 -26 42 128 192 -26 b 822 350 650 -26 822 132 b 443 715 822 561 672 715 z m 456 64 b 222 390 314 64 222 235 b 410 625 222 531 292 625 b 643 297 550 625 643 454 b 456 64 643 158 574 64 z "},"õ":{"ha":865,"x_min":null,"x_max":null,"o":"m 517 818 b 636 928 574 818 615 869 b 646 975 643 949 646 965 b 613 1010 646 997 633 1010 b 565 964 588 1010 581 990 b 519 917 549 932 535 917 b 340 1022 479 917 421 1022 b 222 911 285 1022 242 968 b 213 865 215 890 213 874 b 246 831 213 843 225 831 b 293 876 269 831 278 850 b 339 922 308 904 324 922 b 517 818 372 922 436 818 z m 422 -26 b 822 350 650 -26 822 132 b 443 715 822 561 672 715 b 42 338 211 715 42 554 b 422 -26 42 128 192 -26 z m 456 64 b 222 390 314 64 222 235 b 410 625 222 531 292 625 b 643 297 550 625 643 454 b 456 64 643 158 574 64 z "},"ö":{"ha":865,"x_min":null,"x_max":null,"o":"m 294 819 b 392 908 351 819 392 856 b 296 996 392 961 351 996 b 196 906 236 996 196 956 b 294 819 196 854 236 819 z m 561 819 b 658 908 618 819 658 856 b 563 994 658 961 618 994 b 464 906 504 994 464 956 b 561 819 464 854 504 819 z m 422 -26 b 822 350 650 -26 822 132 b 443 715 822 561 672 715 b 42 338 211 715 42 554 b 422 -26 42 128 192 -26 z m 456 64 b 222 390 314 64 222 235 b 410 625 222 531 292 625 b 643 297 550 625 643 454 b 456 64 643 158 574 64 z "},"÷":{"ha":796,"x_min":null,"x_max":null,"o":"m 399 599 b 482 674 447 599 482 632 b 399 749 482 717 447 749 b 314 674 349 749 314 717 b 399 599 314 632 349 599 z m 107 367 l 690 367 b 726 424 715 367 726 386 b 690 479 726 458 715 479 l 107 479 b 69 424 81 479 69 458 b 107 367 69 386 81 367 z m 399 97 b 482 172 447 97 482 129 b 399 246 482 214 447 246 b 314 172 349 246 314 214 b 399 97 314 129 349 97 z "},"ø":{"ha":889,"x_min":null,"x_max":null,"o":"m 757 583 l 807 631 b 828 665 821 643 828 654 b 788 708 828 686 804 708 b 751 690 776 708 764 703 l 699 640 b 456 715 636 688 553 715 b 56 338 224 715 56 554 b 132 106 56 247 83 168 l 83 60 b 63 24 69 47 63 35 b 103 -21 63 4 85 -21 b 139 -1 114 -21 125 -12 l 192 49 b 435 -26 254 1 338 -26 b 835 350 664 -26 835 132 b 757 583 835 442 807 522 z m 422 625 b 585 531 489 625 544 588 l 267 229 b 235 390 246 279 235 336 b 422 625 235 531 304 625 z m 468 64 b 306 158 401 64 346 101 l 622 460 b 656 297 644 410 656 353 b 468 64 656 158 586 64 z "},"ù":{"ha":896,"x_min":null,"x_max":null,"o":"m 399 819 b 460 790 422 796 442 790 b 493 813 479 790 493 800 b 481 847 493 822 488 833 b 372 1018 440 918 406 971 b 294 1050 356 1042 340 1050 b 221 1021 236 1050 221 1043 b 268 950 221 1001 236 983 b 399 819 297 924 358 858 z m 764 197 l 764 640 b 728 699 764 668 760 699 b 614 668 717 699 692 694 b 478 589 508 632 478 618 b 597 479 478 533 597 565 l 597 313 b 426 113 597 174 511 113 b 290 290 325 113 290 178 l 290 640 b 253 699 290 668 286 699 b 140 667 240 699 222 696 b 17 589 46 633 17 618 b 124 479 17 536 124 565 l 124 251 b 360 -17 124 83 208 -17 b 597 118 476 -17 553 44 l 597 40 b 633 -11 597 15 606 -11 b 743 10 649 -11 674 -7 b 875 78 846 32 875 46 b 764 197 875 126 764 111 z "},"ú":{"ha":896,"x_min":null,"x_max":null,"o":"m 393 790 b 453 819 411 790 429 796 b 583 950 493 857 553 921 b 631 1021 617 983 631 1001 b 557 1050 631 1043 615 1050 b 479 1018 511 1050 496 1042 b 372 847 447 969 414 918 b 360 813 364 833 360 822 b 393 790 360 800 372 790 z m 764 197 l 764 640 b 728 699 764 668 760 699 b 614 668 717 699 692 694 b 478 589 508 632 478 618 b 597 479 478 533 597 565 l 597 313 b 426 113 597 174 511 113 b 290 290 325 113 290 178 l 290 640 b 253 699 290 668 286 699 b 140 667 240 699 222 696 b 17 589 46 633 17 618 b 124 479 17 536 124 565 l 124 251 b 360 -17 124 83 208 -17 b 597 118 476 -17 553 44 l 597 40 b 633 -11 597 15 606 -11 b 743 10 649 -11 674 -7 b 875 78 846 32 875 46 b 764 197 875 126 764 111 z "},"û":{"ha":896,"x_min":null,"x_max":null,"o":"m 263 801 b 319 832 279 801 297 808 l 436 950 l 553 832 b 610 801 575 808 593 801 b 647 832 632 801 647 818 b 631 869 647 843 642 854 b 518 1017 596 921 560 968 b 436 1053 496 1043 482 1053 b 354 1017 392 1053 376 1043 b 242 869 314 968 278 919 b 226 832 232 854 226 843 b 263 801 226 818 240 801 z m 764 197 l 764 640 b 728 699 764 668 760 699 b 614 668 717 699 692 694 b 478 589 508 632 478 618 b 597 479 478 533 597 565 l 597 313 b 426 113 597 174 511 113 b 290 290 325 113 290 178 l 290 640 b 253 699 290 668 286 699 b 140 667 240 699 222 696 b 17 589 46 633 17 618 b 124 479 17 536 124 565 l 124 251 b 360 -17 124 83 208 -17 b 597 118 476 -17 553 44 l 597 40 b 633 -11 597 15 606 -11 b 743 10 649 -11 674 -7 b 875 78 846 32 875 46 b 764 197 875 126 764 111 z "},"ü":{"ha":896,"x_min":null,"x_max":null,"o":"m 300 819 b 397 908 357 819 397 856 b 301 996 397 961 357 996 b 201 906 242 996 201 956 b 300 819 201 854 242 819 z m 567 819 b 664 908 624 819 664 856 b 568 994 664 961 624 994 b 469 906 510 994 469 956 b 567 819 469 854 510 819 z m 764 197 l 764 640 b 728 699 764 668 760 699 b 614 668 717 699 692 694 b 478 589 508 632 478 618 b 597 479 478 533 597 565 l 597 313 b 426 113 597 174 511 113 b 290 290 325 113 290 178 l 290 640 b 253 699 290 668 286 699 b 140 667 240 699 222 696 b 17 589 46 633 17 618 b 124 479 17 536 124 565 l 124 251 b 360 -17 124 83 208 -17 b 597 118 476 -17 553 44 l 597 40 b 633 -11 597 15 606 -11 b 743 10 649 -11 674 -7 b 875 78 846 32 875 46 b 764 197 875 126 764 111 z "},"ý":{"ha":813,"x_min":null,"x_max":null,"o":"m 381 790 b 440 819 399 790 417 796 b 571 950 481 857 540 921 b 618 1021 604 983 618 1001 b 544 1050 618 1043 603 1050 b 467 1018 499 1050 483 1042 b 360 847 435 969 401 918 b 347 813 351 833 347 822 b 381 790 347 800 360 790 z m 771 693 b 667 689 739 693 704 689 b 565 693 631 689 594 693 b 522 660 538 693 522 682 b 600 568 522 611 600 624 b 576 482 600 546 592 522 l 447 167 l 310 482 b 288 564 294 519 288 547 b 363 660 288 628 363 611 b 318 693 363 682 346 693 b 182 689 285 693 243 689 b 38 693 114 689 74 693 b -1 661 15 693 -1 682 b 110 532 -1 615 64 629 l 360 -6 l 357 -11 b 238 -146 324 -93 285 -146 b 117 -47 197 -146 164 -115 b 79 -22 104 -29 94 -22 b 46 -67 60 -22 46 -42 b 96 -235 46 -111 72 -206 b 200 -267 110 -254 153 -267 b 453 -49 311 -267 394 -187 l 700 533 b 810 661 740 629 810 615 b 771 693 810 682 793 693 z "},"þ":{"ha":874,"x_min":null,"x_max":null,"o":"m 519 708 b 264 571 400 708 315 649 l 264 997 b 228 1056 264 1032 256 1056 b 118 1014 215 1056 199 1051 b 3 931 32 974 3 957 b 97 829 3 872 97 915 l 97 -93 b 14 -219 97 -199 14 -165 b 54 -253 14 -235 26 -253 b 181 -249 85 -253 122 -249 b 325 -253 246 -249 292 -253 b 364 -219 351 -253 364 -235 b 264 -93 364 -161 264 -199 l 264 53 b 483 -19 310 14 374 -19 b 831 350 675 -19 831 125 b 519 708 831 567 697 708 z m 465 69 b 264 293 347 69 264 167 l 264 376 b 446 589 264 508 351 589 b 653 307 565 589 653 472 b 465 69 653 150 571 69 z "},"ÿ":{"ha":813,"x_min":null,"x_max":null,"o":"m 288 819 b 385 908 344 819 385 856 b 289 996 385 961 344 996 b 189 906 229 996 189 956 b 288 819 189 854 229 819 z m 554 819 b 651 908 611 819 651 856 b 556 994 651 961 611 994 b 457 906 497 994 457 956 b 554 819 457 854 497 819 z m 771 693 b 667 689 739 693 704 689 b 565 693 631 689 594 693 b 522 660 538 693 522 682 b 600 568 522 611 600 624 b 576 482 600 546 592 522 l 447 167 l 310 482 b 288 564 294 519 288 547 b 363 660 288 628 363 611 b 318 693 363 682 346 693 b 182 689 285 693 243 689 b 38 693 114 689 74 693 b -1 661 15 693 -1 682 b 110 532 -1 615 64 629 l 360 -6 l 357 -11 b 238 -146 324 -93 285 -146 b 117 -47 197 -146 164 -115 b 79 -22 104 -29 94 -22 b 46 -67 60 -22 46 -42 b 96 -235 46 -111 72 -206 b 200 -267 110 -254 153 -267 b 453 -49 311 -267 394 -187 l 700 533 b 810 661 740 629 810 615 b 771 693 810 682 793 693 z "},"Ā":{"ha":1024,"x_min":null,"x_max":null,"o":"m 347 1125 b 514 1128 379 1125 474 1128 b 681 1125 554 1128 644 1125 b 722 1175 710 1125 722 1142 b 681 1224 722 1207 710 1224 b 513 1222 649 1224 554 1222 l 347 1224 b 306 1175 317 1224 306 1207 b 347 1125 306 1142 317 1125 z m 925 151 l 704 714 b 631 908 678 781 650 854 b 514 996 604 985 596 996 b 393 908 431 996 419 986 b 321 714 375 854 347 781 l 99 149 b -12 26 63 57 -12 82 b 25 -4 -12 8 1 -4 b 128 0 56 -4 85 0 b 249 -4 171 0 210 -4 b 299 31 281 -4 299 7 b 203 121 299 79 203 65 b 217 169 203 133 208 147 l 272 308 b 315 340 281 332 289 340 l 628 340 b 671 308 654 340 663 332 l 728 168 b 739 119 735 147 739 132 b 646 31 739 64 646 81 b 696 -4 646 7 664 -4 b 861 0 735 -4 796 0 b 999 -4 926 0 969 -4 b 1035 26 1021 -4 1035 8 b 925 151 1035 79 963 58 z m 594 432 l 346 432 b 329 458 328 432 324 443 l 471 819 l 614 457 b 594 432 619 444 617 432 z "},"ā":{"ha":800,"x_min":null,"x_max":null,"o":"m 224 867 b 390 869 256 867 350 869 b 557 867 431 869 521 867 b 599 917 586 867 599 883 b 557 965 599 949 586 965 b 389 964 525 965 431 964 l 224 965 b 182 917 193 965 182 949 b 224 867 182 883 193 867 z m 793 100 b 674 225 719 114 688 126 l 642 456 b 378 706 621 600 554 706 b 118 597 267 706 168 657 b 85 540 101 579 85 560 b 117 507 85 519 101 507 b 161 525 129 507 143 514 b 322 592 207 563 261 592 b 482 410 408 592 463 546 l 485 393 b 322 417 438 407 385 417 b 35 194 140 417 35 318 b 278 -15 35 71 129 -15 b 532 89 389 -15 479 32 b 671 -11 558 22 611 -11 b 817 75 758 -11 817 43 b 793 100 817 89 808 97 z m 343 86 b 210 211 264 86 210 136 b 369 333 210 289 268 333 b 496 311 414 333 456 326 l 514 171 b 343 86 479 126 413 86 z "},"Ă":{"ha":1024,"x_min":null,"x_max":null,"o":"m 514 1065 b 700 1203 603 1065 665 1115 b 718 1272 713 1229 718 1256 b 681 1307 718 1294 700 1307 b 624 1253 654 1307 642 1283 b 514 1167 594 1197 561 1167 b 406 1253 468 1167 435 1197 b 349 1307 388 1283 374 1307 b 311 1272 329 1307 311 1294 b 329 1203 311 1256 317 1229 b 514 1065 364 1115 426 1065 z m 925 151 l 704 714 b 631 908 678 781 650 854 b 514 996 604 985 596 996 b 393 908 431 996 419 986 b 321 714 375 854 347 781 l 99 149 b -12 26 63 57 -12 82 b 25 -4 -12 8 1 -4 b 128 0 56 -4 85 0 b 249 -4 171 0 210 -4 b 299 31 281 -4 299 7 b 203 121 299 79 203 65 b 217 169 203 133 208 147 l 272 308 b 315 340 281 332 289 340 l 628 340 b 671 308 654 340 663 332 l 728 168 b 739 119 735 147 739 132 b 646 31 739 64 646 81 b 696 -4 646 7 664 -4 b 861 0 735 -4 796 0 b 999 -4 926 0 969 -4 b 1035 26 1021 -4 1035 8 b 925 151 1035 79 963 58 z m 594 432 l 346 432 b 329 458 328 432 324 443 l 471 819 l 614 457 b 594 432 619 444 617 432 z "},"ă":{"ha":800,"x_min":null,"x_max":null,"o":"m 390 807 b 576 944 479 807 542 857 b 594 1014 589 971 594 997 b 557 1049 594 1036 576 1049 b 500 994 531 1049 518 1025 b 390 908 471 939 438 908 b 282 994 344 908 311 939 b 225 1049 264 1025 250 1049 b 188 1014 206 1049 188 1036 b 206 944 188 997 193 971 b 390 807 240 857 303 807 z m 793 100 b 674 225 719 114 688 126 l 642 456 b 378 706 621 600 554 706 b 118 597 267 706 168 657 b 85 540 101 579 85 560 b 117 507 85 519 101 507 b 161 525 129 507 143 514 b 322 592 207 563 261 592 b 482 410 408 592 463 546 l 485 393 b 322 417 438 407 385 417 b 35 194 140 417 35 318 b 278 -15 35 71 129 -15 b 532 89 389 -15 479 32 b 671 -11 558 22 611 -11 b 817 75 758 -11 817 43 b 793 100 817 89 808 97 z m 343 86 b 210 211 264 86 210 136 b 369 333 210 289 268 333 b 496 311 414 333 456 326 l 514 171 b 343 86 479 126 413 86 z "},"Ą":{"ha":1024,"x_min":null,"x_max":null,"o":"m 925 151 l 704 714 b 631 908 678 781 650 854 b 514 996 604 985 596 996 b 393 908 431 996 419 986 b 321 714 375 854 347 781 l 99 149 b -12 26 63 57 -12 82 b 25 -4 -12 8 1 -4 b 128 0 56 -4 85 0 b 249 -4 171 0 210 -4 b 299 31 281 -4 299 7 b 203 121 299 79 203 65 b 217 169 203 133 208 147 l 272 308 b 315 340 281 332 289 340 l 628 340 b 671 308 654 340 663 332 l 728 168 b 739 119 735 147 739 132 b 646 31 739 64 646 81 b 696 -4 646 7 664 -4 b 810 -1 725 -4 765 -1 b 715 -168 749 -54 715 -110 b 822 -278 715 -236 764 -278 b 919 -246 864 -278 897 -264 b 939 -211 932 -235 939 -225 b 914 -185 939 -197 928 -185 b 893 -193 907 -185 900 -190 b 857 -203 882 -199 872 -203 b 818 -149 835 -203 818 -185 b 892 0 818 -93 846 -47 b 999 -4 940 -1 974 -4 b 1035 26 1021 -4 1035 8 b 925 151 1035 79 963 58 z m 594 432 l 346 432 b 329 458 328 432 324 443 l 471 819 l 614 457 b 594 432 619 444 617 432 z "},"ą":{"ha":800,"x_min":null,"x_max":null,"o":"m 817 75 b 793 100 817 89 808 97 b 674 225 719 114 688 126 l 642 456 b 378 706 621 600 554 706 b 118 597 267 706 168 657 b 85 540 101 579 85 560 b 117 507 85 519 101 507 b 161 525 129 507 143 514 b 322 592 207 563 261 592 b 482 410 408 592 463 546 l 485 393 b 322 417 438 407 385 417 b 35 194 140 417 35 318 b 278 -15 35 71 129 -15 b 532 89 389 -15 479 32 b 640 -8 554 33 593 1 b 554 -168 585 -60 554 -112 b 661 -278 554 -236 603 -278 b 758 -246 703 -278 736 -264 b 778 -211 771 -235 778 -225 b 753 -185 778 -197 767 -185 b 732 -193 746 -185 739 -190 b 696 -203 721 -199 711 -203 b 657 -149 674 -203 657 -185 b 728 -3 657 -94 683 -50 b 817 75 783 14 817 50 z m 343 86 b 210 211 264 86 210 136 b 369 333 210 289 268 333 b 496 311 414 333 456 326 l 514 171 b 343 86 479 126 413 86 z "},"Ć":{"ha":979,"x_min":null,"x_max":null,"o":"m 489 1049 b 549 1078 507 1049 525 1054 b 679 1208 589 1115 649 1179 b 726 1279 713 1242 726 1260 b 653 1308 726 1301 711 1308 b 575 1276 607 1308 592 1300 b 468 1106 543 1228 510 1176 b 456 1071 460 1092 456 1081 b 489 1049 456 1058 468 1049 z m 524 -28 b 928 185 736 -28 878 94 b 946 240 939 207 946 225 b 906 282 946 265 928 282 b 858 251 883 282 871 267 b 585 103 794 161 699 103 b 251 511 390 103 251 263 b 553 913 251 743 381 913 b 846 706 657 913 743 842 b 897 671 864 683 878 671 b 935 713 915 671 935 685 b 897 821 935 736 922 758 l 850 943 b 789 1015 829 997 814 1015 b 725 978 760 1015 756 978 b 518 1011 692 978 615 1011 b 51 472 272 1011 51 792 b 524 -28 51 157 276 -28 z "},"ć":{"ha":733,"x_min":null,"x_max":null,"o":"m 357 790 b 417 819 375 790 393 796 b 547 950 457 857 517 921 b 594 1021 581 983 594 1001 b 521 1050 594 1043 579 1050 b 443 1018 475 1050 460 1042 b 336 847 411 969 378 918 b 324 813 328 833 324 822 b 357 790 324 800 336 790 z m 396 -26 b 697 125 547 -26 658 51 b 710 164 704 139 710 153 b 681 197 710 182 699 197 b 647 178 669 197 661 190 b 468 93 603 128 543 93 b 218 397 335 93 218 214 b 383 633 218 540 286 633 b 529 450 481 633 511 543 b 567 406 533 424 546 406 b 610 429 581 406 592 413 b 683 558 665 483 683 528 b 410 714 683 622 561 714 b 43 333 213 714 43 563 b 396 -26 43 104 203 -26 z "},"Ĉ":{"ha":979,"x_min":null,"x_max":null,"o":"m 358 1060 b 415 1090 375 1060 393 1067 l 532 1208 l 649 1090 b 706 1060 671 1067 689 1060 b 743 1090 728 1060 743 1076 b 726 1128 743 1101 738 1113 b 614 1275 692 1179 656 1226 b 532 1311 592 1301 578 1311 b 450 1275 488 1311 472 1301 b 338 1128 410 1226 374 1178 b 322 1090 328 1113 322 1101 b 358 1060 322 1076 336 1060 z m 906 282 b 858 251 883 282 871 267 b 585 103 794 161 699 103 b 251 511 390 103 251 263 b 553 913 251 743 381 913 b 846 706 657 913 743 842 b 897 671 864 683 878 671 b 935 713 915 671 935 685 b 897 821 935 736 922 758 l 850 943 b 789 1015 829 997 814 1015 b 725 978 760 1015 756 978 b 518 1011 692 978 615 1011 b 51 472 272 1011 51 792 b 524 -28 51 157 276 -28 b 928 185 736 -28 878 94 b 946 240 939 207 946 225 b 906 282 946 265 928 282 z "},"ĉ":{"ha":733,"x_min":null,"x_max":null,"o":"m 226 801 b 283 832 243 801 261 808 l 400 950 l 517 832 b 574 801 539 808 557 801 b 611 832 596 801 611 818 b 594 869 611 843 606 854 b 482 1017 560 921 524 968 b 400 1053 460 1043 446 1053 b 318 1017 356 1053 340 1043 b 206 869 278 968 242 919 b 190 832 196 854 190 843 b 226 801 190 818 204 801 z m 681 197 b 647 178 669 197 661 190 b 468 93 603 128 543 93 b 218 397 335 93 218 214 b 383 633 218 540 286 633 b 529 450 481 633 511 543 b 567 406 533 424 546 406 b 610 429 581 406 592 413 b 683 558 665 483 683 528 b 410 714 683 622 561 714 b 43 333 213 714 43 563 b 396 -26 43 104 203 -26 b 697 125 547 -26 658 51 b 710 164 704 139 710 153 b 681 197 710 182 699 197 z "},"Ċ":{"ha":979,"x_min":null,"x_max":null,"o":"m 531 1078 b 629 1167 588 1078 629 1114 b 531 1254 629 1219 588 1254 b 432 1164 472 1254 432 1214 b 531 1078 432 1113 474 1078 z m 524 -28 b 928 185 736 -28 878 94 b 946 240 939 207 946 225 b 906 282 946 265 928 282 b 858 251 883 282 871 267 b 585 103 794 161 699 103 b 251 511 390 103 251 263 b 553 913 251 743 381 913 b 846 706 657 913 743 842 b 897 671 864 683 878 671 b 935 713 915 671 935 685 b 897 821 935 736 922 758 l 850 943 b 789 1015 829 997 814 1015 b 725 978 760 1015 756 978 b 518 1011 692 978 615 1011 b 51 472 272 1011 51 792 b 524 -28 51 157 276 -28 z "},"ċ":{"ha":733,"x_min":null,"x_max":null,"o":"m 399 819 b 497 908 456 819 497 856 b 399 996 497 961 456 996 b 300 906 340 996 300 956 b 399 819 300 854 342 819 z m 396 -26 b 697 125 547 -26 658 51 b 710 164 704 139 710 153 b 681 197 710 182 699 197 b 647 178 669 197 661 190 b 468 93 603 128 543 93 b 218 397 335 93 218 214 b 383 633 218 540 286 633 b 529 450 481 633 511 543 b 567 406 533 424 546 406 b 610 429 581 406 592 413 b 683 558 665 483 683 528 b 410 714 683 622 561 714 b 43 333 213 714 43 563 b 396 -26 43 104 203 -26 z "},"Č":{"ha":979,"x_min":null,"x_max":null,"o":"m 449 1103 b 531 1067 472 1076 486 1067 b 614 1103 576 1067 590 1076 b 725 1250 653 1151 689 1200 b 742 1288 736 1265 742 1276 b 706 1318 742 1301 728 1318 b 647 1288 689 1318 671 1311 l 532 1172 l 415 1288 b 357 1318 392 1311 374 1318 b 321 1288 335 1318 321 1301 b 338 1250 321 1276 326 1265 b 449 1103 372 1199 408 1151 z m 906 282 b 858 251 883 282 871 267 b 585 103 794 161 699 103 b 251 511 390 103 251 263 b 553 913 251 743 381 913 b 846 706 657 913 743 842 b 897 671 864 683 878 671 b 935 713 915 671 935 685 b 897 821 935 736 922 758 l 850 943 b 789 1015 829 997 814 1015 b 725 978 760 1015 756 978 b 518 1011 692 978 615 1011 b 51 472 272 1011 51 792 b 524 -28 51 157 276 -28 b 928 185 736 -28 878 94 b 946 240 939 207 946 225 b 906 282 946 265 928 282 z "},"č":{"ha":733,"x_min":null,"x_max":null,"o":"m 317 844 b 399 808 340 818 354 808 b 482 844 444 808 458 818 b 593 992 521 893 557 942 b 610 1029 604 1007 610 1018 b 574 1060 610 1043 596 1060 b 515 1029 557 1060 539 1053 l 400 914 l 283 1029 b 225 1060 260 1053 242 1060 b 189 1029 203 1060 189 1043 b 206 992 189 1018 194 1007 b 317 844 240 940 276 893 z m 681 197 b 647 178 669 197 661 190 b 468 93 603 128 543 93 b 218 397 335 93 218 214 b 383 633 218 540 286 633 b 529 450 481 633 511 543 b 567 406 533 424 546 406 b 610 429 581 406 592 413 b 683 558 665 483 683 528 b 410 714 683 622 561 714 b 43 333 213 714 43 563 b 396 -26 43 104 203 -26 b 697 125 547 -26 658 51 b 710 164 704 139 710 153 b 681 197 710 182 699 197 z "},"Ď":{"ha":1096,"x_min":null,"x_max":null,"o":"m 401 1103 b 483 1067 425 1076 439 1067 b 567 1103 529 1067 543 1076 b 678 1250 606 1151 642 1200 b 694 1288 689 1265 694 1276 b 658 1318 694 1301 681 1318 b 600 1288 642 1318 624 1311 l 485 1172 l 368 1288 b 310 1318 344 1311 326 1318 b 274 1288 288 1318 274 1301 b 290 1250 274 1276 279 1265 b 401 1103 325 1199 361 1151 z m 468 993 b 238 986 392 993 314 986 b 103 990 175 986 128 990 b 57 956 69 990 57 975 b 147 836 57 900 147 932 l 147 150 b 57 31 147 54 57 86 b 103 -4 57 11 69 -4 b 238 0 128 -4 175 0 b 506 -6 328 0 417 -6 b 1046 479 831 -6 1046 192 b 468 993 1046 782 807 993 z m 483 89 l 442 89 b 331 156 357 89 331 106 l 331 831 b 442 897 331 879 356 897 l 465 897 b 843 489 700 897 843 733 b 483 89 843 240 714 89 z "},"ď":{"ha":900,"x_min":null,"x_max":null,"o":"m 918 1082 b 874 1040 883 1082 874 1072 l 872 754 b 904 722 872 731 883 722 b 946 758 926 722 939 735 b 983 1040 963 831 983 965 b 918 1082 983 1069 963 1082 z m 778 203 l 778 997 b 742 1056 778 1028 771 1056 b 625 1017 729 1056 704 1050 b 501 935 532 976 501 960 b 611 832 501 872 611 918 l 611 633 b 401 708 561 679 492 708 b 43 333 199 708 43 553 b 358 -19 43 111 188 -19 b 611 114 475 -19 560 38 l 611 42 b 647 -17 611 19 613 -17 b 756 15 658 -17 678 -12 b 876 90 847 46 876 61 b 778 203 876 146 778 117 z m 431 100 b 219 383 325 100 219 207 b 404 621 219 524 290 621 b 611 372 507 621 611 521 l 611 303 b 431 100 611 172 521 100 z "},"Đ":{"ha":1100,"x_min":null,"x_max":null,"o":"m 472 993 b 242 986 396 993 318 986 b 106 990 178 986 132 990 b 61 956 74 990 61 975 b 150 836 61 900 150 932 l 150 550 l 76 550 b 28 504 42 550 28 535 b 76 460 28 474 42 460 l 150 460 l 150 150 b 61 31 150 54 61 86 b 106 -4 61 11 74 -4 b 242 0 132 -4 178 0 b 510 -6 331 0 419 -6 b 1050 479 833 -6 1050 192 b 472 993 1050 782 811 993 z m 486 89 l 444 89 b 335 156 360 89 335 106 l 335 460 l 526 460 b 575 504 561 460 575 474 b 526 550 575 535 561 550 l 335 550 l 335 831 b 444 897 335 879 358 897 l 469 897 b 846 489 703 897 846 733 b 486 89 846 240 718 89 z "},"đ":{"ha":900,"x_min":null,"x_max":null,"o":"m 778 203 l 778 751 l 838 751 b 886 794 872 751 886 767 b 838 836 886 821 872 836 l 778 836 l 778 997 b 742 1056 778 1028 771 1056 b 625 1018 729 1056 704 1050 b 501 936 532 982 501 965 b 611 838 501 879 611 918 l 611 836 l 386 836 b 338 794 350 836 338 821 b 386 751 338 767 350 751 l 611 751 l 611 610 b 401 682 561 653 492 682 b 43 319 199 682 43 532 b 358 -19 43 106 188 -19 b 611 108 475 -19 560 35 l 611 42 b 647 -17 611 19 613 -17 b 756 15 658 -17 678 -12 b 876 90 847 46 876 61 b 778 203 876 146 778 117 z m 431 94 b 219 369 325 94 219 199 b 404 596 219 503 290 596 b 611 357 507 596 611 501 l 611 292 b 431 94 611 164 521 94 z "},"Ē":{"ha":967,"x_min":null,"x_max":null,"o":"m 299 1125 b 465 1128 331 1125 425 1128 b 632 1125 506 1128 596 1125 b 674 1175 661 1125 674 1142 b 632 1224 674 1207 661 1224 b 464 1222 600 1224 506 1222 l 299 1224 b 257 1175 268 1224 257 1207 b 299 1125 257 1142 268 1125 z m 917 299 b 865 264 897 299 885 286 b 585 90 767 157 704 90 l 429 90 b 331 158 344 90 331 108 l 331 422 b 371 456 331 446 339 456 l 482 456 b 615 353 568 456 564 353 b 651 399 636 353 651 365 b 647 501 651 431 647 465 b 651 603 647 536 651 569 b 615 649 651 636 636 649 b 482 546 564 649 568 546 l 371 546 b 331 579 339 546 331 556 l 331 828 b 429 896 331 876 343 896 l 532 896 b 799 732 647 896 703 835 b 851 699 819 711 832 699 b 885 735 868 699 885 711 b 849 835 885 758 875 782 l 796 947 b 728 1017 772 999 756 1017 b 642 986 694 1017 690 986 l 238 986 b 103 990 174 986 128 990 b 58 956 69 990 58 975 b 147 836 58 900 147 932 l 147 150 b 58 31 147 54 58 86 b 103 -4 58 11 69 -4 b 238 0 129 -4 175 0 l 697 0 b 790 -31 749 0 753 -31 b 853 29 817 -31 835 -10 l 913 157 b 951 263 942 215 951 238 b 917 299 951 285 933 299 z "},"ē":{"ha":764,"x_min":null,"x_max":null,"o":"m 229 867 b 396 869 261 867 356 869 b 563 867 436 869 526 867 b 604 917 592 867 604 883 b 563 965 604 949 592 965 b 394 964 531 965 436 964 l 229 965 b 188 917 199 965 188 949 b 229 867 188 883 199 867 z m 703 190 b 663 167 690 190 681 183 b 475 89 614 121 550 89 b 240 263 367 89 282 163 l 672 393 b 707 443 696 400 707 408 b 406 715 707 579 589 715 b 42 340 211 715 42 565 b 404 -26 42 111 201 -26 b 721 121 549 -26 672 49 b 735 156 731 135 735 146 b 703 190 735 172 722 190 z m 382 622 b 531 474 469 622 531 540 b 499 433 531 449 522 440 l 217 344 b 213 404 214 364 213 383 b 382 622 213 538 285 622 z "},"Ĕ":{"ha":967,"x_min":null,"x_max":null,"o":"m 465 1065 b 651 1203 554 1065 617 1115 b 669 1272 664 1229 669 1256 b 632 1307 669 1294 651 1307 b 575 1253 606 1307 593 1283 b 465 1167 546 1197 513 1167 b 357 1253 419 1167 386 1197 b 300 1307 339 1283 325 1307 b 263 1272 281 1307 263 1294 b 281 1203 263 1256 268 1229 b 465 1065 315 1115 378 1065 z m 917 299 b 865 264 897 299 885 286 b 585 90 767 157 704 90 l 429 90 b 331 158 344 90 331 108 l 331 422 b 371 456 331 446 339 456 l 482 456 b 615 353 568 456 564 353 b 651 399 636 353 651 365 b 647 501 651 431 647 465 b 651 603 647 536 651 569 b 615 649 651 636 636 649 b 482 546 564 649 568 546 l 371 546 b 331 579 339 546 331 556 l 331 828 b 429 896 331 876 343 896 l 532 896 b 799 732 647 896 703 835 b 851 699 819 711 832 699 b 885 735 868 699 885 711 b 849 835 885 758 875 782 l 796 947 b 728 1017 772 999 756 1017 b 642 986 694 1017 690 986 l 238 986 b 103 990 174 986 128 990 b 58 956 69 990 58 975 b 147 836 58 900 147 932 l 147 150 b 58 31 147 54 58 86 b 103 -4 58 11 69 -4 b 238 0 129 -4 175 0 l 697 0 b 790 -31 749 0 753 -31 b 853 29 817 -31 835 -10 l 913 157 b 951 263 942 215 951 238 b 917 299 951 285 933 299 z "},"ĕ":{"ha":764,"x_min":null,"x_max":null,"o":"m 396 807 b 582 944 485 807 547 857 b 600 1014 594 971 600 997 b 563 1049 600 1036 582 1049 b 506 994 536 1049 524 1025 b 396 908 476 939 443 908 b 288 994 350 908 317 939 b 231 1049 269 1025 256 1049 b 193 1014 211 1049 193 1036 b 211 944 193 997 199 971 b 396 807 246 857 308 807 z m 703 190 b 663 167 690 190 681 183 b 475 89 614 121 550 89 b 240 263 367 89 282 163 l 672 393 b 707 443 696 400 707 408 b 406 715 707 579 589 715 b 42 340 211 715 42 565 b 404 -26 42 111 201 -26 b 721 121 549 -26 672 49 b 735 156 731 135 735 146 b 703 190 735 172 722 190 z m 382 622 b 531 474 469 622 531 540 b 499 433 531 449 522 440 l 217 344 b 213 404 214 364 213 383 b 382 622 213 538 285 622 z "},"Ė":{"ha":967,"x_min":null,"x_max":null,"o":"m 467 1078 b 565 1167 524 1078 565 1114 b 467 1254 565 1219 524 1254 b 368 1164 408 1254 368 1214 b 467 1078 368 1113 410 1078 z m 917 299 b 865 264 897 299 885 286 b 585 90 767 157 704 90 l 429 90 b 331 158 344 90 331 108 l 331 422 b 371 456 331 446 339 456 l 482 456 b 615 353 568 456 564 353 b 651 399 636 353 651 365 b 647 501 651 431 647 465 b 651 603 647 536 651 569 b 615 649 651 636 636 649 b 482 546 564 649 568 546 l 371 546 b 331 579 339 546 331 556 l 331 828 b 429 896 331 876 343 896 l 532 896 b 799 732 647 896 703 835 b 851 699 819 711 832 699 b 885 735 868 699 885 711 b 849 835 885 758 875 782 l 796 947 b 728 1017 772 999 756 1017 b 642 986 694 1017 690 986 l 238 986 b 103 990 174 986 128 990 b 58 956 69 990 58 975 b 147 836 58 900 147 932 l 147 150 b 58 31 147 54 58 86 b 103 -4 58 11 69 -4 b 238 0 129 -4 175 0 l 697 0 b 790 -31 749 0 753 -31 b 853 29 817 -31 835 -10 l 913 157 b 951 263 942 215 951 238 b 917 299 951 285 933 299 z "},"ė":{"ha":764,"x_min":null,"x_max":null,"o":"m 397 819 b 496 908 454 819 496 856 b 397 996 496 961 454 996 b 299 906 339 996 299 956 b 397 819 299 854 340 819 z m 703 190 b 663 167 690 190 681 183 b 475 89 614 121 550 89 b 240 263 367 89 282 163 l 672 393 b 707 443 696 400 707 408 b 406 715 707 579 589 715 b 42 340 211 715 42 565 b 404 -26 42 111 201 -26 b 721 121 549 -26 672 49 b 735 156 731 135 735 146 b 703 190 735 172 722 190 z m 382 622 b 531 474 469 622 531 540 b 499 433 531 449 522 440 l 217 344 b 213 404 214 364 213 383 b 382 622 213 538 285 622 z "},"Ę":{"ha":967,"x_min":null,"x_max":null,"o":"m 917 299 b 865 264 897 299 885 286 b 585 90 767 157 704 90 l 429 90 b 331 158 344 90 331 108 l 331 422 b 371 456 331 446 339 456 l 482 456 b 615 353 568 456 564 353 b 651 399 636 353 651 365 b 647 501 651 431 647 465 b 651 603 647 536 651 569 b 615 649 651 636 636 649 b 482 546 564 649 568 546 l 371 546 b 331 579 339 546 331 556 l 331 828 b 429 896 331 876 343 896 l 532 896 b 799 732 647 896 703 835 b 851 699 819 711 832 699 b 885 735 868 699 885 711 b 849 835 885 758 875 782 l 796 947 b 728 1017 772 999 756 1017 b 642 986 694 1017 690 986 l 238 986 b 103 990 174 986 128 990 b 58 956 69 990 58 975 b 147 836 58 900 147 932 l 147 150 b 58 31 147 54 58 86 b 103 -4 58 11 69 -4 b 238 0 129 -4 175 0 l 638 0 b 542 -168 575 -54 542 -110 b 649 -278 542 -236 590 -278 b 746 -246 690 -278 724 -264 b 765 -211 758 -235 765 -225 b 740 -185 765 -197 754 -185 b 719 -193 733 -185 726 -190 b 683 -203 708 -199 699 -203 b 644 -149 661 -203 644 -185 b 717 -1 644 -93 672 -49 b 790 -31 750 -8 758 -31 b 853 29 817 -31 835 -10 l 913 157 b 951 263 942 215 951 238 b 917 299 951 285 933 299 z "},"ę":{"ha":764,"x_min":null,"x_max":null,"o":"m 703 190 b 663 167 690 190 681 183 b 475 89 614 121 550 89 b 240 263 367 89 282 163 l 672 393 b 707 443 696 400 707 408 b 406 715 707 579 589 715 b 42 340 211 715 42 565 b 404 -26 42 111 201 -26 b 442 -25 417 -26 429 -26 b 372 -168 396 -71 372 -118 b 479 -278 372 -236 421 -278 b 576 -246 521 -278 554 -264 b 596 -211 589 -235 596 -225 b 571 -185 596 -197 585 -185 b 550 -193 564 -185 557 -190 b 514 -203 539 -199 529 -203 b 475 -149 492 -203 475 -185 b 547 -1 475 -93 503 -49 b 721 121 626 26 689 74 b 735 156 731 135 735 146 b 703 190 735 172 722 190 z m 382 622 b 531 474 469 622 531 540 b 499 433 531 449 522 440 l 217 344 b 213 404 214 364 213 383 b 382 622 213 538 285 622 z "},"Ě":{"ha":967,"x_min":null,"x_max":null,"o":"m 385 1103 b 467 1067 408 1076 422 1067 b 550 1103 513 1067 526 1076 b 661 1250 589 1151 625 1200 b 678 1288 672 1265 678 1276 b 642 1318 678 1301 664 1318 b 583 1288 625 1318 607 1311 l 468 1172 l 351 1288 b 293 1318 328 1311 310 1318 b 257 1288 271 1318 257 1301 b 274 1250 257 1276 263 1265 b 385 1103 308 1199 344 1151 z m 917 299 b 865 264 897 299 885 286 b 585 90 767 157 704 90 l 429 90 b 331 158 344 90 331 108 l 331 422 b 371 456 331 446 339 456 l 482 456 b 615 353 568 456 564 353 b 651 399 636 353 651 365 b 647 501 651 431 647 465 b 651 603 647 536 651 569 b 615 649 651 636 636 649 b 482 546 564 649 568 546 l 371 546 b 331 579 339 546 331 556 l 331 828 b 429 896 331 876 343 896 l 532 896 b 799 732 647 896 703 835 b 851 699 819 711 832 699 b 885 735 868 699 885 711 b 849 835 885 758 875 782 l 796 947 b 728 1017 772 999 756 1017 b 642 986 694 1017 690 986 l 238 986 b 103 990 174 986 128 990 b 58 956 69 990 58 975 b 147 836 58 900 147 932 l 147 150 b 58 31 147 54 58 86 b 103 -4 58 11 69 -4 b 238 0 129 -4 175 0 l 697 0 b 790 -31 749 0 753 -31 b 853 29 817 -31 835 -10 l 913 157 b 951 263 942 215 951 238 b 917 299 951 285 933 299 z "},"ě":{"ha":764,"x_min":null,"x_max":null,"o":"m 315 844 b 397 808 339 818 353 808 b 481 844 443 808 457 818 b 592 992 519 893 556 942 b 608 1029 603 1007 608 1018 b 572 1060 608 1043 594 1060 b 514 1029 556 1060 538 1053 l 399 914 l 282 1029 b 224 1060 258 1053 240 1060 b 188 1029 201 1060 188 1043 b 204 992 188 1018 193 1007 b 315 844 239 940 275 893 z m 703 190 b 663 167 690 190 681 183 b 475 89 614 121 550 89 b 240 263 367 89 282 163 l 672 393 b 707 443 696 400 707 408 b 406 715 707 579 589 715 b 42 340 211 715 42 565 b 404 -26 42 111 201 -26 b 721 121 549 -26 672 49 b 735 156 731 135 735 146 b 703 190 735 172 722 190 z m 382 622 b 531 474 469 622 531 540 b 499 433 531 449 522 440 l 217 344 b 213 404 214 364 213 383 b 382 622 213 538 285 622 z "},"Ĝ":{"ha":1067,"x_min":null,"x_max":null,"o":"m 371 1060 b 428 1090 388 1060 406 1067 l 544 1208 l 661 1090 b 718 1060 683 1067 701 1060 b 756 1090 740 1060 756 1076 b 739 1128 756 1101 750 1113 b 626 1275 704 1179 668 1226 b 544 1311 604 1301 590 1311 b 463 1275 500 1311 485 1301 b 350 1128 422 1226 386 1178 b 335 1090 340 1113 335 1101 b 371 1060 335 1076 349 1060 z m 1038 453 b 992 488 1038 472 1025 488 l 718 488 b 672 453 683 488 672 472 b 767 333 672 394 767 428 l 767 139 b 631 78 767 108 728 78 b 254 492 369 78 254 268 b 557 913 254 718 371 913 b 869 706 704 913 789 807 b 921 671 892 681 903 671 b 960 713 942 671 960 688 b 921 821 960 733 946 758 l 875 943 b 814 1015 860 985 842 1015 b 749 978 782 1015 776 978 b 519 1011 715 978 643 1011 b 51 472 275 1011 51 790 b 600 -28 51 150 281 -28 b 942 29 751 -28 888 11 b 983 71 972 40 983 51 b 949 161 983 104 949 97 l 949 333 b 1038 453 949 428 1038 397 z "},"ĝ":{"ha":811,"x_min":null,"x_max":null,"o":"m 596 147 b 282 176 532 153 407 163 b 200 214 225 182 200 192 b 240 265 200 233 219 249 b 383 247 283 253 331 247 b 735 490 615 247 735 361 b 581 686 735 581 678 650 b 788 742 624 781 742 742 b 825 776 810 742 825 754 b 800 821 825 794 815 807 b 688 885 763 860 721 885 b 597 844 664 885 631 872 b 583 869 596 851 590 860 b 471 1017 549 921 513 968 b 389 1053 449 1043 435 1053 b 307 1017 344 1053 329 1043 b 194 869 267 968 231 919 b 179 832 185 854 179 843 b 215 801 179 818 193 801 b 272 832 232 801 250 808 l 389 950 l 506 832 b 558 801 525 811 542 803 b 510 706 539 776 522 744 b 410 714 479 711 446 714 b 57 467 181 714 57 599 b 167 294 57 392 97 332 b 64 153 113 258 64 207 b 142 44 64 104 94 67 b 31 -90 72 14 31 -35 b 422 -265 31 -194 181 -265 b 817 -35 661 -265 817 -169 b 596 147 817 75 726 136 z m 389 635 b 565 474 486 635 565 574 b 401 326 565 383 497 326 b 225 488 304 326 225 386 b 389 635 225 576 293 635 z m 425 -187 b 175 -76 271 -187 175 -153 b 236 24 175 -36 200 1 b 533 -10 331 13 417 3 b 656 -87 617 -19 656 -46 b 425 -187 656 -137 575 -187 z "},"Ğ":{"ha":1067,"x_min":null,"x_max":null,"o":"m 542 1065 b 728 1203 631 1065 693 1115 b 746 1272 740 1229 746 1256 b 708 1307 746 1294 728 1307 b 651 1253 682 1307 669 1283 b 542 1167 622 1197 589 1167 b 433 1253 496 1167 463 1197 b 376 1307 415 1283 401 1307 b 339 1272 357 1307 339 1294 b 357 1203 339 1256 344 1229 b 542 1065 392 1115 454 1065 z m 600 -28 b 942 29 751 -28 888 11 b 983 71 972 40 983 51 b 949 161 983 104 949 97 l 949 333 b 1038 453 949 428 1038 397 b 992 488 1038 472 1025 488 l 718 488 b 672 453 683 488 672 472 b 767 333 672 394 767 428 l 767 139 b 631 78 767 108 728 78 b 254 492 369 78 254 268 b 557 913 254 718 371 913 b 869 706 704 913 789 807 b 921 671 892 681 903 671 b 960 713 942 671 960 688 b 921 821 960 733 946 758 l 875 943 b 814 1015 860 985 842 1015 b 749 978 782 1015 776 978 b 519 1011 715 978 643 1011 b 51 472 275 1011 51 790 b 600 -28 51 150 281 -28 z "},"ğ":{"ha":811,"x_min":null,"x_max":null,"o":"m 386 807 b 572 944 475 807 538 857 b 590 1014 585 971 590 997 b 553 1049 590 1036 572 1049 b 496 994 526 1049 514 1025 b 386 908 467 939 433 908 b 278 994 340 908 307 939 b 221 1049 260 1025 246 1049 b 183 1014 201 1049 183 1036 b 201 944 183 997 189 971 b 386 807 236 857 299 807 z m 596 147 b 282 176 532 153 407 163 b 200 214 225 182 200 192 b 240 265 200 233 219 249 b 383 247 283 253 331 247 b 735 490 615 247 735 361 b 581 686 735 581 678 650 b 788 742 624 781 742 742 b 825 776 810 742 825 754 b 800 821 825 794 815 807 b 688 885 763 860 721 885 b 510 706 640 885 550 833 b 410 714 479 711 446 714 b 57 467 181 714 57 599 b 167 294 57 392 97 332 b 64 153 113 258 64 207 b 142 44 64 104 94 67 b 31 -90 72 14 31 -35 b 422 -265 31 -194 181 -265 b 817 -35 661 -265 817 -169 b 596 147 817 75 726 136 z m 389 635 b 565 474 486 635 565 574 b 401 326 565 383 497 326 b 225 488 304 326 225 386 b 389 635 225 576 293 635 z m 425 -187 b 175 -76 271 -187 175 -153 b 236 24 175 -36 200 1 b 533 -10 331 13 417 3 b 656 -87 617 -19 656 -46 b 425 -187 656 -137 575 -187 z "},"Ġ":{"ha":1067,"x_min":null,"x_max":null,"o":"m 543 1078 b 642 1167 600 1078 642 1114 b 543 1254 642 1219 600 1254 b 444 1164 485 1254 444 1214 b 543 1078 444 1113 486 1078 z m 600 -28 b 942 29 751 -28 888 11 b 983 71 972 40 983 51 b 949 161 983 104 949 97 l 949 333 b 1038 453 949 428 1038 397 b 992 488 1038 472 1025 488 l 718 488 b 672 453 683 488 672 472 b 767 333 672 394 767 428 l 767 139 b 631 78 767 108 728 78 b 254 492 369 78 254 268 b 557 913 254 718 371 913 b 869 706 704 913 789 807 b 921 671 892 681 903 671 b 960 713 942 671 960 688 b 921 821 960 733 946 758 l 875 943 b 814 1015 860 985 842 1015 b 749 978 782 1015 776 978 b 519 1011 715 978 643 1011 b 51 472 275 1011 51 790 b 600 -28 51 150 281 -28 z "},"ġ":{"ha":811,"x_min":null,"x_max":null,"o":"m 388 819 b 486 908 444 819 486 856 b 388 996 486 961 444 996 b 289 906 329 996 289 956 b 388 819 289 854 331 819 z m 596 147 b 282 176 532 153 407 163 b 200 214 225 182 200 192 b 240 265 200 233 219 249 b 383 247 283 253 331 247 b 735 490 615 247 735 361 b 581 686 735 581 678 650 b 788 742 624 781 742 742 b 825 776 810 742 825 754 b 800 821 825 794 815 807 b 688 885 763 860 721 885 b 510 706 640 885 550 833 b 410 714 479 711 446 714 b 57 467 181 714 57 599 b 167 294 57 392 97 332 b 64 153 113 258 64 207 b 142 44 64 104 94 67 b 31 -90 72 14 31 -35 b 422 -265 31 -194 181 -265 b 817 -35 661 -265 817 -169 b 596 147 817 75 726 136 z m 389 635 b 565 474 486 635 565 574 b 401 326 565 383 497 326 b 225 488 304 326 225 386 b 389 635 225 576 293 635 z m 425 -187 b 175 -76 271 -187 175 -153 b 236 24 175 -36 200 1 b 533 -10 331 13 417 3 b 656 -87 617 -19 656 -46 b 425 -187 656 -137 575 -187 z "},"Ģ":{"ha":1067,"x_min":null,"x_max":null,"o":"m 600 -28 b 942 29 751 -28 888 11 b 983 71 972 40 983 51 b 949 161 983 104 949 97 l 949 333 b 1038 453 949 428 1038 397 b 992 488 1038 472 1025 488 l 718 488 b 672 453 683 488 672 472 b 767 333 672 394 767 428 l 767 139 b 631 78 767 108 728 78 b 254 492 369 78 254 268 b 557 913 254 718 371 913 b 869 706 704 913 789 807 b 921 671 892 681 903 671 b 960 713 942 671 960 688 b 921 821 960 733 946 758 l 875 943 b 814 1015 860 985 842 1015 b 749 978 782 1015 776 978 b 519 1011 715 978 643 1011 b 51 472 275 1011 51 790 b 600 -28 51 150 281 -28 z m 511 -347 b 660 -146 560 -347 660 -247 b 568 -56 660 -86 628 -56 b 474 -132 517 -56 474 -89 b 518 -194 474 -169 496 -183 b 553 -225 535 -201 553 -210 b 504 -292 553 -251 522 -278 b 483 -324 493 -301 483 -310 b 511 -347 483 -337 494 -347 z "},"ģ":{"ha":811,"x_min":null,"x_max":null,"o":"m 385 740 b 475 813 435 740 475 772 b 433 871 475 847 454 861 b 401 901 418 878 401 886 b 446 964 401 925 429 950 b 467 993 457 974 467 981 b 440 1017 467 1007 456 1017 b 300 825 394 1017 300 922 b 385 740 300 768 329 740 z m 596 147 b 282 176 532 153 407 163 b 200 214 225 182 200 192 b 240 265 200 233 219 249 b 383 247 283 253 331 247 b 735 490 615 247 735 361 b 581 686 735 581 678 650 b 788 742 624 781 742 742 b 825 776 810 742 825 754 b 800 821 825 794 815 807 b 688 885 763 860 721 885 b 510 706 640 885 550 833 b 410 714 479 711 446 714 b 57 467 181 714 57 599 b 167 294 57 392 97 332 b 64 153 113 258 64 207 b 142 44 64 104 94 67 b 31 -90 72 14 31 -35 b 422 -265 31 -194 181 -265 b 817 -35 661 -265 817 -169 b 596 147 817 75 726 136 z m 389 635 b 565 474 486 635 565 574 b 401 326 565 383 497 326 b 225 488 304 326 225 386 b 389 635 225 576 293 635 z m 425 -187 b 175 -76 271 -187 175 -153 b 236 24 175 -36 200 1 b 533 -10 331 13 417 3 b 656 -87 617 -19 656 -46 b 425 -187 656 -137 575 -187 z "},"Ĥ":{"ha":1139,"x_min":null,"x_max":null,"o":"m 397 1060 b 454 1090 414 1060 432 1067 l 571 1208 l 688 1090 b 744 1060 710 1067 728 1060 b 782 1090 767 1060 782 1076 b 765 1128 782 1101 776 1113 b 653 1275 731 1179 694 1226 b 571 1311 631 1301 617 1311 b 489 1275 526 1311 511 1301 b 376 1128 449 1226 413 1178 b 361 1090 367 1113 361 1101 b 397 1060 361 1076 375 1060 z m 993 150 l 993 836 b 1082 957 993 932 1082 900 b 1039 990 1082 974 1069 990 b 900 986 1006 990 965 986 b 761 990 835 986 794 990 b 719 957 732 990 719 974 b 808 836 719 900 808 932 l 808 579 b 768 546 808 556 800 546 l 371 546 b 331 579 339 546 331 556 l 331 836 b 419 957 331 932 419 900 b 378 990 419 974 408 990 b 238 986 344 990 303 986 b 103 990 172 986 136 990 b 58 957 72 990 58 974 b 147 836 58 900 147 932 l 147 150 b 58 29 147 54 58 86 b 100 -4 58 13 69 -4 b 238 0 133 -4 172 0 b 378 -4 303 0 344 -4 b 419 29 408 -4 419 13 b 331 150 419 86 331 54 l 331 422 b 371 456 331 446 339 456 l 768 456 b 808 422 800 456 808 446 l 808 150 b 719 29 808 54 719 86 b 761 -4 719 13 732 -4 b 900 0 794 -4 835 0 b 1039 -4 965 0 1006 -4 b 1082 29 1069 -4 1082 13 b 993 150 1082 86 993 54 z "},"ĥ":{"ha":869,"x_min":null,"x_max":null,"o":"m 82 1111 l 199 1229 l 315 1111 b 372 1081 338 1088 356 1081 b 410 1111 394 1081 410 1097 b 393 1149 410 1122 404 1133 b 281 1296 358 1200 322 1247 b 199 1332 258 1322 244 1332 b 117 1296 154 1332 139 1322 b 4 1149 76 1247 40 1199 b -11 1111 -6 1133 -11 1122 b 25 1081 -11 1097 3 1081 b 82 1111 42 1081 60 1088 z m 774 171 l 739 431 b 514 704 721 561 669 704 b 288 568 407 704 332 640 l 288 1007 b 253 1056 288 1033 279 1056 b 140 1014 238 1056 221 1051 b 25 931 56 974 25 957 b 121 829 25 872 121 915 l 121 156 b 36 29 121 49 36 83 b 76 -4 36 13 47 -4 b 204 0 107 -4 144 0 b 335 -4 264 0 303 -4 b 374 29 361 -4 374 14 b 288 156 374 83 288 49 l 288 375 b 439 572 288 515 367 572 b 574 394 532 572 561 478 l 606 171 b 608 131 607 160 608 146 b 521 31 608 56 521 81 b 568 -4 521 11 538 -4 b 697 0 604 -4 631 0 b 826 -4 761 0 790 -4 b 871 28 853 -4 871 8 b 774 171 871 85 790 43 z "},"Ħ":{"ha":1147,"x_min":null,"x_max":null,"o":"m 1079 681 b 1128 725 1114 681 1128 694 b 1079 771 1128 756 1114 771 l 996 771 l 996 836 b 1085 957 996 932 1085 900 b 1043 990 1085 974 1072 990 b 904 986 1010 990 969 986 b 765 990 839 986 799 990 b 722 957 735 990 722 974 b 811 836 722 900 811 932 l 811 768 l 335 768 l 335 836 b 424 957 335 932 424 900 b 382 990 424 974 411 990 b 242 986 349 990 307 986 b 106 990 176 986 139 990 b 61 957 76 990 61 974 b 150 836 61 900 150 932 l 150 771 l 72 771 b 24 725 36 771 24 756 b 72 681 24 694 36 681 l 150 681 l 150 150 b 61 29 150 54 61 86 b 103 -4 61 13 74 -4 b 242 0 136 -4 176 0 b 382 -4 307 0 349 -4 b 424 29 411 -4 424 13 b 335 150 424 86 335 54 l 335 422 b 375 456 335 446 343 456 l 771 456 b 811 422 804 456 811 446 l 811 150 b 722 29 811 54 722 86 b 765 -4 722 13 735 -4 b 904 0 799 -4 839 0 b 1043 -4 969 0 1010 -4 b 1085 29 1072 -4 1085 13 b 996 150 1085 86 996 54 l 996 681 z m 771 546 l 375 546 b 335 579 343 546 335 556 l 335 683 l 811 683 l 811 579 b 771 546 811 556 804 546 z "},"ħ":{"ha":868,"x_min":null,"x_max":null,"o":"m 774 171 l 739 408 b 514 682 718 540 669 682 b 288 547 407 682 332 619 l 288 751 l 479 751 b 528 794 515 751 528 767 b 479 836 528 821 515 836 l 288 836 l 288 1007 b 253 1056 288 1033 279 1056 b 138 1017 238 1056 218 1053 b 25 936 51 978 25 961 b 121 836 25 879 119 919 l 36 836 b -12 794 1 836 -12 821 b 36 751 -12 767 1 751 l 121 751 l 121 156 b 36 29 121 49 36 83 b 76 -4 36 13 47 -4 b 204 0 107 -4 144 0 b 335 -4 264 0 303 -4 b 374 29 361 -4 374 14 b 288 156 374 83 288 49 l 288 353 b 439 550 288 493 367 550 b 574 374 532 550 560 457 l 606 171 b 608 131 607 160 608 146 b 521 31 608 56 521 81 b 568 -4 521 11 538 -4 b 697 0 604 -4 631 0 b 826 -4 761 0 790 -4 b 871 28 853 -4 871 8 b 774 171 871 85 792 43 z "},"Ĩ":{"ha":478,"x_min":null,"x_max":null,"o":"m 319 1076 b 439 1186 376 1076 418 1128 b 449 1233 446 1207 449 1224 b 415 1268 449 1256 436 1268 b 368 1222 390 1268 383 1249 b 322 1175 351 1190 338 1175 b 143 1281 282 1175 224 1281 b 25 1169 88 1281 44 1226 b 15 1124 18 1149 15 1132 b 49 1089 15 1101 28 1089 b 96 1135 72 1089 81 1108 b 142 1181 111 1163 126 1181 b 319 1076 175 1181 239 1076 z m 100 -4 b 238 0 133 -4 172 0 b 378 -4 303 0 344 -4 b 419 29 408 -4 419 13 b 331 150 419 86 331 54 l 331 836 b 419 957 331 932 419 900 b 378 990 419 974 408 990 b 238 986 344 990 303 986 b 103 990 172 986 136 990 b 58 957 72 990 58 974 b 147 836 58 900 147 932 l 147 150 b 58 29 147 54 58 86 b 100 -4 58 13 69 -4 z "},"ĩ":{"ha":422,"x_min":null,"x_max":null,"o":"m 294 818 b 414 928 351 818 393 869 b 424 975 421 949 424 965 b 390 1010 424 997 411 1010 b 343 964 365 1010 358 990 b 297 917 326 932 313 917 b 118 1022 257 917 199 1022 b 0 911 63 1022 19 968 b -10 865 -7 890 -10 874 b 24 831 -10 843 3 831 b 71 876 47 831 56 850 b 117 922 86 904 101 922 b 294 818 150 922 214 818 z m 90 -4 b 219 0 122 -4 160 0 b 350 -4 279 0 318 -4 b 389 29 376 -4 389 14 b 303 156 389 83 303 49 l 303 642 b 265 699 303 676 293 699 b 156 657 253 699 236 694 b 40 575 69 618 40 600 b 136 472 40 517 136 560 l 136 156 b 51 29 136 49 51 83 b 90 -4 51 13 63 -4 z "},"Ī":{"ha":478,"x_min":null,"x_max":null,"o":"m 64 1125 b 231 1128 96 1125 190 1128 b 397 1125 271 1128 361 1125 b 439 1175 426 1125 439 1142 b 397 1224 439 1207 426 1224 b 229 1222 365 1224 271 1222 l 64 1224 b 22 1175 33 1224 22 1207 b 64 1125 22 1142 33 1125 z m 100 -4 b 238 0 133 -4 172 0 b 378 -4 303 0 344 -4 b 419 29 408 -4 419 13 b 331 150 419 86 331 54 l 331 836 b 419 957 331 932 419 900 b 378 990 419 974 408 990 b 238 986 344 990 303 986 b 103 990 172 986 136 990 b 58 957 72 990 58 974 b 147 836 58 900 147 932 l 147 150 b 58 29 147 54 58 86 b 100 -4 58 13 69 -4 z "},"ī":{"ha":422,"x_min":null,"x_max":null,"o":"m 39 867 b 206 869 71 867 165 869 b 372 867 246 869 336 867 b 414 917 401 867 414 883 b 372 965 414 949 401 965 b 204 964 340 965 246 964 l 39 965 b -3 917 8 965 -3 949 b 39 867 -3 883 8 867 z m 90 -4 b 219 0 122 -4 160 0 b 350 -4 279 0 318 -4 b 389 29 376 -4 389 14 b 303 156 389 83 303 49 l 303 642 b 265 699 303 676 293 699 b 156 657 253 699 236 694 b 40 575 69 618 40 600 b 136 472 40 517 136 560 l 136 156 b 51 29 136 49 51 83 b 90 -4 51 13 63 -4 z "},"Ĭ":{"ha":478,"x_min":null,"x_max":null,"o":"m 231 1065 b 417 1203 319 1065 382 1115 b 435 1272 429 1229 435 1256 b 397 1307 435 1294 417 1307 b 340 1253 371 1307 358 1283 b 231 1167 311 1197 278 1167 b 122 1253 185 1167 151 1197 b 65 1307 104 1283 90 1307 b 28 1272 46 1307 28 1294 b 46 1203 28 1256 33 1229 b 231 1065 81 1115 143 1065 z m 100 -4 b 238 0 133 -4 172 0 b 378 -4 303 0 344 -4 b 419 29 408 -4 419 13 b 331 150 419 86 331 54 l 331 836 b 419 957 331 932 419 900 b 378 990 419 974 408 990 b 238 986 344 990 303 986 b 103 990 172 986 136 990 b 58 957 72 990 58 974 b 147 836 58 900 147 932 l 147 150 b 58 29 147 54 58 86 b 100 -4 58 13 69 -4 z "},"ĭ":{"ha":422,"x_min":null,"x_max":null,"o":"m 206 807 b 392 944 294 807 357 857 b 410 1014 404 971 410 997 b 372 1049 410 1036 392 1049 b 315 994 346 1049 333 1025 b 206 908 286 939 253 908 b 97 994 160 908 126 939 b 40 1049 79 1025 65 1049 b 3 1014 21 1049 3 1036 b 21 944 3 997 8 971 b 206 807 56 857 118 807 z m 90 -4 b 219 0 122 -4 160 0 b 350 -4 279 0 318 -4 b 389 29 376 -4 389 14 b 303 156 389 83 303 49 l 303 642 b 265 699 303 676 293 699 b 156 657 253 699 236 694 b 40 575 69 618 40 600 b 136 472 40 517 136 560 l 136 156 b 51 29 136 49 51 83 b 90 -4 51 13 63 -4 z "},"Į":{"ha":478,"x_min":null,"x_max":null,"o":"m 331 150 l 331 836 b 419 957 331 932 419 900 b 378 990 419 974 408 990 b 238 986 344 990 303 986 b 103 990 172 986 136 990 b 58 957 72 990 58 974 b 147 836 58 900 147 932 l 147 150 b 58 29 147 54 58 86 b 100 -4 58 13 69 -4 b 208 0 128 -4 160 -1 b 113 -168 146 -54 113 -110 b 219 -278 113 -236 161 -278 b 317 -246 261 -278 294 -264 b 336 -211 329 -235 336 -225 b 311 -185 336 -197 325 -185 b 290 -193 304 -185 297 -190 b 254 -203 279 -199 269 -203 b 215 -149 232 -203 215 -185 b 289 -1 215 -93 243 -49 b 378 -4 326 -1 354 -4 b 419 29 408 -4 419 13 b 331 150 419 86 331 54 z "},"į":{"ha":422,"x_min":null,"x_max":null,"o":"m 175 822 b 325 947 257 822 325 886 b 233 1029 325 997 283 1029 b 86 901 150 1029 86 963 b 175 822 86 853 125 822 z m 303 156 l 303 642 b 265 699 303 676 293 699 b 156 657 253 699 236 694 b 40 575 69 618 40 600 b 136 472 40 517 136 560 l 136 156 b 51 29 136 49 51 83 b 90 -4 51 13 63 -4 b 200 0 118 -4 151 -1 b 104 -168 138 -54 104 -110 b 211 -278 104 -236 153 -278 b 308 -246 253 -278 286 -264 b 326 -211 321 -235 326 -225 b 303 -185 326 -197 317 -185 b 282 -193 296 -185 289 -190 b 246 -203 271 -199 261 -203 b 207 -149 224 -203 207 -185 b 279 -1 207 -93 235 -49 b 350 -4 308 -3 331 -4 b 389 29 376 -4 389 14 b 303 156 389 83 303 49 z "},"İ":{"ha":478,"x_min":null,"x_max":null,"o":"m 232 1078 b 331 1167 289 1078 331 1114 b 232 1254 331 1219 289 1254 b 133 1164 174 1254 133 1214 b 232 1078 133 1113 175 1078 z m 100 -4 b 238 0 133 -4 172 0 b 378 -4 303 0 344 -4 b 419 29 408 -4 419 13 b 331 150 419 86 331 54 l 331 836 b 419 957 331 932 419 900 b 378 990 419 974 408 990 b 238 986 344 990 303 986 b 103 990 172 986 136 990 b 58 957 72 990 58 974 b 147 836 58 900 147 932 l 147 150 b 58 29 147 54 58 86 b 100 -4 58 13 69 -4 z "},"ı":{"ha":422,"x_min":null,"x_max":null,"o":"m 90 -4 b 219 0 122 -4 160 0 b 350 -4 279 0 318 -4 b 389 29 376 -4 389 14 b 303 156 389 83 303 49 l 303 642 b 265 699 303 676 293 699 b 156 657 253 699 236 694 b 40 575 69 618 40 600 b 136 472 40 517 136 560 l 136 156 b 51 29 136 49 51 83 b 90 -4 51 13 63 -4 z "},"Ĳ":{"ha":1193,"x_min":null,"x_max":null,"o":"m 100 -4 b 238 0 133 -4 172 0 b 378 -4 303 0 344 -4 b 419 29 408 -4 419 13 b 331 150 419 86 331 54 l 331 836 b 419 957 331 932 419 900 b 378 990 419 974 408 990 b 238 986 344 990 303 986 b 103 990 172 986 136 990 b 58 957 72 990 58 974 b 147 836 58 900 147 932 l 147 150 b 58 29 147 54 58 86 b 100 -4 58 13 69 -4 z m 769 -19 b 1064 233 951 -19 1064 65 l 1064 836 b 1153 957 1064 932 1153 900 b 1111 990 1153 974 1140 990 b 971 986 1078 990 1036 986 b 822 990 901 986 858 990 b 779 957 793 990 779 974 b 879 836 779 897 881 932 l 881 225 b 760 75 881 138 836 75 b 618 288 675 75 639 139 b 579 329 614 314 601 329 b 532 283 561 331 543 314 b 489 113 500 189 489 138 b 769 -19 489 40 626 -19 z "},"ĳ":{"ha":810,"x_min":null,"x_max":null,"o":"m 175 822 b 325 947 257 822 325 886 b 233 1029 325 997 283 1029 b 86 901 150 1029 86 963 b 175 822 86 853 125 822 z m 586 822 b 736 947 668 822 736 886 b 643 1029 736 997 693 1029 b 497 901 561 1029 497 963 b 586 822 497 853 536 822 z m 90 -4 b 219 0 122 -4 160 0 b 350 -4 279 0 318 -4 b 389 29 376 -4 389 14 b 303 156 389 83 303 49 l 303 642 b 265 699 303 676 293 699 b 156 657 253 699 236 694 b 40 575 69 618 40 600 b 136 472 40 517 136 560 l 136 156 b 51 29 136 49 51 83 b 90 -4 51 13 63 -4 z m 551 -129 b 521 -171 551 -158 538 -171 b 453 -99 497 -171 478 -149 b 421 -71 443 -81 436 -71 b 372 -189 383 -71 371 -131 b 456 -267 374 -242 392 -267 b 713 -6 586 -267 713 -172 l 713 642 b 676 699 713 676 704 699 b 567 657 664 699 647 694 b 451 575 482 618 451 600 b 546 472 451 517 546 560 l 546 -12 b 551 -129 546 -60 551 -96 z "},"Ĵ":{"ha":715,"x_min":null,"x_max":null,"o":"m 679 1128 b 567 1275 644 1179 608 1226 b 485 1311 544 1301 531 1311 b 403 1275 440 1311 425 1301 b 290 1128 363 1226 326 1178 b 275 1090 281 1113 275 1101 b 311 1060 275 1076 289 1060 b 368 1090 328 1060 346 1067 l 485 1208 l 601 1090 b 658 1060 624 1067 642 1060 b 696 1090 681 1060 696 1076 b 679 1128 696 1101 690 1113 z m 633 990 b 493 986 600 990 558 986 b 344 990 424 986 381 990 b 301 957 315 990 301 974 b 401 836 301 897 403 932 l 403 225 b 282 75 403 138 358 75 b 140 288 197 75 161 139 b 101 329 136 314 124 329 b 54 283 83 331 65 314 b 11 113 22 189 11 138 b 292 -19 11 40 149 -19 b 586 233 474 -19 586 65 l 586 836 b 675 957 586 932 675 900 b 633 990 675 974 663 990 z "},"ĵ":{"ha":388,"x_min":null,"x_max":null,"o":"m 390 869 b 278 1017 356 921 319 968 b 196 1053 256 1043 242 1053 b 114 1017 151 1053 136 1043 b 1 869 74 968 38 919 b -14 832 -8 854 -14 843 b 22 801 -14 818 0 801 b 79 832 39 801 57 808 l 196 950 l 313 832 b 369 801 335 808 353 801 b 407 832 392 801 407 818 b 390 869 407 843 401 854 z m 254 699 b 144 657 242 699 225 694 b 29 575 60 618 29 600 b 124 472 29 517 124 560 l 124 -12 b 129 -129 124 -60 129 -96 b 99 -171 129 -158 115 -171 b 31 -99 75 -171 56 -149 b -1 -71 21 -81 14 -71 b -50 -189 -39 -71 -51 -131 b 33 -267 -49 -242 -31 -267 b 290 -6 164 -267 290 -172 l 290 642 b 254 699 290 676 282 699 z "},"Ķ":{"ha":1032,"x_min":null,"x_max":null,"o":"m 928 135 l 607 635 l 860 868 b 1004 958 921 925 1004 906 b 969 989 1004 976 990 989 b 832 985 939 989 874 985 b 701 989 790 985 740 989 b 650 954 669 989 650 978 b 715 890 650 910 715 925 b 678 835 715 869 701 858 l 331 510 l 331 836 b 419 957 331 932 419 900 b 378 990 419 974 408 990 b 238 986 344 990 303 986 b 103 990 172 986 136 990 b 58 957 72 990 58 974 b 147 836 58 900 147 932 l 147 150 b 58 29 147 54 58 86 b 100 -4 58 13 69 -4 b 238 0 133 -4 172 0 b 378 -4 303 0 344 -4 b 419 29 408 -4 419 13 b 331 150 419 86 331 54 l 331 379 l 478 515 l 706 163 b 724 115 718 144 724 128 b 649 31 724 64 649 79 b 697 -4 649 10 663 -4 b 850 0 738 -4 785 0 b 1003 -4 915 0 976 -4 b 1042 28 1028 -4 1042 10 b 928 135 1042 79 975 63 z m 525 -56 b 431 -132 474 -56 431 -89 b 475 -194 431 -169 453 -183 b 510 -225 492 -201 510 -210 b 461 -292 510 -251 479 -278 b 440 -324 450 -301 440 -310 b 468 -347 440 -337 451 -347 b 617 -146 517 -347 617 -247 b 525 -56 617 -86 585 -56 z "},"ķ":{"ha":854,"x_min":null,"x_max":null,"o":"m 772 114 l 546 463 l 675 571 b 818 661 739 625 818 611 b 779 693 818 681 801 693 b 643 689 749 693 681 689 b 529 693 606 689 557 693 b 485 660 500 693 485 682 b 544 596 485 615 544 631 b 508 546 544 578 531 565 l 288 353 l 288 1007 b 253 1056 288 1033 279 1056 b 140 1014 238 1056 221 1051 b 25 931 56 974 25 957 b 121 829 25 872 121 915 l 121 156 b 36 29 121 49 36 83 b 76 -4 36 13 47 -4 b 204 0 107 -4 144 0 b 335 -4 264 0 303 -4 b 374 29 361 -4 374 14 b 288 156 374 83 288 49 l 288 247 l 428 364 l 557 157 b 578 108 571 136 578 121 b 513 29 578 57 513 75 b 558 -4 513 7 529 -4 b 688 0 592 -4 628 0 b 831 -4 753 0 794 -4 b 868 26 851 -4 868 7 b 772 114 868 71 808 57 z m 450 -56 b 356 -132 399 -56 356 -89 b 400 -194 356 -169 378 -183 b 435 -225 417 -201 435 -210 b 386 -292 435 -251 404 -278 b 365 -324 375 -301 365 -310 b 393 -347 365 -337 376 -347 b 542 -146 442 -347 542 -247 b 450 -56 542 -86 510 -56 z "},"ĸ":{"ha":868,"x_min":null,"x_max":null,"o":"m 788 114 l 561 463 l 690 571 b 833 661 753 625 833 611 b 794 693 833 681 817 693 b 658 689 763 693 694 689 b 543 693 621 689 572 693 b 499 660 515 693 499 682 b 560 596 499 615 560 631 b 524 546 560 578 546 565 l 303 353 l 303 642 b 265 699 303 676 293 699 b 156 657 253 699 236 694 b 40 575 69 618 40 600 b 136 472 40 517 136 560 l 136 156 b 51 29 136 49 51 83 b 90 -4 51 13 63 -4 b 219 0 122 -4 160 0 b 350 -4 279 0 318 -4 b 389 29 376 -4 389 14 b 303 156 389 83 303 49 l 303 247 l 443 364 l 575 153 b 593 108 586 136 593 122 b 528 29 593 57 528 75 b 572 -4 528 7 544 -4 b 703 0 606 -4 642 0 b 844 -4 768 0 808 -4 b 883 26 867 -4 883 7 b 788 114 883 71 824 57 z "},"Ĺ":{"ha":894,"x_min":null,"x_max":null,"o":"m 254 1049 b 314 1078 272 1049 290 1054 b 444 1208 354 1115 414 1179 b 492 1279 478 1242 492 1260 b 418 1308 492 1301 476 1308 b 340 1276 372 1308 357 1300 b 233 1106 308 1228 275 1176 b 221 1071 225 1092 221 1081 b 254 1049 221 1058 233 1049 z m 733 -31 b 797 31 761 -31 778 -10 l 858 160 b 897 268 888 219 897 243 b 863 306 897 290 881 306 b 808 269 843 306 831 292 b 528 90 707 163 635 90 l 390 90 b 331 147 349 90 331 107 l 331 836 b 419 957 331 932 419 900 b 378 990 419 974 408 990 b 238 986 344 990 303 986 b 103 990 172 986 136 990 b 58 957 72 990 58 974 b 147 836 58 900 147 932 l 147 150 b 58 31 147 54 58 86 b 103 -4 58 11 69 -4 b 238 0 129 -4 175 0 l 639 0 b 733 -31 692 0 696 -31 z "},"ĺ":{"ha":407,"x_min":null,"x_max":null,"o":"m 147 1092 b 207 1121 165 1092 183 1097 b 338 1251 247 1158 307 1222 b 385 1322 371 1285 385 1303 b 311 1351 385 1344 369 1351 b 233 1319 265 1351 250 1343 b 126 1149 201 1271 168 1219 b 114 1114 118 1135 114 1124 b 147 1092 114 1101 126 1092 z m 76 -4 b 204 0 107 -4 144 0 b 335 -4 264 0 303 -4 b 374 29 361 -4 374 14 b 288 156 374 83 288 49 l 288 997 b 251 1056 288 1032 279 1056 b 140 1014 238 1056 221 1051 b 25 931 56 974 25 957 b 121 829 25 872 121 915 l 121 156 b 36 29 121 49 36 83 b 76 -4 36 13 47 -4 z "},"Ļ":{"ha":894,"x_min":null,"x_max":null,"o":"m 733 -31 b 797 31 761 -31 778 -10 l 858 160 b 897 268 888 219 897 243 b 863 306 897 290 881 306 b 808 269 843 306 831 292 b 528 90 707 163 635 90 l 390 90 b 331 147 349 90 331 107 l 331 836 b 419 957 331 932 419 900 b 378 990 419 974 408 990 b 238 986 344 990 303 986 b 103 990 172 986 136 990 b 58 957 72 990 58 974 b 147 836 58 900 147 932 l 147 150 b 58 31 147 54 58 86 b 103 -4 58 11 69 -4 b 238 0 129 -4 175 0 l 639 0 b 733 -31 692 0 696 -31 z m 417 -347 b 565 -146 465 -347 565 -247 b 474 -56 565 -86 533 -56 b 379 -132 422 -56 379 -89 b 424 -194 379 -169 401 -183 b 458 -225 440 -201 458 -210 b 410 -292 458 -251 428 -278 b 389 -324 399 -301 389 -310 b 417 -347 389 -337 400 -347 z "},"ļ":{"ha":407,"x_min":null,"x_max":null,"o":"m 76 -4 b 204 0 107 -4 144 0 b 335 -4 264 0 303 -4 b 374 29 361 -4 374 14 b 288 156 374 83 288 49 l 288 997 b 251 1056 288 1032 279 1056 b 140 1014 238 1056 221 1051 b 25 931 56 974 25 957 b 121 829 25 872 121 915 l 121 156 b 36 29 121 49 36 83 b 76 -4 36 13 47 -4 z m 157 -347 b 306 -146 206 -347 306 -247 b 214 -56 306 -86 274 -56 b 119 -132 163 -56 119 -89 b 164 -194 119 -169 142 -183 b 199 -225 181 -201 199 -210 b 150 -292 199 -251 168 -278 b 129 -324 139 -301 129 -310 b 157 -347 129 -337 140 -347 z "},"Ľ":{"ha":894,"x_min":null,"x_max":null,"o":"m 513 682 b 554 718 535 682 547 694 b 592 1000 571 790 592 925 b 526 1042 592 1029 571 1042 b 482 1000 492 1042 482 1032 l 481 714 b 513 682 481 690 492 682 z m 733 -31 b 797 31 761 -31 778 -10 l 858 160 b 897 268 888 219 897 243 b 863 306 897 290 881 306 b 808 269 843 306 831 292 b 528 90 707 163 635 90 l 390 90 b 331 147 349 90 331 107 l 331 836 b 419 957 331 932 419 900 b 378 990 419 974 408 990 b 238 986 344 990 303 986 b 103 990 172 986 136 990 b 58 957 72 990 58 974 b 147 836 58 900 147 932 l 147 150 b 58 31 147 54 58 86 b 103 -4 58 11 69 -4 b 238 0 129 -4 175 0 l 639 0 b 733 -31 692 0 696 -31 z "},"ľ":{"ha":407,"x_min":null,"x_max":null,"o":"m 413 722 b 454 758 435 722 447 735 b 492 1040 471 831 492 965 b 426 1082 492 1069 471 1082 b 382 1040 392 1082 382 1072 l 381 754 b 413 722 381 731 392 722 z m 76 -4 b 204 0 107 -4 144 0 b 335 -4 264 0 303 -4 b 374 29 361 -4 374 14 b 288 156 374 83 288 49 l 288 997 b 251 1056 288 1032 279 1056 b 140 1014 238 1056 221 1051 b 25 931 56 974 25 957 b 121 829 25 872 121 915 l 121 156 b 36 29 121 49 36 83 b 76 -4 36 13 47 -4 z "},"Ŀ":{"ha":896,"x_min":null,"x_max":null,"o":"m 733 -31 b 797 31 761 -31 778 -10 l 858 160 b 897 268 888 219 897 243 b 863 306 897 290 881 306 b 808 269 843 306 831 292 b 528 90 707 163 635 90 l 390 90 b 331 147 349 90 331 107 l 331 836 b 419 957 331 932 419 900 b 378 990 419 974 408 990 b 238 986 344 990 303 986 b 103 990 172 986 136 990 b 58 957 72 990 58 974 b 147 836 58 900 147 932 l 147 150 b 58 31 147 54 58 86 b 103 -4 58 11 69 -4 b 238 0 129 -4 175 0 l 639 0 b 733 -31 692 0 696 -31 z m 675 610 b 771 528 732 610 771 579 b 661 436 771 476 725 436 b 567 518 604 436 567 467 b 675 610 567 569 611 610 z "},"ŀ":{"ha":467,"x_min":null,"x_max":null,"o":"m 76 -4 b 204 0 107 -4 144 0 b 335 -4 264 0 303 -4 b 374 29 361 -4 374 14 b 288 156 374 83 288 49 l 288 997 b 251 1056 288 1032 279 1056 b 140 1014 238 1056 221 1051 b 25 931 56 974 25 957 b 121 829 25 872 121 915 l 121 156 b 36 29 121 49 36 83 b 76 -4 36 13 47 -4 z m 444 579 b 538 499 499 579 538 549 b 431 408 538 449 492 408 b 338 490 375 408 338 439 b 444 579 338 539 382 579 z "},"Ł":{"ha":926,"x_min":null,"x_max":null,"o":"m 893 306 b 840 269 874 306 861 292 b 558 90 739 163 667 90 l 421 90 b 363 147 379 90 363 107 l 363 490 l 569 594 b 599 633 589 606 599 617 b 558 683 599 663 576 683 b 528 675 549 683 539 681 l 363 592 l 363 836 b 451 957 363 932 451 900 b 410 990 451 974 439 990 b 269 986 376 990 335 986 b 133 990 204 986 167 990 b 89 957 104 990 89 974 b 178 836 89 900 178 932 l 178 497 l 76 446 b 47 407 56 435 47 422 b 86 356 47 378 68 356 b 117 365 96 356 106 360 l 178 396 l 178 150 b 89 31 178 54 89 86 b 135 -4 89 11 101 -4 b 269 0 160 -4 206 0 l 671 0 b 764 -31 722 0 728 -31 b 829 31 793 -31 810 -10 l 890 160 b 929 268 918 219 929 243 b 893 306 929 290 911 306 z "},"ł":{"ha":475,"x_min":null,"x_max":null,"o":"m 424 642 b 394 632 414 642 406 639 l 322 596 l 322 997 b 286 1056 322 1032 314 1056 b 175 1014 272 1056 257 1051 b 60 931 90 974 60 957 b 156 829 60 872 156 915 l 156 511 l 57 461 b 29 422 36 450 29 439 b 64 378 29 399 46 378 b 94 386 75 378 83 381 l 156 417 l 156 156 b 71 29 156 49 71 83 b 111 -4 71 13 82 -4 b 239 0 142 -4 179 0 b 369 -4 299 0 338 -4 b 408 29 396 -4 408 14 b 322 156 408 83 322 49 l 322 503 l 432 558 b 463 596 453 569 463 581 b 424 642 463 621 442 642 z "},"Ń":{"ha":1081,"x_min":null,"x_max":null,"o":"m 503 1049 b 563 1078 521 1049 539 1054 b 693 1208 603 1115 663 1179 b 740 1279 726 1242 740 1260 b 667 1308 740 1301 725 1308 b 589 1276 621 1308 606 1300 b 482 1106 557 1228 524 1176 b 469 1071 474 1092 469 1081 b 503 1049 469 1058 482 1049 z m 994 990 b 888 986 961 990 925 986 b 771 990 844 986 808 990 b 724 957 742 990 724 975 b 836 836 724 892 836 929 l 836 308 l 329 954 b 263 989 307 982 286 989 b 190 988 242 989 222 988 b 103 990 157 988 129 990 b 56 956 71 990 56 975 b 147 836 56 900 147 932 l 147 150 b 56 31 147 54 56 86 b 99 -4 56 13 69 -4 b 207 0 133 -4 174 0 b 324 -4 242 0 288 -4 b 369 29 354 -4 369 10 b 258 150 369 94 258 57 l 258 754 l 831 28 b 899 -12 850 4 867 -12 b 946 36 924 -12 946 3 l 946 836 b 1039 957 946 932 1039 900 b 994 990 1039 975 1025 990 z "},"ń":{"ha":885,"x_min":null,"x_max":null,"o":"m 394 790 b 454 819 413 790 431 796 b 585 950 494 857 554 921 b 632 1021 618 983 632 1001 b 558 1050 632 1043 617 1050 b 481 1018 513 1050 497 1042 b 374 847 449 969 415 918 b 361 813 365 833 361 822 b 394 790 361 800 374 790 z m 789 171 l 753 431 b 529 704 736 561 683 704 b 303 568 422 704 347 640 l 303 642 b 265 699 303 676 293 699 b 156 657 253 699 236 694 b 40 575 69 618 40 600 b 136 472 40 517 136 560 l 136 156 b 51 29 136 49 51 83 b 90 -4 51 13 63 -4 b 219 0 122 -4 160 0 b 350 -4 279 0 318 -4 b 389 29 376 -4 389 14 b 303 156 389 83 303 49 l 303 375 b 454 572 303 515 382 572 b 589 394 547 572 576 478 l 618 188 b 624 135 621 167 624 147 b 536 31 624 54 536 81 b 582 -4 536 11 551 -4 b 713 0 619 -4 646 0 b 842 -4 776 0 806 -4 b 885 29 867 -4 885 8 b 789 171 885 85 806 43 z "},"Ņ":{"ha":1081,"x_min":null,"x_max":null,"o":"m 994 990 b 888 986 961 990 925 986 b 771 990 844 986 808 990 b 724 957 742 990 724 975 b 836 836 724 892 836 929 l 836 308 l 329 954 b 263 989 307 982 286 989 b 190 988 242 989 222 988 b 103 990 157 988 129 990 b 56 956 71 990 56 975 b 147 836 56 900 147 932 l 147 150 b 56 31 147 54 56 86 b 99 -4 56 13 69 -4 b 207 0 133 -4 174 0 b 324 -4 242 0 288 -4 b 369 29 354 -4 369 10 b 258 150 369 94 258 57 l 258 754 l 831 28 b 899 -12 850 4 867 -12 b 946 36 924 -12 946 3 l 946 836 b 1039 957 946 932 1039 900 b 994 990 1039 975 1025 990 z m 551 -56 b 457 -132 500 -56 457 -89 b 501 -194 457 -169 479 -183 b 536 -225 518 -201 536 -210 b 488 -292 536 -251 506 -278 b 467 -324 476 -301 467 -310 b 494 -347 467 -337 478 -347 b 643 -146 543 -347 643 -247 b 551 -56 643 -86 611 -56 z "},"ņ":{"ha":885,"x_min":null,"x_max":null,"o":"m 789 171 l 753 431 b 529 704 736 561 683 704 b 303 568 422 704 347 640 l 303 642 b 265 699 303 676 293 699 b 156 657 253 699 236 694 b 40 575 69 618 40 600 b 136 472 40 517 136 560 l 136 156 b 51 29 136 49 51 83 b 90 -4 51 13 63 -4 b 219 0 122 -4 160 0 b 350 -4 279 0 318 -4 b 389 29 376 -4 389 14 b 303 156 389 83 303 49 l 303 375 b 454 572 303 515 382 572 b 589 394 547 572 576 478 l 618 188 b 624 135 621 167 624 147 b 536 31 624 54 536 81 b 582 -4 536 11 551 -4 b 713 0 619 -4 646 0 b 842 -4 776 0 806 -4 b 885 29 867 -4 885 8 b 789 171 885 85 806 43 z m 469 -56 b 375 -132 418 -56 375 -89 b 419 -194 375 -169 397 -183 b 454 -225 436 -201 454 -210 b 406 -292 454 -251 424 -278 b 385 -324 394 -301 385 -310 b 413 -347 385 -337 396 -347 b 561 -146 461 -347 561 -247 b 469 -56 561 -86 529 -56 z "},"Ň":{"ha":1081,"x_min":null,"x_max":null,"o":"m 463 1103 b 544 1067 486 1076 500 1067 b 628 1103 590 1067 604 1076 b 739 1250 667 1151 703 1200 b 756 1288 750 1265 756 1276 b 719 1318 756 1301 742 1318 b 661 1288 703 1318 685 1311 l 546 1172 l 429 1288 b 371 1318 406 1311 388 1318 b 335 1288 349 1318 335 1301 b 351 1250 335 1276 340 1265 b 463 1103 386 1199 422 1151 z m 994 990 b 888 986 961 990 925 986 b 771 990 844 986 808 990 b 724 957 742 990 724 975 b 836 836 724 892 836 929 l 836 308 l 329 954 b 263 989 307 982 286 989 b 190 988 242 989 222 988 b 103 990 157 988 129 990 b 56 956 71 990 56 975 b 147 836 56 900 147 932 l 147 150 b 56 31 147 54 56 86 b 99 -4 56 13 69 -4 b 207 0 133 -4 174 0 b 324 -4 242 0 288 -4 b 369 29 354 -4 369 10 b 258 150 369 94 258 57 l 258 754 l 831 28 b 899 -12 850 4 867 -12 b 946 36 924 -12 946 3 l 946 836 b 1039 957 946 932 1039 900 b 994 990 1039 975 1025 990 z "},"ň":{"ha":885,"x_min":null,"x_max":null,"o":"m 354 844 b 436 808 378 818 392 808 b 519 844 482 808 496 818 b 631 992 558 893 594 942 b 647 1029 642 1007 647 1018 b 611 1060 647 1043 633 1060 b 553 1029 594 1060 576 1053 l 438 914 l 321 1029 b 263 1060 297 1053 279 1060 b 226 1029 240 1060 226 1043 b 243 992 226 1018 232 1007 b 354 844 278 940 314 893 z m 789 171 l 753 431 b 529 704 736 561 683 704 b 303 568 422 704 347 640 l 303 642 b 265 699 303 676 293 699 b 156 657 253 699 236 694 b 40 575 69 618 40 600 b 136 472 40 517 136 560 l 136 156 b 51 29 136 49 51 83 b 90 -4 51 13 63 -4 b 219 0 122 -4 160 0 b 350 -4 279 0 318 -4 b 389 29 376 -4 389 14 b 303 156 389 83 303 49 l 303 375 b 454 572 303 515 382 572 b 589 394 547 572 576 478 l 618 188 b 624 135 621 167 624 147 b 536 31 624 54 536 81 b 582 -4 536 11 551 -4 b 713 0 619 -4 646 0 b 842 -4 776 0 806 -4 b 885 29 867 -4 885 8 b 789 171 885 85 806 43 z "},"Ŋ":{"ha":1081,"x_min":null,"x_max":null,"o":"m 996 990 b 888 986 963 990 919 986 b 769 990 853 986 806 990 b 724 957 739 990 724 974 b 836 836 724 892 836 929 l 836 304 l 313 975 b 275 990 306 983 292 990 b 192 986 242 990 217 986 b 100 990 167 986 133 990 b 56 957 71 990 56 974 b 147 836 56 900 147 932 l 147 150 b 56 29 147 54 56 86 b 97 -4 56 13 68 -4 b 207 0 131 -4 174 0 b 325 -4 242 0 288 -4 b 369 29 354 -4 369 13 b 258 150 369 94 258 57 l 258 757 l 829 29 l 829 -54 b 774 -176 829 -142 810 -176 b 696 -97 740 -176 724 -151 b 664 -71 686 -79 679 -71 b 615 -194 626 -71 614 -132 b 699 -274 617 -249 635 -274 b 946 -12 821 -274 946 -178 l 946 836 b 1039 957 946 932 1039 900 b 996 990 1039 974 1026 990 z "},"ŋ":{"ha":843,"x_min":null,"x_max":null,"o":"m 532 704 b 303 568 424 704 347 640 l 303 642 b 265 699 303 676 293 699 b 156 657 253 699 236 694 b 40 575 69 618 40 600 b 136 472 40 517 136 560 l 136 156 b 51 29 136 49 51 83 b 90 -4 51 13 63 -4 b 219 0 122 -4 160 0 b 350 -4 279 0 318 -4 b 389 29 376 -4 389 14 b 303 156 389 83 303 49 l 303 375 b 463 572 303 515 388 572 b 590 393 554 572 590 486 l 590 -19 b 596 -135 590 -67 596 -103 b 565 -178 596 -164 582 -178 b 497 -103 542 -178 524 -154 b 465 -75 488 -85 481 -75 b 418 -196 429 -75 417 -135 b 500 -274 419 -249 436 -274 b 757 -12 631 -274 757 -178 l 757 426 b 532 704 757 567 685 704 z "},"Ō":{"ha":1151,"x_min":null,"x_max":null,"o":"m 407 1125 b 574 1128 439 1125 533 1128 b 740 1125 614 1128 704 1125 b 782 1175 769 1125 782 1142 b 740 1224 782 1207 769 1224 b 572 1222 708 1224 614 1222 l 407 1224 b 365 1175 376 1224 365 1207 b 407 1125 365 1142 376 1125 z m 575 -28 b 1101 474 878 -28 1101 169 b 575 1014 1101 782 878 1014 b 50 472 276 1014 50 782 b 575 -28 50 168 276 -28 z m 575 75 b 254 488 376 75 254 264 b 576 915 254 715 375 915 b 897 492 776 915 897 714 b 575 75 897 264 781 75 z "},"ō":{"ha":865,"x_min":null,"x_max":null,"o":"m 261 867 b 428 869 293 867 388 869 b 594 867 468 869 558 867 b 636 917 624 867 636 883 b 594 965 636 949 624 965 b 426 964 563 965 468 964 l 261 965 b 219 917 231 965 219 949 b 261 867 219 883 231 867 z m 422 -26 b 822 350 650 -26 822 132 b 443 715 822 561 672 715 b 42 338 211 715 42 554 b 422 -26 42 128 192 -26 z m 456 64 b 222 390 314 64 222 235 b 410 625 222 531 292 625 b 643 297 550 625 643 454 b 456 64 643 158 574 64 z "},"Ŏ":{"ha":1151,"x_min":null,"x_max":null,"o":"m 574 1065 b 760 1203 663 1065 725 1115 b 778 1272 772 1229 778 1256 b 740 1307 778 1294 760 1307 b 683 1253 714 1307 701 1283 b 574 1167 654 1197 621 1167 b 465 1253 528 1167 494 1197 b 408 1307 447 1283 433 1307 b 371 1272 389 1307 371 1294 b 389 1203 371 1256 376 1229 b 574 1065 424 1115 486 1065 z m 575 -28 b 1101 474 878 -28 1101 169 b 575 1014 1101 782 878 1014 b 50 472 276 1014 50 782 b 575 -28 50 168 276 -28 z m 575 75 b 254 488 376 75 254 264 b 576 915 254 715 375 915 b 897 492 776 915 897 714 b 575 75 897 264 781 75 z "},"ŏ":{"ha":865,"x_min":null,"x_max":null,"o":"m 428 807 b 614 944 517 807 579 857 b 632 1014 626 971 632 997 b 594 1049 632 1036 614 1049 b 538 994 568 1049 556 1025 b 428 908 508 939 475 908 b 319 994 382 908 349 939 b 263 1049 301 1025 288 1049 b 225 1014 243 1049 225 1036 b 243 944 225 997 231 971 b 428 807 278 857 340 807 z m 422 -26 b 822 350 650 -26 822 132 b 443 715 822 561 672 715 b 42 338 211 715 42 554 b 422 -26 42 128 192 -26 z m 456 64 b 222 390 314 64 222 235 b 410 625 222 531 292 625 b 643 297 550 625 643 454 b 456 64 643 158 574 64 z "},"Ő":{"ha":1151,"x_min":null,"x_max":null,"o":"m 472 1040 b 522 1071 489 1040 504 1046 b 619 1208 557 1117 589 1161 b 656 1276 642 1242 656 1258 b 594 1308 656 1300 636 1308 b 531 1274 556 1308 544 1300 b 456 1103 503 1218 479 1167 b 446 1065 450 1088 446 1075 b 472 1040 446 1050 456 1040 z m 664 1040 b 714 1071 681 1040 696 1046 b 813 1208 749 1117 782 1161 b 847 1276 835 1242 847 1258 b 788 1308 847 1300 828 1308 b 724 1274 749 1308 736 1300 b 647 1103 694 1218 672 1167 b 638 1065 642 1088 638 1075 b 664 1040 638 1050 649 1040 z m 575 -28 b 1101 474 878 -28 1101 169 b 575 1014 1101 782 878 1014 b 50 472 276 1014 50 782 b 575 -28 50 168 276 -28 z m 575 75 b 254 488 376 75 254 264 b 576 915 254 715 375 915 b 897 492 776 915 897 714 b 575 75 897 264 781 75 z "},"ő":{"ha":865,"x_min":null,"x_max":null,"o":"m 326 782 b 376 813 343 782 358 788 b 474 950 411 858 443 903 b 510 1018 496 983 510 1000 b 449 1050 510 1042 490 1050 b 385 1015 410 1050 399 1042 b 310 844 357 960 333 908 b 300 807 304 829 300 817 b 326 782 300 792 310 782 z m 518 782 b 568 813 535 782 550 788 b 667 950 603 858 636 903 b 701 1018 689 983 701 1000 b 642 1050 701 1042 682 1050 b 578 1015 603 1050 590 1042 b 501 844 549 960 526 908 b 492 807 496 829 492 817 b 518 782 492 792 503 782 z m 422 -26 b 822 350 650 -26 822 132 b 443 715 822 561 672 715 b 42 338 211 715 42 554 b 422 -26 42 128 192 -26 z m 456 64 b 222 390 314 64 222 235 b 410 625 222 531 292 625 b 643 297 550 625 643 454 b 456 64 643 158 574 64 z "},"Œ":{"ha":1604,"x_min":null,"x_max":null,"o":"m 1549 299 b 1497 264 1529 299 1517 286 b 1217 90 1401 156 1338 90 l 1083 90 b 985 158 999 90 985 108 l 985 422 b 1025 456 985 446 993 456 l 1133 456 b 1269 353 1219 456 1218 353 b 1301 399 1286 353 1301 365 b 1297 501 1301 431 1297 465 b 1301 603 1297 536 1301 569 b 1269 649 1301 636 1286 649 b 1133 546 1218 649 1219 546 l 1025 546 b 985 579 993 546 985 556 l 985 828 b 1083 896 985 876 997 896 l 1178 896 b 1444 732 1292 896 1347 835 b 1497 699 1465 711 1478 699 b 1531 735 1514 699 1531 711 b 1494 835 1531 758 1521 782 l 1442 947 b 1374 1017 1418 999 1401 1017 b 1288 986 1340 1017 1336 986 l 790 986 b 588 1014 729 1003 661 1014 b 50 472 276 1014 50 779 b 588 -28 50 165 272 -28 b 779 0 647 -28 715 -18 l 1329 0 b 1422 -31 1381 0 1386 -31 b 1486 29 1449 -31 1467 -10 l 1546 157 b 1583 263 1574 215 1583 238 b 1549 299 1583 285 1567 299 z m 586 71 b 254 488 375 71 254 263 b 588 915 254 714 375 915 b 800 710 732 915 800 819 l 800 254 b 586 71 800 135 708 71 z "},"œ":{"ha":1354,"x_min":null,"x_max":null,"o":"m 1293 190 b 1251 167 1281 190 1269 183 b 1065 89 1204 121 1140 89 b 831 263 956 89 871 161 l 1263 393 b 1296 444 1286 400 1296 410 b 999 715 1296 579 1176 715 b 726 593 892 715 794 674 b 443 715 661 669 561 715 b 42 338 211 715 42 554 b 422 -26 42 128 192 -26 b 719 94 543 -26 649 17 b 993 -26 788 14 886 -26 b 1311 121 1139 -26 1265 47 b 1324 156 1319 135 1324 147 b 1293 190 1324 172 1311 190 z m 456 64 b 222 390 314 64 222 235 b 410 625 222 531 292 625 b 643 297 550 625 643 454 b 456 64 643 158 574 64 z m 971 622 b 1121 474 1060 622 1121 540 b 1088 433 1121 449 1113 440 l 807 344 b 803 404 804 364 803 383 b 971 622 803 538 875 622 z "},"Ŕ":{"ha":1029,"x_min":null,"x_max":null,"o":"m 444 1049 b 504 1078 463 1049 481 1054 b 635 1208 544 1115 604 1179 b 682 1279 668 1242 682 1260 b 608 1308 682 1301 667 1308 b 531 1276 563 1308 547 1300 b 424 1106 499 1228 465 1176 b 411 1071 415 1092 411 1081 b 444 1049 411 1058 424 1049 z m 864 174 l 707 382 b 931 668 843 421 931 525 b 458 994 931 861 774 994 b 231 986 382 994 289 986 b 104 990 179 986 131 990 b 58 957 69 990 58 974 b 147 836 58 900 147 932 l 147 150 b 58 29 147 54 58 86 b 100 -4 58 13 69 -4 b 238 0 133 -4 172 0 b 381 -4 303 0 347 -4 b 422 29 411 -4 422 13 b 331 150 422 86 331 54 l 331 328 b 364 358 331 350 339 360 b 483 358 404 357 444 357 b 547 325 508 360 526 350 l 663 172 b 693 110 678 151 693 131 b 624 31 693 61 624 78 b 672 -4 624 7 640 -4 b 824 0 708 -4 764 0 b 983 -4 888 0 953 -4 b 1021 28 1007 -4 1021 8 b 864 174 1021 85 946 68 z m 454 443 b 331 492 357 443 331 453 l 331 832 b 451 900 331 886 367 900 b 728 667 611 900 728 822 b 454 443 728 490 615 443 z "},"ŕ":{"ha":668,"x_min":null,"x_max":null,"o":"m 326 790 b 386 819 344 790 363 796 b 517 950 426 857 486 921 b 564 1021 550 983 564 1001 b 490 1050 564 1043 549 1050 b 413 1018 444 1050 429 1042 b 306 847 381 969 347 918 b 293 813 297 833 293 822 b 326 790 293 800 306 790 z m 546 704 b 303 515 446 704 347 625 l 303 642 b 265 699 303 676 293 699 b 156 657 253 699 236 694 b 40 575 69 618 40 600 b 136 472 40 517 136 560 l 136 156 b 51 29 136 49 51 83 b 90 -4 51 13 63 -4 b 219 0 122 -4 160 0 b 367 -4 286 0 332 -4 b 406 29 394 -4 406 14 b 303 156 406 88 303 49 l 303 285 b 463 557 303 467 403 557 b 538 486 496 557 517 532 b 579 446 549 464 558 446 b 622 488 601 446 614 461 b 658 626 646 553 658 596 b 546 704 658 668 613 704 z "},"Ŗ":{"ha":1029,"x_min":null,"x_max":null,"o":"m 864 174 l 707 382 b 931 668 843 421 931 525 b 458 994 931 861 774 994 b 231 986 382 994 289 986 b 104 990 179 986 131 990 b 58 957 69 990 58 974 b 147 836 58 900 147 932 l 147 150 b 58 29 147 54 58 86 b 100 -4 58 13 69 -4 b 238 0 133 -4 172 0 b 381 -4 303 0 347 -4 b 422 29 411 -4 422 13 b 331 150 422 86 331 54 l 331 328 b 364 358 331 350 339 360 b 483 358 404 357 444 357 b 547 325 508 360 526 350 l 663 172 b 693 110 678 151 693 131 b 624 31 693 61 624 78 b 672 -4 624 7 640 -4 b 824 0 708 -4 764 0 b 983 -4 888 0 953 -4 b 1021 28 1007 -4 1021 8 b 864 174 1021 85 946 68 z m 454 443 b 331 492 357 443 331 453 l 331 832 b 451 900 331 886 367 900 b 728 667 611 900 728 822 b 454 443 728 490 615 443 z m 519 -56 b 425 -132 468 -56 425 -89 b 469 -194 425 -169 447 -183 b 504 -225 486 -201 504 -210 b 456 -292 504 -251 474 -278 b 435 -324 444 -301 435 -310 b 463 -347 435 -337 446 -347 b 611 -146 511 -347 611 -247 b 519 -56 611 -86 579 -56 z "},"ŗ":{"ha":668,"x_min":null,"x_max":null,"o":"m 546 704 b 303 515 446 704 347 625 l 303 642 b 265 699 303 676 293 699 b 156 657 253 699 236 694 b 40 575 69 618 40 600 b 136 472 40 517 136 560 l 136 156 b 51 29 136 49 51 83 b 90 -4 51 13 63 -4 b 219 0 122 -4 160 0 b 367 -4 286 0 332 -4 b 406 29 394 -4 406 14 b 303 156 406 88 303 49 l 303 285 b 463 557 303 467 403 557 b 538 486 496 557 517 532 b 579 446 549 464 558 446 b 622 488 601 446 614 461 b 658 626 646 553 658 596 b 546 704 658 668 613 704 z m 242 -56 b 147 -132 190 -56 147 -89 b 192 -194 147 -169 169 -183 b 226 -225 208 -201 226 -210 b 178 -292 226 -251 196 -278 b 157 -324 167 -301 157 -310 b 185 -347 157 -337 168 -347 b 333 -146 233 -347 333 -247 b 242 -56 333 -86 301 -56 z "},"Ř":{"ha":1029,"x_min":null,"x_max":null,"o":"m 404 1103 b 486 1067 428 1076 442 1067 b 569 1103 532 1067 546 1076 b 681 1250 608 1151 644 1200 b 697 1288 692 1265 697 1276 b 661 1318 697 1301 683 1318 b 603 1288 644 1318 626 1311 l 488 1172 l 371 1288 b 313 1318 347 1311 329 1318 b 276 1288 290 1318 276 1301 b 293 1250 276 1276 282 1265 b 404 1103 328 1199 364 1151 z m 864 174 l 707 382 b 931 668 843 421 931 525 b 458 994 931 861 774 994 b 231 986 382 994 289 986 b 104 990 179 986 131 990 b 58 957 69 990 58 974 b 147 836 58 900 147 932 l 147 150 b 58 29 147 54 58 86 b 100 -4 58 13 69 -4 b 238 0 133 -4 172 0 b 381 -4 303 0 347 -4 b 422 29 411 -4 422 13 b 331 150 422 86 331 54 l 331 328 b 364 358 331 350 339 360 b 483 358 404 357 444 357 b 547 325 508 360 526 350 l 663 172 b 693 110 678 151 693 131 b 624 31 693 61 624 78 b 672 -4 624 7 640 -4 b 824 0 708 -4 764 0 b 983 -4 888 0 953 -4 b 1021 28 1007 -4 1021 8 b 864 174 1021 85 946 68 z m 454 443 b 331 492 357 443 331 453 l 331 832 b 451 900 331 886 367 900 b 728 667 611 900 728 822 b 454 443 728 490 615 443 z "},"ř":{"ha":668,"x_min":null,"x_max":null,"o":"m 286 844 b 368 808 310 818 324 808 b 451 844 414 808 428 818 b 563 992 490 893 526 942 b 579 1029 574 1007 579 1018 b 543 1060 579 1043 565 1060 b 485 1029 526 1060 508 1053 l 369 914 l 253 1029 b 194 1060 229 1053 211 1060 b 158 1029 172 1060 158 1043 b 175 992 158 1018 164 1007 b 286 844 210 940 246 893 z m 546 704 b 303 515 446 704 347 625 l 303 642 b 265 699 303 676 293 699 b 156 657 253 699 236 694 b 40 575 69 618 40 600 b 136 472 40 517 136 560 l 136 156 b 51 29 136 49 51 83 b 90 -4 51 13 63 -4 b 219 0 122 -4 160 0 b 367 -4 286 0 332 -4 b 406 29 394 -4 406 14 b 303 156 406 88 303 49 l 303 285 b 463 557 303 467 403 557 b 538 486 496 557 517 532 b 579 446 549 464 558 446 b 622 488 601 446 614 461 b 658 626 646 553 658 596 b 546 704 658 668 613 704 z "},"Ś":{"ha":935,"x_min":null,"x_max":null,"o":"m 401 1049 b 461 1078 419 1049 438 1054 b 592 1208 501 1115 561 1179 b 639 1279 625 1242 639 1260 b 565 1308 639 1301 624 1308 b 488 1276 519 1308 504 1300 b 381 1106 456 1228 422 1176 b 368 1071 372 1092 368 1081 b 401 1049 368 1058 381 1049 z m 201 -28 b 278 19 235 -28 240 19 b 532 -21 313 19 399 -21 b 900 276 750 -21 900 92 b 506 621 900 497 703 564 b 244 792 340 671 244 699 b 396 910 244 864 303 910 b 726 749 526 910 636 842 b 783 713 747 728 763 713 b 813 744 799 713 813 726 b 756 869 813 764 800 794 l 717 935 b 642 1015 686 985 674 1015 b 575 974 607 1015 608 974 b 371 1007 543 974 485 1007 b 75 754 200 1007 75 897 b 454 440 75 556 276 492 b 729 239 619 392 729 356 b 518 78 729 143 657 78 b 128 283 350 78 228 176 b 74 318 115 297 96 318 b 39 278 57 318 39 304 b 86 154 39 253 54 226 l 143 32 b 201 -28 160 -4 175 -28 z "},"ś":{"ha":749,"x_min":null,"x_max":null,"o":"m 314 790 b 374 819 332 790 350 796 b 504 950 414 857 474 921 b 551 1021 538 983 551 1001 b 478 1050 551 1043 536 1050 b 400 1018 432 1050 417 1042 b 293 847 368 969 335 918 b 281 813 285 833 281 822 b 314 790 281 800 293 790 z m 169 -24 b 236 13 201 -24 204 13 b 417 -15 260 13 321 -15 b 711 203 585 -15 711 67 b 414 435 711 354 565 400 b 221 543 289 467 221 481 b 326 621 221 589 261 621 b 585 501 414 621 511 567 b 633 472 601 488 617 472 b 663 504 649 472 663 485 b 631 579 663 522 647 551 l 582 657 b 524 707 564 683 550 707 b 469 679 494 707 494 679 b 306 704 446 679 385 704 b 56 503 160 704 56 618 b 350 279 56 361 208 311 b 547 167 468 251 547 238 b 414 69 547 114 497 69 b 119 221 306 69 206 136 b 71 250 101 238 86 250 b 39 215 53 250 39 238 b 75 124 39 193 53 171 l 119 29 b 169 -24 131 6 143 -24 z "},"Ŝ":{"ha":935,"x_min":null,"x_max":null,"o":"m 271 1060 b 328 1090 288 1060 306 1067 l 444 1208 l 561 1090 b 618 1060 583 1067 601 1060 b 656 1090 640 1060 656 1076 b 639 1128 656 1101 650 1113 b 526 1275 604 1179 568 1226 b 444 1311 504 1301 490 1311 b 363 1275 400 1311 385 1301 b 250 1128 322 1226 286 1178 b 235 1090 240 1113 235 1101 b 271 1060 235 1076 249 1060 z m 506 621 b 244 792 340 671 244 699 b 396 910 244 864 303 910 b 726 749 526 910 636 842 b 783 713 747 728 763 713 b 813 744 799 713 813 726 b 756 869 813 764 800 794 l 717 935 b 642 1015 686 985 674 1015 b 575 974 607 1015 608 974 b 371 1007 543 974 485 1007 b 75 754 200 1007 75 897 b 454 440 75 556 276 492 b 729 239 619 392 729 356 b 518 78 729 143 657 78 b 128 283 350 78 228 176 b 74 318 115 297 96 318 b 39 278 57 318 39 304 b 86 154 39 253 54 226 l 143 32 b 201 -28 160 -4 175 -28 b 278 19 235 -28 240 19 b 532 -21 313 19 399 -21 b 900 276 750 -21 900 92 b 506 621 900 497 703 564 z "},"ŝ":{"ha":749,"x_min":null,"x_max":null,"o":"m 183 801 b 240 832 200 801 218 808 l 357 950 l 474 832 b 531 801 496 808 514 801 b 568 832 553 801 568 818 b 551 869 568 843 563 854 b 439 1017 517 921 481 968 b 357 1053 417 1043 403 1053 b 275 1017 313 1053 297 1043 b 163 869 235 968 199 919 b 147 832 153 854 147 843 b 183 801 147 818 161 801 z m 414 435 b 221 543 289 467 221 481 b 326 621 221 589 261 621 b 585 501 414 621 511 567 b 633 472 601 488 617 472 b 663 504 649 472 663 485 b 631 579 663 522 647 551 l 582 657 b 524 707 564 683 550 707 b 469 679 494 707 494 679 b 306 704 446 679 385 704 b 56 503 160 704 56 618 b 350 279 56 361 208 311 b 547 167 468 251 547 238 b 414 69 547 114 497 69 b 119 221 306 69 206 136 b 71 250 101 238 86 250 b 39 215 53 250 39 238 b 75 124 39 193 53 171 l 119 29 b 169 -24 131 6 143 -24 b 236 13 201 -24 204 13 b 417 -15 260 13 321 -15 b 711 203 585 -15 711 67 b 414 435 711 354 565 400 z "},"Ş":{"ha":935,"x_min":null,"x_max":null,"o":"m 532 -21 b 900 276 750 -21 900 92 b 506 621 900 497 703 564 b 244 792 340 671 244 699 b 396 910 244 864 303 910 b 726 749 526 910 636 842 b 783 713 747 728 763 713 b 813 744 799 713 813 726 b 756 869 813 764 800 794 l 717 935 b 642 1015 686 985 674 1015 b 575 974 607 1015 608 974 b 371 1007 543 974 485 1007 b 75 754 200 1007 75 897 b 454 440 75 556 276 492 b 729 239 619 392 729 356 b 518 78 729 143 657 78 b 128 283 350 78 228 176 b 74 318 115 297 96 318 b 39 278 57 318 39 304 b 86 154 39 253 54 226 l 143 32 b 201 -28 160 -4 175 -28 b 278 19 235 -28 240 19 b 450 -15 304 19 363 -6 l 424 -111 b 467 -151 428 -126 453 -147 b 528 -136 488 -143 508 -136 b 585 -175 565 -136 585 -151 b 521 -217 585 -200 560 -217 b 440 -199 492 -217 463 -207 b 407 -190 428 -194 415 -190 b 382 -218 392 -190 382 -203 b 401 -249 382 -231 388 -239 b 526 -278 431 -265 478 -278 b 679 -167 615 -278 679 -232 b 550 -64 679 -107 624 -64 b 506 -69 535 -64 519 -65 l 518 -21 z "},"ş":{"ha":749,"x_min":null,"x_max":null,"o":"m 417 -15 b 711 203 585 -15 711 67 b 414 435 711 354 565 400 b 221 543 289 467 221 481 b 326 621 221 589 261 621 b 585 501 414 621 511 567 b 633 472 601 488 617 472 b 663 504 649 472 663 485 b 631 579 663 522 647 551 l 582 657 b 524 707 564 683 550 707 b 469 679 494 707 494 679 b 306 704 446 679 385 704 b 56 503 160 704 56 618 b 350 279 56 361 208 311 b 547 167 468 251 547 238 b 414 69 547 114 497 69 b 119 221 306 69 206 136 b 71 250 101 238 86 250 b 39 215 53 250 39 238 b 75 124 39 193 53 171 l 119 29 b 169 -24 131 6 143 -24 b 236 13 201 -24 204 13 b 335 -8 251 13 285 0 l 306 -111 b 349 -151 310 -126 335 -147 b 410 -136 369 -143 390 -136 b 467 -175 447 -136 467 -151 b 403 -217 467 -200 442 -217 b 322 -199 374 -217 344 -207 b 289 -190 310 -194 297 -190 b 264 -218 274 -190 264 -203 b 283 -249 264 -231 269 -239 b 408 -278 313 -265 360 -278 b 561 -167 497 -278 561 -232 b 432 -64 561 -107 506 -64 b 388 -69 417 -64 401 -65 l 401 -15 z "},"Š":{"ha":935,"x_min":null,"x_max":null,"o":"m 361 1103 b 443 1067 385 1076 399 1067 b 526 1103 489 1067 503 1076 b 638 1250 565 1151 601 1200 b 654 1288 649 1265 654 1276 b 618 1318 654 1301 640 1318 b 560 1288 601 1318 583 1311 l 444 1172 l 328 1288 b 269 1318 304 1311 286 1318 b 233 1288 247 1318 233 1301 b 250 1250 233 1276 239 1265 b 361 1103 285 1199 321 1151 z m 506 621 b 244 792 340 671 244 699 b 396 910 244 864 303 910 b 726 749 526 910 636 842 b 783 713 747 728 763 713 b 813 744 799 713 813 726 b 756 869 813 764 800 794 l 717 935 b 642 1015 686 985 674 1015 b 575 974 607 1015 608 974 b 371 1007 543 974 485 1007 b 75 754 200 1007 75 897 b 454 440 75 556 276 492 b 729 239 619 392 729 356 b 518 78 729 143 657 78 b 128 283 350 78 228 176 b 74 318 115 297 96 318 b 39 278 57 318 39 304 b 86 154 39 253 54 226 l 143 32 b 201 -28 160 -4 175 -28 b 278 19 235 -28 240 19 b 532 -21 313 19 399 -21 b 900 276 750 -21 900 92 b 506 621 900 497 703 564 z "},"š":{"ha":749,"x_min":null,"x_max":null,"o":"m 274 844 b 356 808 297 818 311 808 b 439 844 401 808 415 818 b 550 992 478 893 514 942 b 567 1029 561 1007 567 1018 b 531 1060 567 1043 553 1060 b 472 1029 514 1060 496 1053 l 357 914 l 240 1029 b 182 1060 217 1053 199 1060 b 146 1029 160 1060 146 1043 b 163 992 146 1018 151 1007 b 274 844 197 940 233 893 z m 414 435 b 221 543 289 467 221 481 b 326 621 221 589 261 621 b 585 501 414 621 511 567 b 633 472 601 488 617 472 b 663 504 649 472 663 485 b 631 579 663 522 647 551 l 582 657 b 524 707 564 683 550 707 b 469 679 494 707 494 679 b 306 704 446 679 385 704 b 56 503 160 704 56 618 b 350 279 56 361 208 311 b 547 167 468 251 547 238 b 414 69 547 114 497 69 b 119 221 306 69 206 136 b 71 250 101 238 86 250 b 39 215 53 250 39 238 b 75 124 39 193 53 171 l 119 29 b 169 -24 131 6 143 -24 b 236 13 201 -24 204 13 b 417 -15 260 13 321 -15 b 711 203 585 -15 711 67 b 414 435 711 354 565 400 z "},"Ţ":{"ha":1043,"x_min":null,"x_max":null,"o":"m 360 -4 b 521 0 400 -4 451 0 b 682 -4 592 0 642 -4 b 724 31 713 -4 724 13 b 614 150 724 92 614 56 l 614 835 b 669 896 614 876 628 896 l 708 896 b 958 735 800 896 867 840 b 1008 700 978 713 990 700 b 1043 739 1026 700 1043 714 b 1013 835 1043 761 1032 786 l 965 947 b 900 1017 943 999 928 1017 b 813 986 867 1017 861 986 l 229 986 b 143 1017 182 986 176 1017 b 78 947 115 1017 99 999 l 31 835 b 0 739 10 786 0 761 b 33 700 0 714 15 700 b 85 735 53 700 65 713 b 333 896 176 840 242 896 l 374 896 b 429 835 415 896 429 876 l 429 150 b 319 31 429 56 319 92 b 360 -4 319 13 331 -4 z m 485 -347 b 633 -146 533 -347 633 -247 b 543 -56 633 -86 601 -56 b 447 -132 490 -56 447 -89 b 492 -194 447 -169 469 -183 b 526 -225 508 -201 526 -210 b 479 -292 526 -251 496 -278 b 457 -324 467 -301 457 -310 b 485 -347 457 -337 468 -347 z "},"ţ":{"ha":571,"x_min":null,"x_max":null,"o":"m 526 160 b 492 140 513 160 500 149 b 389 92 463 117 435 92 b 300 225 338 92 300 121 l 300 600 l 510 600 b 540 628 528 600 538 608 b 544 661 542 636 544 651 b 515 688 544 679 535 688 l 300 688 l 300 904 b 269 947 300 935 288 947 b 213 885 246 947 235 928 b 46 685 174 774 133 726 b 6 636 21 672 6 660 b 50 600 6 614 24 600 l 133 600 l 133 356 b 129 124 133 260 129 153 b 324 -17 129 47 211 -17 b 528 64 410 -17 479 14 b 560 125 547 83 560 106 b 526 160 560 143 547 160 z m 319 -56 b 225 -132 267 -56 225 -89 b 269 -194 225 -169 247 -183 b 303 -225 285 -201 303 -210 b 256 -292 303 -251 274 -278 b 233 -324 243 -301 233 -310 b 261 -347 233 -337 246 -347 b 410 -146 310 -347 410 -247 b 319 -56 410 -86 379 -56 z "},"Ť":{"ha":1043,"x_min":null,"x_max":null,"o":"m 446 1103 b 528 1067 469 1076 483 1067 b 611 1103 574 1067 588 1076 b 722 1250 650 1151 686 1200 b 739 1288 733 1265 739 1276 b 703 1318 739 1301 725 1318 b 644 1288 686 1318 668 1311 l 529 1172 l 413 1288 b 354 1318 389 1311 371 1318 b 318 1288 332 1318 318 1301 b 335 1250 318 1276 324 1265 b 446 1103 369 1199 406 1151 z m 1013 835 l 965 947 b 900 1017 943 999 928 1017 b 813 986 867 1017 861 986 l 229 986 b 143 1017 182 986 176 1017 b 78 947 115 1017 99 999 l 31 835 b 0 739 10 786 0 761 b 33 700 0 714 15 700 b 85 735 53 700 65 713 b 333 896 176 840 242 896 l 374 896 b 429 835 415 896 429 876 l 429 150 b 319 31 429 56 319 92 b 360 -4 319 13 331 -4 b 521 0 400 -4 451 0 b 682 -4 592 0 642 -4 b 724 31 713 -4 724 13 b 614 150 724 92 614 56 l 614 835 b 669 896 614 876 628 896 l 708 896 b 958 735 800 896 867 840 b 1008 700 978 713 990 700 b 1043 739 1026 700 1043 714 b 1013 835 1043 761 1032 786 z "},"ť":{"ha":571,"x_min":null,"x_max":null,"o":"m 404 794 b 446 831 426 794 439 807 b 483 1113 463 903 483 1038 b 418 1154 483 1142 463 1154 b 374 1113 383 1154 374 1144 l 372 826 b 404 794 372 803 383 794 z m 526 160 b 492 140 513 160 500 149 b 389 92 463 117 435 92 b 300 225 338 92 300 121 l 300 600 l 510 600 b 540 628 528 600 538 608 b 544 661 542 636 544 651 b 515 688 544 679 535 688 l 300 688 l 300 904 b 269 947 300 935 288 947 b 213 885 246 947 235 928 b 46 685 174 774 133 726 b 6 636 21 672 6 660 b 50 600 6 614 24 600 l 133 600 l 133 356 b 129 124 133 260 129 153 b 324 -17 129 47 211 -17 b 528 64 410 -17 479 14 b 560 125 547 83 560 106 b 526 160 560 143 547 160 z "},"Ŧ":{"ha":1044,"x_min":null,"x_max":null,"o":"m 1013 835 l 967 947 b 901 1017 944 999 928 1017 b 814 986 868 1017 863 986 l 231 986 b 143 1017 182 986 176 1017 b 78 947 117 1017 100 999 l 32 835 b 0 739 11 786 0 761 b 35 700 0 714 17 700 b 85 735 54 700 67 713 b 335 896 176 840 243 896 l 374 896 b 431 835 415 896 431 876 l 431 522 l 256 522 b 208 476 221 522 208 507 b 256 431 208 446 221 431 l 431 431 l 431 150 b 319 31 431 56 319 92 b 361 -4 319 13 331 -4 b 522 0 401 -4 451 0 b 683 -4 593 0 643 -4 b 725 31 713 -4 725 13 b 614 150 725 92 614 56 l 614 431 l 788 431 b 836 476 824 431 836 446 b 788 522 836 507 824 522 l 614 522 l 614 835 b 671 896 614 876 628 896 l 710 896 b 960 735 801 896 868 840 b 1010 700 978 713 990 700 b 1044 739 1028 700 1044 714 b 1013 835 1044 761 1033 786 z "},"ŧ":{"ha":579,"x_min":null,"x_max":null,"o":"m 535 160 b 499 140 519 160 508 149 b 397 92 471 117 442 92 b 307 225 344 92 307 121 l 307 331 l 458 331 b 507 372 493 331 507 344 b 458 414 507 400 493 414 l 307 414 l 307 600 l 517 600 b 549 628 536 600 544 608 b 553 661 550 636 553 651 b 524 688 553 679 542 688 l 307 688 l 307 904 b 276 947 307 935 294 947 b 221 885 253 947 242 928 b 54 685 181 774 140 726 b 13 636 28 672 13 660 b 58 600 13 614 31 600 l 140 600 l 140 414 l 64 414 b 15 372 28 414 15 400 b 64 331 15 344 28 331 l 140 331 b 136 124 140 242 136 150 b 331 -17 136 47 218 -17 b 536 64 418 -17 486 14 b 567 125 554 83 567 106 b 535 160 567 143 554 160 z "},"Ũ":{"ha":1017,"x_min":null,"x_max":null,"o":"m 614 1076 b 733 1186 671 1076 713 1128 b 743 1233 740 1207 743 1224 b 710 1268 743 1256 731 1268 b 663 1222 685 1268 678 1249 b 617 1175 646 1190 632 1175 b 438 1281 576 1175 518 1281 b 319 1169 382 1281 339 1226 b 310 1124 313 1149 310 1132 b 343 1089 310 1101 322 1089 b 390 1135 367 1089 375 1108 b 436 1181 406 1163 421 1181 b 614 1076 469 1181 533 1076 z m 510 -28 b 918 303 736 -26 918 61 b 913 385 918 324 915 351 l 876 790 b 872 849 875 813 872 835 b 926 915 872 893 901 906 b 965 957 946 924 965 932 b 924 990 965 974 953 990 b 814 986 889 990 846 986 b 694 990 779 986 731 990 b 649 957 664 990 649 974 b 696 910 649 926 671 919 b 763 836 725 899 758 888 l 801 390 b 806 314 803 364 806 333 b 543 90 806 150 694 90 b 285 317 382 92 285 163 b 289 393 285 336 288 368 l 325 836 b 386 914 329 889 360 901 b 425 957 406 922 425 931 b 382 990 425 974 413 990 b 233 986 349 990 299 986 b 94 990 168 986 128 990 b 53 957 64 990 53 974 b 90 915 53 932 71 924 b 142 849 114 906 142 893 b 138 790 142 835 139 813 l 104 394 b 99 308 101 365 99 333 b 510 -28 99 61 283 -28 z "},"ũ":{"ha":896,"x_min":null,"x_max":null,"o":"m 251 831 b 299 876 275 831 283 850 b 344 922 314 904 329 922 b 522 818 378 922 442 818 b 642 928 579 818 621 869 b 651 975 649 949 651 965 b 618 1010 651 997 639 1010 b 571 964 593 1010 586 990 b 525 917 554 932 540 917 b 346 1022 485 917 426 1022 b 228 911 290 1022 247 968 b 218 865 221 890 218 874 b 251 831 218 843 231 831 z m 764 197 l 764 640 b 728 699 764 668 760 699 b 614 668 717 699 692 694 b 478 589 508 632 478 618 b 597 479 478 533 597 565 l 597 313 b 426 113 597 174 511 113 b 290 290 325 113 290 178 l 290 640 b 253 699 290 668 286 699 b 140 667 240 699 222 696 b 17 589 46 633 17 618 b 124 479 17 536 124 565 l 124 251 b 360 -17 124 83 208 -17 b 597 118 476 -17 553 44 l 597 40 b 633 -11 597 15 606 -11 b 743 10 649 -11 674 -7 b 875 78 846 32 875 46 b 764 197 875 126 764 111 z "},"Ū":{"ha":1017,"x_min":null,"x_max":null,"o":"m 358 1125 b 525 1128 390 1125 485 1128 b 692 1125 565 1128 656 1125 b 733 1175 721 1125 733 1142 b 692 1224 733 1207 721 1224 b 524 1222 660 1224 565 1222 l 358 1224 b 317 1175 328 1224 317 1207 b 358 1125 317 1142 328 1125 z m 510 -28 b 918 303 736 -26 918 61 b 913 385 918 324 915 351 l 876 790 b 872 849 875 813 872 835 b 926 915 872 893 901 906 b 965 957 946 924 965 932 b 924 990 965 974 953 990 b 814 986 889 990 846 986 b 694 990 779 986 731 990 b 649 957 664 990 649 974 b 696 910 649 926 671 919 b 763 836 725 899 758 888 l 801 390 b 806 314 803 364 806 333 b 543 90 806 150 694 90 b 285 317 382 92 285 163 b 289 393 285 336 288 368 l 325 836 b 386 914 329 889 360 901 b 425 957 406 922 425 931 b 382 990 425 974 413 990 b 233 986 349 990 299 986 b 94 990 168 986 128 990 b 53 957 64 990 53 974 b 90 915 53 932 71 924 b 142 849 114 906 142 893 b 138 790 142 835 139 813 l 104 394 b 99 308 101 365 99 333 b 510 -28 99 61 283 -28 z "}}}
